<ttFont>
    <TTGlyph name="A" xMin="35" yMin="0" xMax="777" yMax="732">
      <contour>
        <pt x="35" y="40" on="1"/>
        <pt x="112" y="40" on="1"/>
        <pt x="186" y="214" on="0"/>
        <pt x="333" y="558" on="0"/>
        <pt x="406" y="732" on="1"/>
        <pt x="479" y="558" on="0"/>
        <pt x="626" y="214" on="0"/>
        <pt x="699" y="40" on="1"/>
        <pt x="777" y="40" on="1"/>
        <pt x="777" y="0" on="1"/>
        <pt x="584" y="0" on="1"/>
        <pt x="584" y="40" on="1"/>
        <pt x="657" y="40" on="1"/>
        <pt x="629" y="105" on="0"/>
        <pt x="575" y="234" on="0"/>
        <pt x="547" y="300" on="1"/>
        <pt x="265" y="300" on="1"/>
        <pt x="237" y="234" on="0"/>
        <pt x="183" y="105" on="0"/>
        <pt x="155" y="40" on="1"/>
        <pt x="228" y="40" on="1"/>
        <pt x="228" y="0" on="1"/>
        <pt x="35" y="0" on="1"/>
      </contour>
      <contour>
        <pt x="415" y="611" on="1"/>
        <pt x="406" y="639" on="1"/>
        <pt x="404" y="636" on="0"/>
        <pt x="401" y="624" on="1"/>
        <pt x="399" y="618" on="0"/>
        <pt x="396" y="611" on="1"/>
        <pt x="386" y="585" on="0"/>
        <pt x="359" y="520" on="0"/>
        <pt x="329" y="449" on="0"/>
        <pt x="298" y="375" on="0"/>
        <pt x="283" y="340" on="1"/>
        <pt x="529" y="340" on="1"/>
      </contour>
    </TTGlyph>
    <TTGlyph name="AE" xMin="35" yMin="0" xMax="741" yMax="700">
      <contour>
        <pt x="687" y="546" on="1"/>
        <pt x="687" y="660" on="1"/>
        <pt x="440" y="660" on="1"/>
        <pt x="440" y="373" on="1"/>
        <pt x="688" y="373" on="1"/>
        <pt x="688" y="333" on="1"/>
        <pt x="440" y="333" on="1"/>
        <pt x="440" y="40" on="1"/>
        <pt x="701" y="40" on="1"/>
        <pt x="701" y="154" on="1"/>
        <pt x="741" y="154" on="1"/>
        <pt x="741" y="0" on="1"/>
        <pt x="398" y="0" on="1"/>
        <pt x="398" y="295" on="1"/>
        <pt x="264" y="295" on="1"/>
        <pt x="237" y="231" on="0"/>
        <pt x="183" y="104" on="0"/>
        <pt x="155" y="40" on="1"/>
        <pt x="228" y="40" on="1"/>
        <pt x="228" y="0" on="1"/>
        <pt x="35" y="0" on="1"/>
        <pt x="35" y="40" on="1"/>
        <pt x="113" y="40" on="1"/>
        <pt x="184" y="206" on="0"/>
        <pt x="322" y="534" on="0"/>
        <pt x="392" y="700" on="1"/>
        <pt x="727" y="700" on="1"/>
        <pt x="727" y="546" on="1"/>
      </contour>
      <contour>
        <pt x="398" y="335" on="1"/>
        <pt x="398" y="619" on="1"/>
        <pt x="373" y="547" on="0"/>
        <pt x="310" y="406" on="0"/>
        <pt x="281" y="335" on="1"/>
      </contour>
    </TTGlyph>
    <TTGlyph name="Aacute" xMin="35" yMin="0" xMax="777" yMax="883">
      <component glyphName="acute" x="291" y="271" flags="0x4"/>
      <component glyphName="A" x="0" y="0" flags="0x4"/>
    </TTGlyph>
    <TTGlyph name="Acircumflex" xMin="35" yMin="0" xMax="777" yMax="931">
      <component glyphName="asciicircum" x="174" y="271" flags="0x4"/>
      <component glyphName="A" x="0" y="0" flags="0x4"/>
    </TTGlyph>
    <TTGlyph name="Adieresis" xMin="35" yMin="0" xMax="777" yMax="831">
      <component glyphName="dieresis" x="222" y="290" flags="0x4"/>
      <component glyphName="A" x="0" y="0" flags="0x4"/>
    </TTGlyph>
    <TTGlyph name="Agrave" xMin="35" yMin="0" xMax="777" yMax="883">
      <component glyphName="A" x="0" y="0" flags="0x204"/>
      <component glyphName="grave" x="315" y="271" flags="0x4"/>
    </TTGlyph>
    <TTGlyph name="Aring" xMin="35" yMin="0" xMax="777" yMax="909">
      <component glyphName="A" x="0" y="0" flags="0x204"/>
      <component glyphName="ring" x="287" y="296" flags="0x4"/>
    </TTGlyph>
    <TTGlyph name="Atilde" xMin="35" yMin="0" xMax="777" yMax="839">
      <component glyphName="asciitilde" x="129" y="294" flags="0x4"/>
      <component glyphName="A" x="0" y="0" flags="0x4"/>
    </TTGlyph>
    <TTGlyph name="B" xMin="35" yMin="0" xMax="491" yMax="700">
      <contour>
        <pt x="35" y="40" on="1"/>
        <pt x="96" y="40" on="1"/>
        <pt x="96" y="660" on="1"/>
        <pt x="35" y="660" on="1"/>
        <pt x="35" y="700" on="1"/>
        <pt x="256" y="700" on="1"/>
        <pt x="303" y="700" on="0"/>
        <pt x="380" y="680" on="0"/>
        <pt x="435" y="638" on="0"/>
        <pt x="465" y="571" on="0"/>
        <pt x="465" y="525" on="1"/>
        <pt x="465" y="463" on="0"/>
        <pt x="404" y="369" on="0"/>
        <pt x="341" y="352" on="1"/>
        <pt x="371" y="346" on="0"/>
        <pt x="425" y="318" on="0"/>
        <pt x="466" y="274" on="0"/>
        <pt x="491" y="216" on="0"/>
        <pt x="491" y="180" on="1"/>
        <pt x="491" y="135" on="0"/>
        <pt x="455" y="68" on="0"/>
        <pt x="394" y="23" on="0"/>
        <pt x="316" y="0" on="0"/>
        <pt x="274" y="0" on="1"/>
        <pt x="35" y="0" on="1"/>
      </contour>
      <contour>
        <pt x="137" y="332" on="1"/>
        <pt x="137" y="40" on="1"/>
        <pt x="270" y="40" on="1"/>
        <pt x="307" y="40" on="0"/>
        <pt x="372" y="58" on="0"/>
        <pt x="421" y="94" on="0"/>
        <pt x="450" y="147" on="0"/>
        <pt x="450" y="183" on="1"/>
        <pt x="450" y="222" on="0"/>
        <pt x="417" y="278" on="0"/>
        <pt x="362" y="315" on="0"/>
        <pt x="291" y="332" on="0"/>
        <pt x="253" y="332" on="1"/>
      </contour>
      <contour>
        <pt x="137" y="660" on="1"/>
        <pt x="137" y="372" on="1"/>
        <pt x="269" y="372" on="1"/>
        <pt x="340" y="372" on="0"/>
        <pt x="424" y="455" on="0"/>
        <pt x="424" y="522" on="1"/>
        <pt x="424" y="559" on="0"/>
        <pt x="401" y="612" on="0"/>
        <pt x="359" y="645" on="0"/>
        <pt x="300" y="660" on="0"/>
        <pt x="265" y="660" on="1"/>
      </contour>
    </TTGlyph>
    <TTGlyph name="C" xMin="35" yMin="-8" xMax="575" yMax="708">
      <contour>
        <pt x="535" y="546" on="1"/>
        <pt x="535" y="632" on="1"/>
        <pt x="503" y="649" on="0"/>
        <pt x="430" y="668" on="0"/>
        <pt x="392" y="668" on="1"/>
        <pt x="327" y="668" on="0"/>
        <pt x="212" y="617" on="0"/>
        <pt x="126" y="530" on="0"/>
        <pt x="77" y="414" on="0"/>
        <pt x="77" y="348" on="1"/>
        <pt x="77" y="283" on="0"/>
        <pt x="126" y="168" on="0"/>
        <pt x="212" y="82" on="0"/>
        <pt x="325" y="32" on="0"/>
        <pt x="390" y="32" on="1"/>
        <pt x="435" y="32" on="0"/>
        <pt x="515" y="55" on="0"/>
        <pt x="551" y="76" on="1"/>
        <pt x="574" y="42" on="1"/>
        <pt x="534" y="19" on="0"/>
        <pt x="443" y="-8" on="0"/>
        <pt x="392" y="-8" on="1"/>
        <pt x="318" y="-8" on="0"/>
        <pt x="188" y="48" on="0"/>
        <pt x="91" y="145" on="0"/>
        <pt x="35" y="275" on="0"/>
        <pt x="35" y="349" on="1"/>
        <pt x="35" y="423" on="0"/>
        <pt x="91" y="554" on="0"/>
        <pt x="188" y="651" on="0"/>
        <pt x="318" y="708" on="0"/>
        <pt x="392" y="708" on="1"/>
        <pt x="443" y="708" on="0"/>
        <pt x="534" y="682" on="0"/>
        <pt x="575" y="658" on="1"/>
        <pt x="575" y="546" on="1"/>
      </contour>
    </TTGlyph>
    <TTGlyph name="Ccedilla" xMin="35" yMin="-234" xMax="575" yMax="708">
      <contour>
        <pt x="535" y="465" on="1"/>
        <pt x="535" y="632" on="1"/>
        <pt x="503" y="649" on="0"/>
        <pt x="430" y="668" on="0"/>
        <pt x="392" y="668" on="1"/>
        <pt x="327" y="668" on="0"/>
        <pt x="212" y="617" on="0"/>
        <pt x="126" y="530" on="0"/>
        <pt x="77" y="414" on="0"/>
        <pt x="77" y="348" on="1"/>
        <pt x="77" y="283" on="0"/>
        <pt x="126" y="168" on="0"/>
        <pt x="212" y="82" on="0"/>
        <pt x="325" y="32" on="0"/>
        <pt x="390" y="32" on="1"/>
        <pt x="435" y="32" on="0"/>
        <pt x="515" y="55" on="0"/>
        <pt x="551" y="76" on="1"/>
        <pt x="574" y="42" on="1"/>
        <pt x="535" y="19" on="0"/>
        <pt x="446" y="-7" on="0"/>
        <pt x="398" y="-8" on="1"/>
        <pt x="398" y="-13" on="0"/>
        <pt x="398" y="-20" on="0"/>
        <pt x="399" y="-21" on="1"/>
        <pt x="404" y="-39" on="0"/>
        <pt x="428" y="-54" on="0"/>
        <pt x="439" y="-61" on="1"/>
        <pt x="461" y="-76" on="0"/>
        <pt x="479" y="-115" on="0"/>
        <pt x="479" y="-133" on="1"/>
        <pt x="479" y="-181" on="0"/>
        <pt x="428" y="-234" on="0"/>
        <pt x="387" y="-234" on="1"/>
        <pt x="358" y="-234" on="0"/>
        <pt x="308" y="-202" on="0"/>
        <pt x="297" y="-169" on="1"/>
        <pt x="324" y="-157" on="1"/>
        <pt x="330" y="-176" on="0"/>
        <pt x="361" y="-201" on="0"/>
        <pt x="384" y="-201" on="1"/>
        <pt x="413" y="-201" on="0"/>
        <pt x="446" y="-163" on="0"/>
        <pt x="446" y="-135" on="1"/>
        <pt x="446" y="-110" on="0"/>
        <pt x="422" y="-83" on="0"/>
        <pt x="393" y="-63" on="0"/>
        <pt x="369" y="-42" on="0"/>
        <pt x="369" y="-23" on="1"/>
        <pt x="369" y="-7" on="1"/>
        <pt x="299" y="-3" on="0"/>
        <pt x="177" y="56" on="0"/>
        <pt x="87" y="152" on="0"/>
        <pt x="35" y="278" on="0"/>
        <pt x="35" y="349" on="1"/>
        <pt x="35" y="423" on="0"/>
        <pt x="91" y="554" on="0"/>
        <pt x="188" y="651" on="0"/>
        <pt x="318" y="708" on="0"/>
        <pt x="392" y="708" on="1"/>
        <pt x="443" y="708" on="0"/>
        <pt x="534" y="682" on="0"/>
        <pt x="575" y="658" on="1"/>
        <pt x="575" y="465" on="1"/>
      </contour>
    </TTGlyph>
    <TTGlyph name="D" xMin="35" yMin="0" xMax="597" yMax="700">
      <contour>
        <pt x="35" y="40" on="1"/>
        <pt x="98" y="40" on="1"/>
        <pt x="98" y="660" on="1"/>
        <pt x="35" y="660" on="1"/>
        <pt x="35" y="700" on="1"/>
        <pt x="245" y="700" on="1"/>
        <pt x="317" y="700" on="0"/>
        <pt x="445" y="651" on="0"/>
        <pt x="541" y="560" on="0"/>
        <pt x="597" y="430" on="0"/>
        <pt x="597" y="350" on="1"/>
        <pt x="597" y="291" on="0"/>
        <pt x="556" y="167" on="0"/>
        <pt x="464" y="65" on="0"/>
        <pt x="317" y="0" on="0"/>
        <pt x="211" y="0" on="1"/>
        <pt x="35" y="0" on="1"/>
      </contour>
      <contour>
        <pt x="139" y="660" on="1"/>
        <pt x="139" y="40" on="1"/>
        <pt x="226" y="40" on="1"/>
        <pt x="309" y="40" on="0"/>
        <pt x="433" y="93" on="0"/>
        <pt x="515" y="180" on="0"/>
        <pt x="556" y="291" on="0"/>
        <pt x="556" y="350" on="1"/>
        <pt x="556" y="421" on="0"/>
        <pt x="507" y="536" on="0"/>
        <pt x="422" y="617" on="0"/>
        <pt x="309" y="660" on="0"/>
        <pt x="245" y="660" on="1"/>
      </contour>
    </TTGlyph>
    <TTGlyph name="E" xMin="35" yMin="0" xMax="536" yMax="700">
      <contour>
        <pt x="35" y="40" on="1"/>
        <pt x="107" y="40" on="1"/>
        <pt x="107" y="660" on="1"/>
        <pt x="35" y="660" on="1"/>
        <pt x="35" y="700" on="1"/>
        <pt x="522" y="700" on="1"/>
        <pt x="522" y="546" on="1"/>
        <pt x="482" y="546" on="1"/>
        <pt x="482" y="660" on="1"/>
        <pt x="148" y="660" on="1"/>
        <pt x="148" y="373" on="1"/>
        <pt x="483" y="373" on="1"/>
        <pt x="483" y="333" on="1"/>
        <pt x="148" y="333" on="1"/>
        <pt x="148" y="40" on="1"/>
        <pt x="496" y="40" on="1"/>
        <pt x="496" y="154" on="1"/>
        <pt x="536" y="154" on="1"/>
        <pt x="536" y="0" on="1"/>
        <pt x="35" y="0" on="1"/>
      </contour>
    </TTGlyph>
    <TTGlyph name="Eacute" xMin="35" yMin="0" xMax="536" yMax="883">
      <component glyphName="E" x="0" y="0" flags="0x204"/>
      <component glyphName="acute" x="171" y="271" flags="0x4"/>
    </TTGlyph>
    <TTGlyph name="Ecircumflex" xMin="35" yMin="0" xMax="536" yMax="931">
      <component glyphName="E" x="0" y="0" flags="0x204"/>
      <component glyphName="asciicircum" x="68" y="271" flags="0x4"/>
    </TTGlyph>
    <TTGlyph name="Edieresis" xMin="35" yMin="0" xMax="536" yMax="831">
      <component glyphName="E" x="0" y="0" flags="0x204"/>
      <component glyphName="dieresis" x="110" y="290" flags="0x4"/>
    </TTGlyph>
    <TTGlyph name="Egrave" xMin="35" yMin="0" xMax="536" yMax="883">
      <component glyphName="E" x="0" y="0" flags="0x204"/>
      <component glyphName="grave" x="206" y="271" flags="0x4"/>
    </TTGlyph>
    <TTGlyph name="Eth" xMin="35" yMin="0" xMax="597" yMax="700">
      <contour>
        <pt x="44" y="372" on="1"/>
        <pt x="98" y="372" on="1"/>
        <pt x="98" y="660" on="1"/>
        <pt x="35" y="660" on="1"/>
        <pt x="35" y="700" on="1"/>
        <pt x="245" y="700" on="1"/>
        <pt x="317" y="700" on="0"/>
        <pt x="445" y="651" on="0"/>
        <pt x="541" y="560" on="0"/>
        <pt x="597" y="430" on="0"/>
        <pt x="597" y="350" on="1"/>
        <pt x="597" y="291" on="0"/>
        <pt x="556" y="167" on="0"/>
        <pt x="464" y="65" on="0"/>
        <pt x="317" y="0" on="0"/>
        <pt x="211" y="0" on="1"/>
        <pt x="35" y="0" on="1"/>
        <pt x="35" y="40" on="1"/>
        <pt x="98" y="40" on="1"/>
        <pt x="98" y="331" on="1"/>
        <pt x="44" y="331" on="1"/>
      </contour>
      <contour>
        <pt x="139" y="660" on="1"/>
        <pt x="139" y="372" on="1"/>
        <pt x="346" y="372" on="1"/>
        <pt x="346" y="331" on="1"/>
        <pt x="139" y="331" on="1"/>
        <pt x="139" y="41" on="1"/>
        <pt x="226" y="41" on="1"/>
        <pt x="309" y="41" on="0"/>
        <pt x="433" y="94" on="0"/>
        <pt x="515" y="180" on="0"/>
        <pt x="556" y="291" on="0"/>
        <pt x="556" y="350" on="1"/>
        <pt x="556" y="421" on="0"/>
        <pt x="507" y="536" on="0"/>
        <pt x="422" y="617" on="0"/>
        <pt x="309" y="660" on="0"/>
        <pt x="245" y="660" on="1"/>
      </contour>
    </TTGlyph>
    <TTGlyph name="F" xMin="35" yMin="0" xMax="522" yMax="700">
      <contour>
        <pt x="35" y="40" on="1"/>
        <pt x="107" y="40" on="1"/>
        <pt x="107" y="660" on="1"/>
        <pt x="35" y="660" on="1"/>
        <pt x="35" y="700" on="1"/>
        <pt x="522" y="700" on="1"/>
        <pt x="522" y="546" on="1"/>
        <pt x="482" y="546" on="1"/>
        <pt x="482" y="660" on="1"/>
        <pt x="148" y="660" on="1"/>
        <pt x="148" y="373" on="1"/>
        <pt x="483" y="373" on="1"/>
        <pt x="483" y="333" on="1"/>
        <pt x="148" y="333" on="1"/>
        <pt x="148" y="40" on="1"/>
        <pt x="236" y="40" on="1"/>
        <pt x="236" y="0" on="1"/>
        <pt x="35" y="0" on="1"/>
      </contour>
    </TTGlyph>
    <TTGlyph name="G" xMin="35" yMin="-10" xMax="575" yMax="706">
      <contour>
        <pt x="574" y="298" on="1"/>
        <pt x="574" y="40" on="1"/>
        <pt x="534" y="17" on="0"/>
        <pt x="443" y="-10" on="0"/>
        <pt x="392" y="-10" on="1"/>
        <pt x="318" y="-10" on="0"/>
        <pt x="188" y="46" on="0"/>
        <pt x="91" y="143" on="0"/>
        <pt x="35" y="273" on="0"/>
        <pt x="35" y="347" on="1"/>
        <pt x="35" y="421" on="0"/>
        <pt x="91" y="552" on="0"/>
        <pt x="188" y="649" on="0"/>
        <pt x="318" y="706" on="0"/>
        <pt x="392" y="706" on="1"/>
        <pt x="443" y="706" on="0"/>
        <pt x="534" y="680" on="0"/>
        <pt x="575" y="656" on="1"/>
        <pt x="552" y="622" on="1"/>
        <pt x="517" y="643" on="0"/>
        <pt x="436" y="666" on="0"/>
        <pt x="392" y="666" on="1"/>
        <pt x="327" y="666" on="0"/>
        <pt x="212" y="615" on="0"/>
        <pt x="126" y="528" on="0"/>
        <pt x="77" y="412" on="0"/>
        <pt x="77" y="346" on="1"/>
        <pt x="77" y="281" on="0"/>
        <pt x="126" y="166" on="0"/>
        <pt x="212" y="80" on="0"/>
        <pt x="325" y="30" on="0"/>
        <pt x="390" y="30" on="1"/>
        <pt x="466" y="30" on="0"/>
        <pt x="532" y="64" on="1"/>
        <pt x="532" y="258" on="1"/>
        <pt x="388" y="258" on="1"/>
        <pt x="388" y="298" on="1"/>
      </contour>
    </TTGlyph>
    <TTGlyph name="H" xMin="35" yMin="0" xMax="703" yMax="700">
      <contour>
        <pt x="502" y="700" on="1"/>
        <pt x="703" y="700" on="1"/>
        <pt x="703" y="660" on="1"/>
        <pt x="626" y="660" on="1"/>
        <pt x="626" y="40" on="1"/>
        <pt x="703" y="40" on="1"/>
        <pt x="703" y="0" on="1"/>
        <pt x="502" y="0" on="1"/>
        <pt x="502" y="40" on="1"/>
        <pt x="584" y="40" on="1"/>
        <pt x="584" y="333" on="1"/>
        <pt x="154" y="333" on="1"/>
        <pt x="154" y="40" on="1"/>
        <pt x="236" y="40" on="1"/>
        <pt x="236" y="0" on="1"/>
        <pt x="35" y="0" on="1"/>
        <pt x="35" y="40" on="1"/>
        <pt x="113" y="40" on="1"/>
        <pt x="113" y="660" on="1"/>
        <pt x="35" y="660" on="1"/>
        <pt x="35" y="700" on="1"/>
        <pt x="236" y="700" on="1"/>
        <pt x="236" y="660" on="1"/>
        <pt x="154" y="660" on="1"/>
        <pt x="154" y="373" on="1"/>
        <pt x="584" y="373" on="1"/>
        <pt x="584" y="660" on="1"/>
        <pt x="502" y="660" on="1"/>
      </contour>
    </TTGlyph>
    <TTGlyph name="I" xMin="35" yMin="0" xMax="236" yMax="700">
      <contour>
        <pt x="35" y="40" on="1"/>
        <pt x="113" y="40" on="1"/>
        <pt x="113" y="660" on="1"/>
        <pt x="35" y="660" on="1"/>
        <pt x="35" y="700" on="1"/>
        <pt x="236" y="700" on="1"/>
        <pt x="236" y="660" on="1"/>
        <pt x="154" y="660" on="1"/>
        <pt x="154" y="40" on="1"/>
        <pt x="236" y="40" on="1"/>
        <pt x="236" y="0" on="1"/>
        <pt x="35" y="0" on="1"/>
      </contour>
    </TTGlyph>
    <TTGlyph name="Iacute" xMin="35" yMin="0" xMax="258" yMax="883">
      <component glyphName="I" x="0" y="0" flags="0x204"/>
      <component glyphName="acute" x="25" y="271" flags="0x4"/>
    </TTGlyph>
    <TTGlyph name="Icircumflex" xMin="16" yMin="0" xMax="256" yMax="931">
      <component glyphName="I" x="0" y="0" flags="0x4"/>
      <component glyphName="asciicircum" x="-96" y="271" flags="0x4"/>
    </TTGlyph>
    <TTGlyph name="Idieresis" xMin="21" yMin="0" xMax="251" yMax="831">
      <component glyphName="I" x="0" y="0" flags="0x204"/>
      <component glyphName="dieresis" x="-48" y="290" flags="0x4"/>
    </TTGlyph>
    <TTGlyph name="Igrave" xMin="9" yMin="0" xMax="236" yMax="883">
      <component glyphName="I" x="0" y="0" flags="0x204"/>
      <component glyphName="grave" x="38" y="271" flags="0x4"/>
    </TTGlyph>
    <TTGlyph name="J" xMin="35" yMin="-143" xMax="242" yMax="700">
      <contour>
        <pt x="35" y="700" on="1"/>
        <pt x="242" y="700" on="1"/>
        <pt x="242" y="90" on="1"/>
        <pt x="242" y="34" on="0"/>
        <pt x="210" y="-51" on="0"/>
        <pt x="154" y="-110" on="0"/>
        <pt x="78" y="-142" on="0"/>
        <pt x="35" y="-143" on="1"/>
        <pt x="35" y="-103" on="1"/>
        <pt x="71" y="-101" on="0"/>
        <pt x="132" y="-73" on="0"/>
        <pt x="176" y="-23" on="0"/>
        <pt x="201" y="48" on="0"/>
        <pt x="201" y="93" on="1"/>
        <pt x="201" y="660" on="1"/>
        <pt x="35" y="660" on="1"/>
      </contour>
    </TTGlyph>
    <TTGlyph name="K" xMin="35" yMin="0" xMax="651" yMax="700">
      <contour>
        <pt x="458" y="40" on="1"/>
        <pt x="518" y="40" on="1"/>
        <pt x="449" y="128" on="0"/>
        <pt x="310" y="305" on="0"/>
        <pt x="240" y="394" on="1"/>
        <pt x="153" y="311" on="1"/>
        <pt x="153" y="243" on="0"/>
        <pt x="154" y="108" on="0"/>
        <pt x="154" y="40" on="1"/>
        <pt x="236" y="40" on="1"/>
        <pt x="236" y="0" on="1"/>
        <pt x="35" y="0" on="1"/>
        <pt x="35" y="40" on="1"/>
        <pt x="112" y="40" on="1"/>
        <pt x="112" y="660" on="1"/>
        <pt x="35" y="660" on="1"/>
        <pt x="35" y="700" on="1"/>
        <pt x="228" y="700" on="1"/>
        <pt x="228" y="660" on="1"/>
        <pt x="154" y="660" on="1"/>
        <pt x="154" y="386" on="1"/>
        <pt x="153" y="378" on="0"/>
        <pt x="152" y="364" on="0"/>
        <pt x="152" y="356" on="1"/>
        <pt x="170" y="377" on="1"/>
        <pt x="466" y="660" on="1"/>
        <pt x="413" y="660" on="1"/>
        <pt x="413" y="700" on="1"/>
        <pt x="606" y="700" on="1"/>
        <pt x="606" y="660" on="1"/>
        <pt x="520" y="660" on="1"/>
        <pt x="269" y="421" on="1"/>
        <pt x="344" y="325" on="0"/>
        <pt x="494" y="135" on="0"/>
        <pt x="569" y="40" on="1"/>
        <pt x="651" y="40" on="1"/>
        <pt x="651" y="0" on="1"/>
        <pt x="458" y="0" on="1"/>
      </contour>
    </TTGlyph>
    <TTGlyph name="L" xMin="35" yMin="0" xMax="533" yMax="700">
      <contour>
        <pt x="35" y="40" on="1"/>
        <pt x="104" y="40" on="1"/>
        <pt x="104" y="660" on="1"/>
        <pt x="35" y="660" on="1"/>
        <pt x="35" y="700" on="1"/>
        <pt x="228" y="700" on="1"/>
        <pt x="228" y="660" on="1"/>
        <pt x="145" y="660" on="1"/>
        <pt x="145" y="40" on="1"/>
        <pt x="493" y="40" on="1"/>
        <pt x="493" y="154" on="1"/>
        <pt x="533" y="154" on="1"/>
        <pt x="533" y="0" on="1"/>
        <pt x="35" y="0" on="1"/>
      </contour>
    </TTGlyph>
    <TTGlyph name="M" xMin="35" yMin="0" xMax="932" yMax="700">
      <contour>
        <pt x="824" y="700" on="1"/>
        <pt x="929" y="700" on="1"/>
        <pt x="929" y="660" on="1"/>
        <pt x="848" y="660" on="1"/>
        <pt x="848" y="40" on="1"/>
        <pt x="932" y="40" on="1"/>
        <pt x="932" y="0" on="1"/>
        <pt x="731" y="0" on="1"/>
        <pt x="731" y="40" on="1"/>
        <pt x="806" y="40" on="1"/>
        <pt x="806" y="575" on="1"/>
        <pt x="806" y="576" on="0"/>
        <pt x="807" y="588" on="0"/>
        <pt x="808" y="601" on="0"/>
        <pt x="808" y="613" on="0"/>
        <pt x="808" y="615" on="1"/>
        <pt x="805" y="610" on="0"/>
        <pt x="796" y="597" on="0"/>
        <pt x="790" y="589" on="1"/>
        <pt x="768" y="559" on="0"/>
        <pt x="693" y="461" on="0"/>
        <pt x="607" y="349" on="0"/>
        <pt x="518" y="234" on="0"/>
        <pt x="482" y="187" on="1"/>
        <pt x="413" y="277" on="0"/>
        <pt x="317" y="403" on="0"/>
        <pt x="246" y="496" on="0"/>
        <pt x="193" y="564" on="0"/>
        <pt x="168" y="596" on="1"/>
        <pt x="156" y="615" on="1"/>
        <pt x="156" y="604" on="0"/>
        <pt x="157" y="585" on="0"/>
        <pt x="158" y="575" on="1"/>
        <pt x="158" y="40" on="1"/>
        <pt x="236" y="40" on="1"/>
        <pt x="236" y="0" on="1"/>
        <pt x="35" y="0" on="1"/>
        <pt x="35" y="40" on="1"/>
        <pt x="116" y="40" on="1"/>
        <pt x="116" y="660" on="1"/>
        <pt x="35" y="660" on="1"/>
        <pt x="35" y="700" on="1"/>
        <pt x="140" y="700" on="1"/>
        <pt x="151" y="685" on="0"/>
        <pt x="195" y="628" on="0"/>
        <pt x="252" y="554" on="0"/>
        <pt x="318" y="467" on="0"/>
        <pt x="387" y="378" on="0"/>
        <pt x="454" y="292" on="0"/>
        <pt x="482" y="255" on="1"/>
        <pt x="568" y="366" on="0"/>
        <pt x="738" y="589" on="0"/>
      </contour>
    </TTGlyph>
    <TTGlyph name="N" xMin="35" yMin="-32" xMax="811" yMax="700">
      <contour>
        <pt x="35" y="40" on="1"/>
        <pt x="116" y="40" on="1"/>
        <pt x="116" y="660" on="1"/>
        <pt x="35" y="660" on="1"/>
        <pt x="35" y="700" on="1"/>
        <pt x="143" y="700" on="1"/>
        <pt x="669" y="88" on="1"/>
        <pt x="688" y="62" on="1"/>
        <pt x="685" y="94" on="1"/>
        <pt x="685" y="660" on="1"/>
        <pt x="610" y="660" on="1"/>
        <pt x="610" y="700" on="1"/>
        <pt x="811" y="700" on="1"/>
        <pt x="811" y="660" on="1"/>
        <pt x="727" y="660" on="1"/>
        <pt x="727" y="-32" on="1"/>
        <pt x="174" y="607" on="1"/>
        <pt x="155" y="629" on="1"/>
        <pt x="158" y="601" on="1"/>
        <pt x="158" y="40" on="1"/>
        <pt x="236" y="40" on="1"/>
        <pt x="236" y="0" on="1"/>
        <pt x="35" y="0" on="1"/>
      </contour>
    </TTGlyph>
    <TTGlyph name="Ntilde" xMin="35" yMin="-32" xMax="811" yMax="838">
      <component glyphName="N" x="0" y="0" flags="0x4"/>
      <component glyphName="asciitilde" x="131" y="293" flags="0x4"/>
    </TTGlyph>
    <TTGlyph name="O" xMin="35" yMin="-8" xMax="751" yMax="708">
      <contour>
        <pt x="35" y="349" on="1"/>
        <pt x="35" y="423" on="0"/>
        <pt x="91" y="554" on="0"/>
        <pt x="188" y="651" on="0"/>
        <pt x="318" y="708" on="0"/>
        <pt x="392" y="708" on="1"/>
        <pt x="466" y="708" on="0"/>
        <pt x="597" y="651" on="0"/>
        <pt x="694" y="554" on="0"/>
        <pt x="751" y="423" on="0"/>
        <pt x="751" y="349" on="1"/>
        <pt x="751" y="275" on="0"/>
        <pt x="694" y="145" on="0"/>
        <pt x="597" y="48" on="0"/>
        <pt x="466" y="-8" on="0"/>
        <pt x="392" y="-8" on="1"/>
        <pt x="318" y="-8" on="0"/>
        <pt x="188" y="48" on="0"/>
        <pt x="91" y="145" on="0"/>
        <pt x="35" y="275" on="0"/>
      </contour>
      <contour>
        <pt x="77" y="348" on="1"/>
        <pt x="77" y="282" on="0"/>
        <pt x="126" y="167" on="0"/>
        <pt x="212" y="82" on="0"/>
        <pt x="326" y="32" on="0"/>
        <pt x="391" y="32" on="1"/>
        <pt x="456" y="32" on="0"/>
        <pt x="572" y="82" on="0"/>
        <pt x="659" y="168" on="0"/>
        <pt x="709" y="283" on="0"/>
        <pt x="709" y="349" on="1"/>
        <pt x="709" y="415" on="0"/>
        <pt x="659" y="531" on="0"/>
        <pt x="573" y="618" on="0"/>
        <pt x="457" y="668" on="0"/>
        <pt x="392" y="668" on="1"/>
        <pt x="327" y="668" on="0"/>
        <pt x="212" y="617" on="0"/>
        <pt x="126" y="530" on="0"/>
        <pt x="77" y="414" on="0"/>
      </contour>
    </TTGlyph>
    <TTGlyph name="Oacute" xMin="35" yMin="-8" xMax="751" yMax="883">
      <component glyphName="O" x="0" y="0" flags="0x204"/>
      <component glyphName="acute" x="293" y="271" flags="0x4"/>
    </TTGlyph>
    <TTGlyph name="Ocircumflex" xMin="35" yMin="-8" xMax="751" yMax="931">
      <component glyphName="O" x="0" y="0" flags="0x204"/>
      <component glyphName="asciicircum" x="165" y="271" flags="0x4"/>
    </TTGlyph>
    <TTGlyph name="Odieresis" xMin="35" yMin="-8" xMax="751" yMax="831">
      <component glyphName="O" x="0" y="0" flags="0x204"/>
      <component glyphName="dieresis" x="213" y="290" flags="0x4"/>
    </TTGlyph>
    <TTGlyph name="Ograve" xMin="35" yMin="-8" xMax="751" yMax="883">
      <component glyphName="O" x="0" y="0" flags="0x204"/>
      <component glyphName="grave" x="303" y="271" flags="0x4"/>
    </TTGlyph>
    <TTGlyph name="Oslash" xMin="35" yMin="-12" xMax="751" yMax="712">
      <contour>
        <pt x="77" y="348" on="1"/>
        <pt x="77" y="282" on="0"/>
        <pt x="126" y="166" on="0"/>
        <pt x="170" y="123" on="1"/>
        <pt x="273" y="245" on="0"/>
        <pt x="475" y="485" on="0"/>
        <pt x="578" y="606" on="1"/>
        <pt x="538" y="635" on="0"/>
        <pt x="444" y="668" on="0"/>
        <pt x="392" y="668" on="1"/>
        <pt x="327" y="668" on="0"/>
        <pt x="212" y="617" on="0"/>
        <pt x="126" y="530" on="0"/>
        <pt x="77" y="414" on="0"/>
      </contour>
      <contour>
        <pt x="390" y="32" on="1"/>
        <pt x="456" y="32" on="0"/>
        <pt x="572" y="82" on="0"/>
        <pt x="659" y="168" on="0"/>
        <pt x="709" y="283" on="0"/>
        <pt x="709" y="349" on="1"/>
        <pt x="709" y="418" on="0"/>
        <pt x="654" y="537" on="0"/>
        <pt x="606" y="581" on="1"/>
        <pt x="503" y="460" on="0"/>
        <pt x="302" y="219" on="0"/>
        <pt x="199" y="98" on="1"/>
        <pt x="239" y="66" on="0"/>
        <pt x="336" y="32" on="0"/>
      </contour>
      <contour>
        <pt x="35" y="349" on="1"/>
        <pt x="35" y="423" on="0"/>
        <pt x="91" y="554" on="0"/>
        <pt x="188" y="651" on="0"/>
        <pt x="318" y="708" on="0"/>
        <pt x="392" y="708" on="1"/>
        <pt x="452" y="708" on="0"/>
        <pt x="560" y="671" on="0"/>
        <pt x="605" y="637" on="1"/>
        <pt x="668" y="712" on="1"/>
        <pt x="675" y="706" on="0"/>
        <pt x="689" y="694" on="0"/>
        <pt x="696" y="687" on="1"/>
        <pt x="680" y="668" on="0"/>
        <pt x="650" y="632" on="0"/>
        <pt x="634" y="613" on="1"/>
        <pt x="688" y="564" on="0"/>
        <pt x="751" y="427" on="0"/>
        <pt x="751" y="349" on="1"/>
        <pt x="751" y="275" on="0"/>
        <pt x="694" y="145" on="0"/>
        <pt x="597" y="48" on="0"/>
        <pt x="466" y="-8" on="0"/>
        <pt x="392" y="-8" on="1"/>
        <pt x="329" y="-8" on="0"/>
        <pt x="218" y="32" on="0"/>
        <pt x="173" y="67" on="1"/>
        <pt x="156" y="47" on="0"/>
        <pt x="123" y="8" on="0"/>
        <pt x="106" y="-12" on="1"/>
        <pt x="99" y="-5" on="0"/>
        <pt x="85" y="7" on="0"/>
        <pt x="78" y="14" on="1"/>
        <pt x="144" y="92" on="1"/>
        <pt x="93" y="141" on="0"/>
        <pt x="35" y="273" on="0"/>
      </contour>
    </TTGlyph>
    <TTGlyph name="Otilde" xMin="35" yMin="-8" xMax="751" yMax="872">
      <component glyphName="O" x="0" y="0" flags="0x204"/>
      <component glyphName="asciitilde" x="121" y="327" flags="0x4"/>
    </TTGlyph>
    <TTGlyph name="P" xMin="35" yMin="0" xMax="460" yMax="700">
      <contour>
        <pt x="35" y="40" on="1"/>
        <pt x="96" y="40" on="1"/>
        <pt x="96" y="660" on="1"/>
        <pt x="35" y="660" on="1"/>
        <pt x="35" y="700" on="1"/>
        <pt x="246" y="700" on="1"/>
        <pt x="277" y="700" on="0"/>
        <pt x="351" y="680" on="0"/>
        <pt x="416" y="636" on="0"/>
        <pt x="460" y="566" on="0"/>
        <pt x="460" y="517" on="1"/>
        <pt x="460" y="431" on="0"/>
        <pt x="351" y="329" on="0"/>
        <pt x="248" y="329" on="1"/>
        <pt x="137" y="329" on="1"/>
        <pt x="137" y="40" on="1"/>
        <pt x="236" y="40" on="1"/>
        <pt x="236" y="0" on="1"/>
        <pt x="35" y="0" on="1"/>
      </contour>
      <contour>
        <pt x="137" y="370" on="1"/>
        <pt x="241" y="370" on="1"/>
        <pt x="293" y="370" on="0"/>
        <pt x="362" y="398" on="0"/>
        <pt x="403" y="442" on="0"/>
        <pt x="419" y="493" on="0"/>
        <pt x="419" y="517" on="1"/>
        <pt x="419" y="545" on="0"/>
        <pt x="392" y="597" on="0"/>
        <pt x="344" y="637" on="0"/>
        <pt x="279" y="660" on="0"/>
        <pt x="242" y="660" on="1"/>
        <pt x="137" y="660" on="1"/>
      </contour>
    </TTGlyph>
    <TTGlyph name="Q" xMin="35" yMin="-8" xMax="773" yMax="708">
      <contour>
        <pt x="77" y="348" on="1"/>
        <pt x="77" y="283" on="0"/>
        <pt x="126" y="168" on="0"/>
        <pt x="212" y="82" on="0"/>
        <pt x="325" y="32" on="0"/>
        <pt x="390" y="32" on="1"/>
        <pt x="456" y="32" on="0"/>
        <pt x="572" y="82" on="0"/>
        <pt x="659" y="168" on="0"/>
        <pt x="709" y="283" on="0"/>
        <pt x="709" y="349" on="1"/>
        <pt x="709" y="415" on="0"/>
        <pt x="659" y="531" on="0"/>
        <pt x="573" y="618" on="0"/>
        <pt x="457" y="668" on="0"/>
        <pt x="392" y="668" on="1"/>
        <pt x="327" y="668" on="0"/>
        <pt x="212" y="617" on="0"/>
        <pt x="126" y="530" on="0"/>
        <pt x="77" y="414" on="0"/>
      </contour>
      <contour>
        <pt x="35" y="349" on="1"/>
        <pt x="35" y="423" on="0"/>
        <pt x="91" y="554" on="0"/>
        <pt x="188" y="651" on="0"/>
        <pt x="318" y="708" on="0"/>
        <pt x="392" y="708" on="1"/>
        <pt x="466" y="708" on="0"/>
        <pt x="597" y="651" on="0"/>
        <pt x="694" y="554" on="0"/>
        <pt x="751" y="423" on="0"/>
        <pt x="751" y="349" on="1"/>
        <pt x="751" y="298" on="0"/>
        <pt x="723" y="204" on="0"/>
        <pt x="673" y="125" on="0"/>
        <pt x="602" y="61" on="0"/>
        <pt x="560" y="40" on="1"/>
        <pt x="773" y="40" on="1"/>
        <pt x="773" y="0" on="1"/>
        <pt x="466" y="0" on="1"/>
        <pt x="428" y="-8" on="0"/>
        <pt x="392" y="-8" on="1"/>
        <pt x="318" y="-8" on="0"/>
        <pt x="188" y="48" on="0"/>
        <pt x="91" y="145" on="0"/>
        <pt x="35" y="275" on="0"/>
      </contour>
    </TTGlyph>
    <TTGlyph name="R" xMin="35" yMin="0" xMax="537" yMax="700">
      <contour>
        <pt x="35" y="40" on="1"/>
        <pt x="96" y="40" on="1"/>
        <pt x="96" y="660" on="1"/>
        <pt x="35" y="660" on="1"/>
        <pt x="35" y="700" on="1"/>
        <pt x="246" y="700" on="1"/>
        <pt x="277" y="700" on="0"/>
        <pt x="351" y="680" on="0"/>
        <pt x="416" y="636" on="0"/>
        <pt x="460" y="566" on="0"/>
        <pt x="460" y="517" on="1"/>
        <pt x="460" y="445" on="0"/>
        <pt x="383" y="350" on="0"/>
        <pt x="310" y="335" on="1"/>
        <pt x="449" y="40" on="1"/>
        <pt x="537" y="40" on="1"/>
        <pt x="537" y="0" on="1"/>
        <pt x="423" y="0" on="1"/>
        <pt x="267" y="331" on="1"/>
        <pt x="256" y="330" on="0"/>
        <pt x="232" y="329" on="0"/>
        <pt x="221" y="329" on="1"/>
        <pt x="137" y="329" on="1"/>
        <pt x="137" y="40" on="1"/>
        <pt x="236" y="40" on="1"/>
        <pt x="236" y="0" on="1"/>
        <pt x="35" y="0" on="1"/>
      </contour>
      <contour>
        <pt x="137" y="370" on="1"/>
        <pt x="241" y="370" on="1"/>
        <pt x="293" y="370" on="0"/>
        <pt x="362" y="398" on="0"/>
        <pt x="403" y="442" on="0"/>
        <pt x="419" y="493" on="0"/>
        <pt x="419" y="517" on="1"/>
        <pt x="419" y="545" on="0"/>
        <pt x="392" y="597" on="0"/>
        <pt x="344" y="637" on="0"/>
        <pt x="279" y="660" on="0"/>
        <pt x="242" y="660" on="1"/>
        <pt x="137" y="660" on="1"/>
      </contour>
    </TTGlyph>
    <TTGlyph name="S" xMin="36" yMin="-8" xMax="454" yMax="704">
      <contour>
        <pt x="36" y="76" on="1"/>
        <pt x="36" y="182" on="1"/>
        <pt x="76" y="182" on="1"/>
        <pt x="76" y="92" on="1"/>
        <pt x="104" y="67" on="0"/>
        <pt x="184" y="32" on="0"/>
        <pt x="239" y="32" on="1"/>
        <pt x="272" y="32" on="0"/>
        <pt x="335" y="53" on="0"/>
        <pt x="383" y="92" on="0"/>
        <pt x="412" y="148" on="0"/>
        <pt x="412" y="184" on="1"/>
        <pt x="412" y="228" on="0"/>
        <pt x="382" y="284" on="0"/>
        <pt x="334" y="320" on="0"/>
        <pt x="272" y="342" on="0"/>
        <pt x="207" y="361" on="0"/>
        <pt x="144" y="383" on="0"/>
        <pt x="93" y="419" on="0"/>
        <pt x="61" y="474" on="0"/>
        <pt x="59" y="517" on="1"/>
        <pt x="57" y="550" on="0"/>
        <pt x="77" y="617" on="0"/>
        <pt x="121" y="670" on="0"/>
        <pt x="191" y="704" on="0"/>
        <pt x="241" y="704" on="1"/>
        <pt x="258" y="704" on="0"/>
        <pt x="298" y="700" on="0"/>
        <pt x="340" y="690" on="0"/>
        <pt x="382" y="670" on="0"/>
        <pt x="401" y="654" on="1"/>
        <pt x="401" y="546" on="1"/>
        <pt x="361" y="546" on="1"/>
        <pt x="361" y="634" on="1"/>
        <pt x="342" y="646" on="0"/>
        <pt x="281" y="664" on="0"/>
        <pt x="240" y="664" on="1"/>
        <pt x="205" y="664" on="0"/>
        <pt x="153" y="641" on="0"/>
        <pt x="118" y="602" on="0"/>
        <pt x="101" y="551" on="0"/>
        <pt x="101" y="524" on="1"/>
        <pt x="101" y="488" on="0"/>
        <pt x="131" y="442" on="0"/>
        <pt x="180" y="412" on="0"/>
        <pt x="243" y="392" on="0"/>
        <pt x="309" y="372" on="0"/>
        <pt x="372" y="345" on="0"/>
        <pt x="422" y="302" on="0"/>
        <pt x="453" y="236" on="0"/>
        <pt x="454" y="186" on="1"/>
        <pt x="454" y="142" on="0"/>
        <pt x="421" y="70" on="0"/>
        <pt x="364" y="19" on="0"/>
        <pt x="286" y="-8" on="0"/>
        <pt x="243" y="-8" on="1"/>
        <pt x="204" y="-8" on="0"/>
        <pt x="138" y="8" on="0"/>
        <pt x="85" y="33" on="0"/>
        <pt x="47" y="63" on="0"/>
      </contour>
    </TTGlyph>
    <TTGlyph name="T" xMin="35" yMin="0" xMax="588" yMax="700">
      <contour>
        <pt x="209" y="40" on="1"/>
        <pt x="291" y="40" on="1"/>
        <pt x="291" y="660" on="1"/>
        <pt x="75" y="660" on="1"/>
        <pt x="75" y="546" on="1"/>
        <pt x="35" y="546" on="1"/>
        <pt x="35" y="700" on="1"/>
        <pt x="588" y="700" on="1"/>
        <pt x="588" y="546" on="1"/>
        <pt x="548" y="546" on="1"/>
        <pt x="548" y="660" on="1"/>
        <pt x="332" y="660" on="1"/>
        <pt x="332" y="40" on="1"/>
        <pt x="410" y="40" on="1"/>
        <pt x="410" y="0" on="1"/>
        <pt x="209" y="0" on="1"/>
      </contour>
    </TTGlyph>
    <TTGlyph name="Thorn" xMin="35" yMin="0" xMax="471" yMax="700">
      <contour>
        <pt x="35" y="40" on="1"/>
        <pt x="106" y="40" on="1"/>
        <pt x="106" y="660" on="1"/>
        <pt x="35" y="660" on="1"/>
        <pt x="35" y="700" on="1"/>
        <pt x="228" y="700" on="1"/>
        <pt x="228" y="660" on="1"/>
        <pt x="148" y="660" on="1"/>
        <pt x="148" y="535" on="1"/>
        <pt x="256" y="535" on="1"/>
        <pt x="287" y="535" on="0"/>
        <pt x="362" y="515" on="0"/>
        <pt x="427" y="471" on="0"/>
        <pt x="471" y="401" on="0"/>
        <pt x="471" y="352" on="1"/>
        <pt x="471" y="266" on="0"/>
        <pt x="361" y="164" on="0"/>
        <pt x="258" y="164" on="1"/>
        <pt x="148" y="164" on="1"/>
        <pt x="148" y="40" on="1"/>
        <pt x="236" y="40" on="1"/>
        <pt x="236" y="0" on="1"/>
        <pt x="35" y="0" on="1"/>
      </contour>
      <contour>
        <pt x="148" y="205" on="1"/>
        <pt x="251" y="205" on="1"/>
        <pt x="303" y="205" on="0"/>
        <pt x="372" y="233" on="0"/>
        <pt x="413" y="277" on="0"/>
        <pt x="429" y="328" on="0"/>
        <pt x="429" y="352" on="1"/>
        <pt x="429" y="380" on="0"/>
        <pt x="402" y="432" on="0"/>
        <pt x="355" y="472" on="0"/>
        <pt x="290" y="495" on="0"/>
        <pt x="252" y="495" on="1"/>
        <pt x="148" y="495" on="1"/>
      </contour>
    </TTGlyph>
    <TTGlyph name="U" xMin="35" yMin="-8" xMax="661" yMax="700">
      <contour>
        <pt x="35" y="700" on="1"/>
        <pt x="236" y="700" on="1"/>
        <pt x="236" y="660" on="1"/>
        <pt x="154" y="660" on="1"/>
        <pt x="154" y="229" on="1"/>
        <pt x="154" y="181" on="0"/>
        <pt x="183" y="108" on="0"/>
        <pt x="234" y="58" on="0"/>
        <pt x="305" y="32" on="0"/>
        <pt x="348" y="32" on="1"/>
        <pt x="390" y="32" on="0"/>
        <pt x="461" y="58" on="0"/>
        <pt x="513" y="108" on="0"/>
        <pt x="542" y="181" on="0"/>
        <pt x="542" y="229" on="1"/>
        <pt x="542" y="660" on="1"/>
        <pt x="460" y="660" on="1"/>
        <pt x="460" y="700" on="1"/>
        <pt x="661" y="700" on="1"/>
        <pt x="661" y="660" on="1"/>
        <pt x="584" y="660" on="1"/>
        <pt x="584" y="226" on="1"/>
        <pt x="584" y="169" on="0"/>
        <pt x="548" y="81" on="0"/>
        <pt x="484" y="22" on="0"/>
        <pt x="398" y="-8" on="0"/>
        <pt x="348" y="-8" on="1"/>
        <pt x="297" y="-8" on="0"/>
        <pt x="211" y="22" on="0"/>
        <pt x="148" y="81" on="0"/>
        <pt x="112" y="169" on="0"/>
        <pt x="112" y="226" on="1"/>
        <pt x="112" y="660" on="1"/>
        <pt x="35" y="660" on="1"/>
      </contour>
    </TTGlyph>
    <TTGlyph name="Uacute" xMin="35" yMin="-8" xMax="661" yMax="883">
      <component glyphName="U" x="0" y="0" flags="0x204"/>
      <component glyphName="acute" x="239" y="271" flags="0x4"/>
    </TTGlyph>
    <TTGlyph name="Ucircumflex" xMin="35" yMin="-8" xMax="661" yMax="931">
      <component glyphName="U" x="0" y="0" flags="0x204"/>
      <component glyphName="asciicircum" x="118" y="271" flags="0x4"/>
    </TTGlyph>
    <TTGlyph name="Udieresis" xMin="35" yMin="-8" xMax="661" yMax="832">
      <component glyphName="U" x="0" y="0" flags="0x204"/>
      <component glyphName="dieresis" x="163" y="291" flags="0x4"/>
    </TTGlyph>
    <TTGlyph name="Ugrave" xMin="35" yMin="-8" xMax="661" yMax="883">
      <component glyphName="U" x="0" y="0" flags="0x204"/>
      <component glyphName="grave" x="257" y="271" flags="0x4"/>
    </TTGlyph>
    <TTGlyph name="V" xMin="35" yMin="-32" xMax="795" yMax="700">
      <contour>
        <pt x="35" y="700" on="1"/>
        <pt x="236" y="700" on="1"/>
        <pt x="236" y="660" on="1"/>
        <pt x="162" y="660" on="1"/>
        <pt x="222" y="516" on="0"/>
        <pt x="343" y="232" on="0"/>
        <pt x="404" y="89" on="1"/>
        <pt x="413" y="61" on="1"/>
        <pt x="422" y="89" on="1"/>
        <pt x="482" y="232" on="0"/>
        <pt x="603" y="516" on="0"/>
        <pt x="663" y="660" on="1"/>
        <pt x="594" y="660" on="1"/>
        <pt x="594" y="700" on="1"/>
        <pt x="795" y="700" on="1"/>
        <pt x="795" y="660" on="1"/>
        <pt x="706" y="660" on="1"/>
        <pt x="633" y="486" on="0"/>
        <pt x="486" y="142" on="0"/>
        <pt x="413" y="-32" on="1"/>
        <pt x="339" y="142" on="0"/>
        <pt x="192" y="486" on="0"/>
        <pt x="119" y="660" on="1"/>
        <pt x="35" y="660" on="1"/>
      </contour>
    </TTGlyph>
    <TTGlyph name="W" xMin="35" yMin="-32" xMax="1168" yMax="700">
      <contour>
        <pt x="35" y="700" on="1"/>
        <pt x="236" y="700" on="1"/>
        <pt x="236" y="660" on="1"/>
        <pt x="162" y="660" on="1"/>
        <pt x="222" y="516" on="0"/>
        <pt x="341" y="232" on="0"/>
        <pt x="404" y="89" on="1"/>
        <pt x="413" y="61" on="1"/>
        <pt x="446" y="161" on="0"/>
        <pt x="536" y="359" on="0"/>
        <pt x="578" y="457" on="1"/>
        <pt x="557" y="508" on="0"/>
        <pt x="514" y="609" on="0"/>
        <pt x="492" y="660" on="1"/>
        <pt x="408" y="660" on="1"/>
        <pt x="408" y="700" on="1"/>
        <pt x="609" y="700" on="1"/>
        <pt x="609" y="660" on="1"/>
        <pt x="534" y="660" on="1"/>
        <pt x="594" y="516" on="0"/>
        <pt x="714" y="232" on="0"/>
        <pt x="776" y="89" on="1"/>
        <pt x="785" y="61" on="1"/>
        <pt x="794" y="89" on="1"/>
        <pt x="855" y="232" on="0"/>
        <pt x="976" y="516" on="0"/>
        <pt x="1036" y="660" on="1"/>
        <pt x="967" y="660" on="1"/>
        <pt x="967" y="700" on="1"/>
        <pt x="1168" y="700" on="1"/>
        <pt x="1168" y="660" on="1"/>
        <pt x="1078" y="660" on="1"/>
        <pt x="1005" y="486" on="0"/>
        <pt x="859" y="142" on="0"/>
        <pt x="785" y="-32" on="1"/>
        <pt x="608" y="385" on="1"/>
        <pt x="599" y="412" on="1"/>
        <pt x="559" y="301" on="0"/>
        <pt x="459" y="77" on="0"/>
        <pt x="413" y="-32" on="1"/>
        <pt x="339" y="142" on="0"/>
        <pt x="192" y="486" on="0"/>
        <pt x="119" y="660" on="1"/>
        <pt x="35" y="660" on="1"/>
      </contour>
    </TTGlyph>
    <TTGlyph name="X" xMin="35" yMin="0" xMax="669" yMax="700">
      <contour>
        <pt x="35" y="700" on="1"/>
        <pt x="236" y="700" on="1"/>
        <pt x="236" y="660" on="1"/>
        <pt x="179" y="660" on="1"/>
        <pt x="221" y="597" on="0"/>
        <pt x="302" y="471" on="0"/>
        <pt x="343" y="408" on="1"/>
        <pt x="353" y="390" on="1"/>
        <pt x="363" y="408" on="1"/>
        <pt x="525" y="660" on="1"/>
        <pt x="467" y="660" on="1"/>
        <pt x="467" y="700" on="1"/>
        <pt x="669" y="700" on="1"/>
        <pt x="669" y="660" on="1"/>
        <pt x="575" y="660" on="1"/>
        <pt x="526" y="582" on="0"/>
        <pt x="428" y="431" on="0"/>
        <pt x="378" y="354" on="1"/>
        <pt x="429" y="275" on="0"/>
        <pt x="532" y="119" on="0"/>
        <pt x="583" y="40" on="1"/>
        <pt x="669" y="40" on="1"/>
        <pt x="669" y="0" on="1"/>
        <pt x="467" y="0" on="1"/>
        <pt x="467" y="40" on="1"/>
        <pt x="531" y="40" on="1"/>
        <pt x="381" y="271" on="1"/>
        <pt x="373" y="283" on="0"/>
        <pt x="357" y="311" on="0"/>
        <pt x="349" y="323" on="1"/>
        <pt x="339" y="304" on="1"/>
        <pt x="296" y="237" on="0"/>
        <pt x="211" y="106" on="0"/>
        <pt x="169" y="40" on="1"/>
        <pt x="236" y="40" on="1"/>
        <pt x="236" y="0" on="1"/>
        <pt x="35" y="0" on="1"/>
        <pt x="35" y="40" on="1"/>
        <pt x="118" y="40" on="1"/>
        <pt x="324" y="359" on="1"/>
        <pt x="128" y="660" on="1"/>
        <pt x="35" y="660" on="1"/>
      </contour>
    </TTGlyph>
    <TTGlyph name="Y" xMin="35" yMin="0" xMax="711" yMax="700">
      <contour>
        <pt x="275" y="40" on="1"/>
        <pt x="349" y="40" on="1"/>
        <pt x="349" y="265" on="1"/>
        <pt x="289" y="364" on="0"/>
        <pt x="172" y="561" on="0"/>
        <pt x="113" y="660" on="1"/>
        <pt x="35" y="660" on="1"/>
        <pt x="35" y="700" on="1"/>
        <pt x="236" y="700" on="1"/>
        <pt x="236" y="660" on="1"/>
        <pt x="163" y="660" on="1"/>
        <pt x="263" y="495" on="0"/>
        <pt x="361" y="330" on="1"/>
        <pt x="373" y="302" on="1"/>
        <pt x="374" y="302" on="1"/>
        <pt x="385" y="330" on="1"/>
        <pt x="582" y="660" on="1"/>
        <pt x="510" y="660" on="1"/>
        <pt x="510" y="700" on="1"/>
        <pt x="711" y="700" on="1"/>
        <pt x="711" y="660" on="1"/>
        <pt x="633" y="660" on="1"/>
        <pt x="574" y="560" on="0"/>
        <pt x="457" y="364" on="0"/>
        <pt x="398" y="265" on="1"/>
        <pt x="398" y="40" on="1"/>
        <pt x="476" y="40" on="1"/>
        <pt x="476" y="0" on="1"/>
        <pt x="275" y="0" on="1"/>
      </contour>
    </TTGlyph>
    <TTGlyph name="Yacute" xMin="35" yMin="0" xMax="711" yMax="883">
      <component glyphName="Y" x="0" y="0" flags="0x204"/>
      <component glyphName="acute" x="272" y="271" flags="0x4"/>
    </TTGlyph>
    <TTGlyph name="Z" xMin="35" yMin="0" xMax="594" yMax="735">
      <contour>
        <pt x="594" y="201" on="1"/>
        <pt x="594" y="0" on="1"/>
        <pt x="35" y="0" on="1"/>
        <pt x="35" y="40" on="1"/>
        <pt x="512" y="660" on="1"/>
        <pt x="52" y="660" on="1"/>
        <pt x="52" y="735" on="1"/>
        <pt x="94" y="735" on="1"/>
        <pt x="94" y="700" on="1"/>
        <pt x="565" y="700" on="1"/>
        <pt x="565" y="660" on="1"/>
        <pt x="88" y="40" on="1"/>
        <pt x="554" y="40" on="1"/>
        <pt x="554" y="201" on="1"/>
      </contour>
    </TTGlyph>
    <TTGlyph name="a" xMin="35" yMin="-7" xMax="503" yMax="383">
      <contour>
        <pt x="35" y="188" on="1"/>
        <pt x="35" y="228" on="0"/>
        <pt x="66" y="299" on="0"/>
        <pt x="119" y="352" on="0"/>
        <pt x="191" y="383" on="0"/>
        <pt x="232" y="383" on="1"/>
        <pt x="261" y="383" on="0"/>
        <pt x="313" y="366" on="0"/>
        <pt x="355" y="339" on="0"/>
        <pt x="384" y="304" on="0"/>
        <pt x="391" y="287" on="1"/>
        <pt x="391" y="309" on="0"/>
        <pt x="394" y="353" on="0"/>
        <pt x="395" y="375" on="1"/>
        <pt x="429" y="375" on="1"/>
        <pt x="429" y="40" on="1"/>
        <pt x="503" y="40" on="1"/>
        <pt x="503" y="0" on="1"/>
        <pt x="391" y="0" on="1"/>
        <pt x="391" y="40" on="1"/>
        <pt x="391" y="52" on="0"/>
        <pt x="392" y="75" on="0"/>
        <pt x="392" y="86" on="1"/>
        <pt x="385" y="69" on="0"/>
        <pt x="356" y="35" on="0"/>
        <pt x="315" y="9" on="0"/>
        <pt x="262" y="-7" on="0"/>
        <pt x="232" y="-7" on="1"/>
        <pt x="191" y="-7" on="0"/>
        <pt x="119" y="24" on="0"/>
        <pt x="66" y="76" on="0"/>
        <pt x="35" y="147" on="0"/>
      </contour>
      <contour>
        <pt x="77" y="188" on="1"/>
        <pt x="77" y="156" on="0"/>
        <pt x="101" y="100" on="0"/>
        <pt x="142" y="58" on="0"/>
        <pt x="199" y="34" on="0"/>
        <pt x="232" y="34" on="1"/>
        <pt x="265" y="34" on="0"/>
        <pt x="321" y="58" on="0"/>
        <pt x="363" y="100" on="0"/>
        <pt x="387" y="156" on="0"/>
        <pt x="387" y="188" on="1"/>
        <pt x="387" y="220" on="0"/>
        <pt x="363" y="277" on="0"/>
        <pt x="321" y="319" on="0"/>
        <pt x="265" y="343" on="0"/>
        <pt x="232" y="343" on="1"/>
        <pt x="199" y="343" on="0"/>
        <pt x="142" y="319" on="0"/>
        <pt x="101" y="277" on="0"/>
        <pt x="77" y="220" on="0"/>
      </contour>
    </TTGlyph>
    <TTGlyph name="aacute" xMin="35" yMin="-7" xMax="503" yMax="612">
      <component glyphName="a" x="0" y="0" flags="0x204"/>
      <component glyphName="acute" x="132" y="0" flags="0x4"/>
    </TTGlyph>
    <TTGlyph name="acircumflex" xMin="35" yMin="-7" xMax="503" yMax="660">
      <component glyphName="a" x="0" y="0" flags="0x204"/>
      <component glyphName="asciicircum" x="29" y="0" flags="0x4"/>
    </TTGlyph>
    <TTGlyph name="acute" xMin="100" yMin="479" xMax="233" yMax="612">
      <contour>
        <pt x="100" y="479" on="1"/>
        <pt x="123" y="512" on="0"/>
        <pt x="167" y="579" on="0"/>
        <pt x="190" y="612" on="1"/>
        <pt x="233" y="612" on="1"/>
        <pt x="208" y="579" on="0"/>
        <pt x="158" y="512" on="0"/>
        <pt x="133" y="479" on="1"/>
      </contour>
    </TTGlyph>
    <TTGlyph name="adieresis" xMin="35" yMin="-7" xMax="503" yMax="541">
      <component glyphName="a" x="0" y="0" flags="0x204"/>
      <component glyphName="dieresis" x="58" y="0" flags="0x4"/>
    </TTGlyph>
    <TTGlyph name="ae" xMin="35" yMin="-10" xMax="558" yMax="382">
      <contour>
        <pt x="348" y="241" on="1"/>
        <pt x="348" y="203" on="1"/>
        <pt x="387" y="218" on="0"/>
        <pt x="466" y="249" on="0"/>
        <pt x="505" y="264" on="1"/>
        <pt x="488" y="299" on="0"/>
        <pt x="424" y="341" on="0"/>
        <pt x="386" y="341" on="1"/>
        <pt x="369" y="341" on="0"/>
        <pt x="340" y="334" on="0"/>
        <pt x="326" y="329" on="1"/>
        <pt x="339" y="315" on="0"/>
        <pt x="348" y="272" on="0"/>
      </contour>
      <contour>
        <pt x="306" y="160" on="1"/>
        <pt x="228" y="160" on="1"/>
        <pt x="213" y="160" on="0"/>
        <pt x="162" y="160" on="0"/>
        <pt x="113" y="149" on="0"/>
        <pt x="77" y="125" on="0"/>
        <pt x="77" y="101" on="1"/>
        <pt x="77" y="79" on="0"/>
        <pt x="99" y="52" on="0"/>
        <pt x="134" y="37" on="0"/>
        <pt x="175" y="31" on="0"/>
        <pt x="194" y="31" on="1"/>
        <pt x="213" y="31" on="0"/>
        <pt x="253" y="37" on="0"/>
        <pt x="286" y="53" on="0"/>
        <pt x="306" y="82" on="0"/>
        <pt x="306" y="106" on="1"/>
      </contour>
      <contour>
        <pt x="86" y="309" on="1"/>
        <pt x="79" y="316" on="0"/>
        <pt x="67" y="330" on="0"/>
        <pt x="60" y="337" on="1"/>
        <pt x="70" y="346" on="0"/>
        <pt x="101" y="363" on="0"/>
        <pt x="137" y="375" on="0"/>
        <pt x="176" y="382" on="0"/>
        <pt x="193" y="382" on="1"/>
        <pt x="267" y="382" on="0"/>
        <pt x="301" y="363" on="1"/>
        <pt x="342" y="382" on="0"/>
        <pt x="386" y="382" on="1"/>
        <pt x="416" y="382" on="0"/>
        <pt x="470" y="361" on="0"/>
        <pt x="515" y="323" on="0"/>
        <pt x="549" y="272" on="0"/>
        <pt x="558" y="241" on="1"/>
        <pt x="506" y="221" on="0"/>
        <pt x="401" y="179" on="0"/>
        <pt x="348" y="159" on="1"/>
        <pt x="348" y="128" on="1"/>
        <pt x="348" y="99" on="0"/>
        <pt x="337" y="60" on="0"/>
        <pt x="322" y="45" on="1"/>
        <pt x="349" y="32" on="0"/>
        <pt x="386" y="32" on="1"/>
        <pt x="417" y="32" on="0"/>
        <pt x="471" y="54" on="0"/>
        <pt x="491" y="74" on="1"/>
        <pt x="498" y="66" on="0"/>
        <pt x="510" y="52" on="0"/>
        <pt x="517" y="44" on="1"/>
        <pt x="491" y="19" on="0"/>
        <pt x="425" y="-9" on="0"/>
        <pt x="386" y="-9" on="1"/>
        <pt x="336" y="-9" on="0"/>
        <pt x="297" y="12" on="1"/>
        <pt x="260" y="-10" on="0"/>
        <pt x="193" y="-10" on="1"/>
        <pt x="157" y="-10" on="0"/>
        <pt x="99" y="1" on="0"/>
        <pt x="58" y="26" on="0"/>
        <pt x="35" y="69" on="0"/>
        <pt x="35" y="102" on="1"/>
        <pt x="35" y="130" on="0"/>
        <pt x="60" y="169" on="0"/>
        <pt x="102" y="193" on="0"/>
        <pt x="155" y="203" on="0"/>
        <pt x="183" y="203" on="1"/>
        <pt x="306" y="203" on="1"/>
        <pt x="306" y="243" on="1"/>
        <pt x="306" y="268" on="0"/>
        <pt x="298" y="305" on="0"/>
        <pt x="274" y="329" on="0"/>
        <pt x="229" y="341" on="0"/>
        <pt x="192" y="341" on="1"/>
        <pt x="179" y="341" on="0"/>
        <pt x="148" y="335" on="0"/>
        <pt x="119" y="326" on="0"/>
        <pt x="93" y="315" on="0"/>
      </contour>
    </TTGlyph>
    <TTGlyph name="agrave" xMin="35" yMin="-7" xMax="503" yMax="612">
      <component glyphName="a" x="0" y="0" flags="0x204"/>
      <component glyphName="grave" x="156" y="0" flags="0x4"/>
    </TTGlyph>
    <TTGlyph name="ampersand" xMin="106" yMin="-19" xMax="601" yMax="750">
      <contour>
        <pt x="457" y="375" on="1"/>
        <pt x="601" y="375" on="1"/>
        <pt x="601" y="334" on="1"/>
        <pt x="499" y="334" on="1"/>
        <pt x="499" y="266" on="1"/>
        <pt x="500" y="230" on="0"/>
        <pt x="498" y="146" on="0"/>
        <pt x="480" y="108" on="1"/>
        <pt x="545" y="3" on="1"/>
        <pt x="513" y="-19" on="1"/>
        <pt x="459" y="68" on="1"/>
        <pt x="432" y="33" on="0"/>
        <pt x="350" y="-8" on="0"/>
        <pt x="302" y="-8" on="1"/>
        <pt x="261" y="-8" on="0"/>
        <pt x="190" y="23" on="0"/>
        <pt x="137" y="75" on="0"/>
        <pt x="106" y="146" on="0"/>
        <pt x="106" y="187" on="1"/>
        <pt x="106" y="223" on="0"/>
        <pt x="130" y="288" on="0"/>
        <pt x="174" y="339" on="0"/>
        <pt x="233" y="373" on="0"/>
        <pt x="268" y="379" on="1"/>
        <pt x="197" y="496" on="1"/>
        <pt x="179" y="526" on="0"/>
        <pt x="164" y="590" on="0"/>
        <pt x="174" y="652" on="0"/>
        <pt x="210" y="706" on="0"/>
        <pt x="243" y="726" on="1"/>
        <pt x="271" y="743" on="0"/>
        <pt x="330" y="750" on="0"/>
        <pt x="386" y="740" on="0"/>
        <pt x="435" y="718" on="0"/>
        <pt x="454" y="706" on="1"/>
        <pt x="437" y="672" on="1"/>
        <pt x="419" y="682" on="0"/>
        <pt x="378" y="701" on="0"/>
        <pt x="335" y="710" on="0"/>
        <pt x="291" y="706" on="0"/>
        <pt x="270" y="693" on="1"/>
        <pt x="216" y="659" on="0"/>
        <pt x="204" y="557" on="0"/>
        <pt x="234" y="508" on="1"/>
        <pt x="443" y="168" on="1"/>
        <pt x="457" y="193" on="0"/>
        <pt x="457" y="223" on="1"/>
      </contour>
      <contour>
        <pt x="147" y="187" on="1"/>
        <pt x="147" y="155" on="0"/>
        <pt x="171" y="99" on="0"/>
        <pt x="212" y="57" on="0"/>
        <pt x="269" y="33" on="0"/>
        <pt x="302" y="33" on="1"/>
        <pt x="346" y="33" on="0"/>
        <pt x="415" y="74" on="0"/>
        <pt x="435" y="107" on="1"/>
        <pt x="292" y="341" on="1"/>
        <pt x="261" y="338" on="0"/>
        <pt x="208" y="313" on="0"/>
        <pt x="169" y="273" on="0"/>
        <pt x="147" y="218" on="0"/>
      </contour>
    </TTGlyph>
    <TTGlyph name="aring" xMin="35" yMin="-7" xMax="503" yMax="613">
      <component glyphName="a" x="0" y="0" flags="0x204"/>
      <component glyphName="ring" x="125" y="0" flags="0x4"/>
    </TTGlyph>
    <TTGlyph name="asciicircum" xMin="112" yMin="479" xMax="352" yMax="660">
      <contour>
        <pt x="232" y="660" on="1"/>
        <pt x="262" y="615" on="0"/>
        <pt x="322" y="524" on="0"/>
        <pt x="352" y="479" on="1"/>
        <pt x="319" y="479" on="1"/>
        <pt x="297" y="509" on="0"/>
        <pt x="254" y="570" on="0"/>
        <pt x="232" y="600" on="1"/>
        <pt x="210" y="570" on="0"/>
        <pt x="167" y="509" on="0"/>
        <pt x="145" y="479" on="1"/>
        <pt x="112" y="479" on="1"/>
        <pt x="142" y="524" on="0"/>
        <pt x="202" y="615" on="0"/>
      </contour>
    </TTGlyph>
    <TTGlyph name="asciitilde" xMin="128" yMin="455" xMax="425" yMax="545">
      <contour>
        <pt x="267" y="491" on="1"/>
        <pt x="252" y="508" on="0"/>
        <pt x="228" y="519" on="0"/>
        <pt x="214" y="519" on="1"/>
        <pt x="206" y="519" on="0"/>
        <pt x="187" y="515" on="0"/>
        <pt x="169" y="504" on="0"/>
        <pt x="155" y="484" on="0"/>
        <pt x="153" y="468" on="1"/>
        <pt x="147" y="469" on="0"/>
        <pt x="134" y="469" on="0"/>
        <pt x="128" y="470" on="1"/>
        <pt x="129" y="489" on="0"/>
        <pt x="145" y="517" on="0"/>
        <pt x="169" y="536" on="0"/>
        <pt x="199" y="545" on="0"/>
        <pt x="213" y="545" on="1"/>
        <pt x="234" y="545" on="0"/>
        <pt x="269" y="526" on="0"/>
        <pt x="285" y="509" on="1"/>
        <pt x="301" y="492" on="0"/>
        <pt x="325" y="481" on="0"/>
        <pt x="339" y="481" on="1"/>
        <pt x="346" y="481" on="0"/>
        <pt x="366" y="485" on="0"/>
        <pt x="384" y="496" on="0"/>
        <pt x="397" y="516" on="0"/>
        <pt x="399" y="532" on="1"/>
        <pt x="406" y="531" on="0"/>
        <pt x="419" y="531" on="0"/>
        <pt x="425" y="530" on="1"/>
        <pt x="424" y="511" on="0"/>
        <pt x="408" y="483" on="0"/>
        <pt x="384" y="464" on="0"/>
        <pt x="354" y="455" on="0"/>
        <pt x="340" y="455" on="1"/>
        <pt x="319" y="455" on="0"/>
        <pt x="284" y="474" on="0"/>
      </contour>
    </TTGlyph>
    <TTGlyph name="asterisk" xMin="33" yMin="434" xMax="303" yMax="720">
      <contour>
        <pt x="209" y="575" on="1"/>
        <pt x="232" y="562" on="0"/>
        <pt x="279" y="536" on="0"/>
        <pt x="302" y="522" on="1"/>
        <pt x="296" y="513" on="0"/>
        <pt x="285" y="494" on="0"/>
        <pt x="279" y="484" on="1"/>
        <pt x="256" y="498" on="0"/>
        <pt x="211" y="524" on="0"/>
        <pt x="188" y="538" on="1"/>
        <pt x="187" y="512" on="0"/>
        <pt x="187" y="460" on="0"/>
        <pt x="186" y="434" on="1"/>
        <pt x="146" y="434" on="1"/>
        <pt x="146" y="538" on="1"/>
        <pt x="123" y="525" on="0"/>
        <pt x="79" y="500" on="0"/>
        <pt x="56" y="486" on="1"/>
        <pt x="50" y="496" on="0"/>
        <pt x="39" y="515" on="0"/>
        <pt x="33" y="525" on="1"/>
        <pt x="56" y="538" on="0"/>
        <pt x="102" y="563" on="0"/>
        <pt x="125" y="576" on="1"/>
        <pt x="102" y="590" on="0"/>
        <pt x="57" y="616" on="0"/>
        <pt x="34" y="630" on="1"/>
        <pt x="42" y="647" on="0"/>
        <pt x="54" y="665" on="1"/>
        <pt x="77" y="651" on="0"/>
        <pt x="123" y="625" on="0"/>
        <pt x="146" y="611" on="1"/>
        <pt x="146" y="720" on="1"/>
        <pt x="190" y="720" on="1"/>
        <pt x="190" y="693" on="0"/>
        <pt x="189" y="639" on="0"/>
        <pt x="189" y="611" on="1"/>
        <pt x="212" y="625" on="0"/>
        <pt x="260" y="651" on="0"/>
        <pt x="283" y="664" on="1"/>
        <pt x="288" y="656" on="0"/>
        <pt x="298" y="638" on="0"/>
        <pt x="303" y="629" on="1"/>
        <pt x="279" y="615" on="0"/>
        <pt x="233" y="589" on="0"/>
      </contour>
    </TTGlyph>
    <TTGlyph name="at" xMin="82" yMin="-217" xMax="895" yMax="595">
      <contour>
        <pt x="333" y="188" on="1"/>
        <pt x="333" y="156" on="0"/>
        <pt x="357" y="100" on="0"/>
        <pt x="398" y="58" on="0"/>
        <pt x="455" y="34" on="0"/>
        <pt x="488" y="34" on="1"/>
        <pt x="521" y="34" on="0"/>
        <pt x="578" y="58" on="0"/>
        <pt x="619" y="100" on="0"/>
        <pt x="643" y="156" on="0"/>
        <pt x="643" y="188" on="1"/>
        <pt x="643" y="220" on="0"/>
        <pt x="619" y="277" on="0"/>
        <pt x="578" y="319" on="0"/>
        <pt x="521" y="343" on="0"/>
        <pt x="488" y="343" on="1"/>
        <pt x="455" y="343" on="0"/>
        <pt x="398" y="319" on="0"/>
        <pt x="357" y="277" on="0"/>
        <pt x="333" y="220" on="0"/>
      </contour>
      <contour>
        <pt x="895" y="188" on="1"/>
        <pt x="892" y="131" on="0"/>
        <pt x="862" y="58" on="0"/>
        <pt x="817" y="16" on="0"/>
        <pt x="763" y="0" on="0"/>
        <pt x="737" y="0" on="1"/>
        <pt x="647" y="0" on="1"/>
        <pt x="647" y="40" on="1"/>
        <pt x="647" y="52" on="0"/>
        <pt x="648" y="75" on="0"/>
        <pt x="648" y="86" on="1"/>
        <pt x="641" y="69" on="0"/>
        <pt x="612" y="35" on="0"/>
        <pt x="571" y="9" on="0"/>
        <pt x="518" y="-7" on="0"/>
        <pt x="488" y="-7" on="1"/>
        <pt x="447" y="-7" on="0"/>
        <pt x="375" y="24" on="0"/>
        <pt x="322" y="76" on="0"/>
        <pt x="291" y="147" on="0"/>
        <pt x="291" y="188" on="1"/>
        <pt x="291" y="228" on="0"/>
        <pt x="322" y="299" on="0"/>
        <pt x="375" y="352" on="0"/>
        <pt x="447" y="383" on="0"/>
        <pt x="488" y="383" on="1"/>
        <pt x="517" y="383" on="0"/>
        <pt x="568" y="366" on="0"/>
        <pt x="610" y="339" on="0"/>
        <pt x="640" y="305" on="0"/>
        <pt x="647" y="287" on="1"/>
        <pt x="647" y="309" on="0"/>
        <pt x="650" y="353" on="0"/>
        <pt x="651" y="375" on="1"/>
        <pt x="685" y="375" on="1"/>
        <pt x="685" y="40" on="1"/>
        <pt x="741" y="40" on="1"/>
        <pt x="789" y="40" on="0"/>
        <pt x="851" y="110" on="0"/>
        <pt x="853" y="188" on="1"/>
        <pt x="853" y="264" on="0"/>
        <pt x="796" y="398" on="0"/>
        <pt x="697" y="497" on="0"/>
        <pt x="564" y="554" on="0"/>
        <pt x="489" y="554" on="1"/>
        <pt x="413" y="554" on="0"/>
        <pt x="280" y="497" on="0"/>
        <pt x="181" y="398" on="0"/>
        <pt x="124" y="264" on="0"/>
        <pt x="124" y="188" on="1"/>
        <pt x="124" y="112" on="0"/>
        <pt x="181" y="-20" on="0"/>
        <pt x="280" y="-119" on="0"/>
        <pt x="413" y="-176" on="0"/>
        <pt x="489" y="-176" on="1"/>
        <pt x="549" y="-176" on="0"/>
        <pt x="658" y="-140" on="0"/>
        <pt x="704" y="-108" on="1"/>
        <pt x="711" y="-116" on="0"/>
        <pt x="723" y="-130" on="0"/>
        <pt x="729" y="-138" on="1"/>
        <pt x="679" y="-176" on="0"/>
        <pt x="555" y="-217" on="0"/>
        <pt x="489" y="-217" on="1"/>
        <pt x="405" y="-217" on="0"/>
        <pt x="257" y="-153" on="0"/>
        <pt x="146" y="-43" on="0"/>
        <pt x="82" y="105" on="0"/>
        <pt x="82" y="189" on="1"/>
        <pt x="82" y="273" on="0"/>
        <pt x="146" y="421" on="0"/>
        <pt x="257" y="531" on="0"/>
        <pt x="405" y="595" on="0"/>
        <pt x="489" y="595" on="1"/>
        <pt x="573" y="595" on="0"/>
        <pt x="721" y="531" on="0"/>
        <pt x="831" y="421" on="0"/>
        <pt x="895" y="273" on="0"/>
      </contour>
    </TTGlyph>
    <TTGlyph name="atilde" xMin="35" yMin="-7" xMax="503" yMax="545">
      <component glyphName="a" x="0" y="0" flags="0x204"/>
      <component glyphName="asciitilde" x="-41" y="0" flags="0x4"/>
    </TTGlyph>
    <TTGlyph name="b" xMin="35" yMin="-7" xMax="503" yMax="750">
      <contour>
        <pt x="35" y="40" on="1"/>
        <pt x="109" y="40" on="1"/>
        <pt x="109" y="710" on="1"/>
        <pt x="39" y="710" on="1"/>
        <pt x="39" y="750" on="1"/>
        <pt x="151" y="750" on="1"/>
        <pt x="151" y="337" on="1"/>
        <pt x="150" y="325" on="0"/>
        <pt x="148" y="300" on="0"/>
        <pt x="147" y="288" on="1"/>
        <pt x="154" y="306" on="0"/>
        <pt x="183" y="340" on="0"/>
        <pt x="225" y="367" on="0"/>
        <pt x="277" y="383" on="0"/>
        <pt x="306" y="383" on="1"/>
        <pt x="347" y="383" on="0"/>
        <pt x="419" y="352" on="0"/>
        <pt x="472" y="299" on="0"/>
        <pt x="503" y="228" on="0"/>
        <pt x="503" y="188" on="1"/>
        <pt x="503" y="147" on="0"/>
        <pt x="472" y="76" on="0"/>
        <pt x="419" y="24" on="0"/>
        <pt x="347" y="-7" on="0"/>
        <pt x="306" y="-7" on="1"/>
        <pt x="276" y="-7" on="0"/>
        <pt x="223" y="9" on="0"/>
        <pt x="182" y="35" on="0"/>
        <pt x="153" y="69" on="0"/>
        <pt x="146" y="86" on="1"/>
        <pt x="146" y="75" on="0"/>
        <pt x="147" y="52" on="0"/>
        <pt x="147" y="40" on="1"/>
        <pt x="147" y="0" on="1"/>
        <pt x="35" y="0" on="1"/>
      </contour>
      <contour>
        <pt x="461" y="188" on="1"/>
        <pt x="461" y="220" on="0"/>
        <pt x="437" y="277" on="0"/>
        <pt x="396" y="319" on="0"/>
        <pt x="339" y="343" on="0"/>
        <pt x="306" y="343" on="1"/>
        <pt x="273" y="343" on="0"/>
        <pt x="217" y="319" on="0"/>
        <pt x="175" y="277" on="0"/>
        <pt x="151" y="220" on="0"/>
        <pt x="151" y="188" on="1"/>
        <pt x="151" y="156" on="0"/>
        <pt x="175" y="100" on="0"/>
        <pt x="217" y="58" on="0"/>
        <pt x="273" y="34" on="0"/>
        <pt x="306" y="34" on="1"/>
        <pt x="339" y="34" on="0"/>
        <pt x="396" y="58" on="0"/>
        <pt x="437" y="100" on="0"/>
        <pt x="461" y="156" on="0"/>
      </contour>
    </TTGlyph>
    <TTGlyph name="backslash" xMin="10" yMin="-19" xMax="334" yMax="736">
      <contour>
        <pt x="56" y="736" on="1"/>
        <pt x="126" y="546" on="0"/>
        <pt x="264" y="171" on="0"/>
        <pt x="334" y="-19" on="1"/>
        <pt x="288" y="-19" on="1"/>
        <pt x="218" y="171" on="0"/>
        <pt x="80" y="546" on="0"/>
        <pt x="10" y="736" on="1"/>
      </contour>
    </TTGlyph>
    <TTGlyph name="bar" xMin="96" yMin="-232" xMax="138" yMax="700">
      <contour>
        <pt x="96" y="-232" on="1"/>
        <pt x="96" y="700" on="1"/>
        <pt x="138" y="700" on="1"/>
        <pt x="138" y="-232" on="1"/>
      </contour>
    </TTGlyph>
    <TTGlyph name="braceleft" xMin="30" yMin="-148" xMax="255" yMax="746">
      <contour>
        <pt x="30" y="275" on="1"/>
        <pt x="30" y="321" on="1"/>
        <pt x="54" y="322" on="0"/>
        <pt x="85" y="349" on="0"/>
        <pt x="103" y="389" on="0"/>
        <pt x="109" y="436" on="0"/>
        <pt x="109" y="456" on="1"/>
        <pt x="109" y="628" on="1"/>
        <pt x="109" y="674" on="0"/>
        <pt x="125" y="722" on="0"/>
        <pt x="153" y="743" on="0"/>
        <pt x="188" y="746" on="0"/>
        <pt x="208" y="746" on="1"/>
        <pt x="255" y="746" on="1"/>
        <pt x="255" y="705" on="1"/>
        <pt x="203" y="705" on="1"/>
        <pt x="172" y="705" on="0"/>
        <pt x="151" y="658" on="0"/>
        <pt x="151" y="597" on="1"/>
        <pt x="151" y="455" on="1"/>
        <pt x="151" y="414" on="0"/>
        <pt x="139" y="361" on="0"/>
        <pt x="121" y="326" on="0"/>
        <pt x="98" y="306" on="0"/>
        <pt x="86" y="299" on="1"/>
        <pt x="98" y="292" on="0"/>
        <pt x="121" y="271" on="0"/>
        <pt x="139" y="235" on="0"/>
        <pt x="151" y="182" on="0"/>
        <pt x="151" y="142" on="1"/>
        <pt x="151" y="1" on="1"/>
        <pt x="151" y="-61" on="0"/>
        <pt x="172" y="-108" on="0"/>
        <pt x="203" y="-108" on="1"/>
        <pt x="255" y="-108" on="1"/>
        <pt x="255" y="-148" on="1"/>
        <pt x="208" y="-148" on="1"/>
        <pt x="187" y="-148" on="0"/>
        <pt x="150" y="-145" on="0"/>
        <pt x="124" y="-120" on="0"/>
        <pt x="109" y="-63" on="0"/>
        <pt x="109" y="-9" on="1"/>
        <pt x="109" y="140" on="1"/>
        <pt x="109" y="160" on="0"/>
        <pt x="103" y="207" on="0"/>
        <pt x="85" y="247" on="0"/>
        <pt x="54" y="274" on="0"/>
      </contour>
    </TTGlyph>
    <TTGlyph name="braceright" xMin="65" yMin="-148" xMax="290" yMax="746">
      <contour>
        <pt x="290" y="321" on="1"/>
        <pt x="290" y="275" on="1"/>
        <pt x="261" y="273" on="0"/>
        <pt x="230" y="238" on="0"/>
        <pt x="214" y="189" on="0"/>
        <pt x="211" y="136" on="0"/>
        <pt x="211" y="118" on="1"/>
        <pt x="211" y="-30" on="1"/>
        <pt x="211" y="-77" on="0"/>
        <pt x="195" y="-125" on="0"/>
        <pt x="167" y="-146" on="0"/>
        <pt x="131" y="-148" on="0"/>
        <pt x="112" y="-148" on="1"/>
        <pt x="65" y="-148" on="1"/>
        <pt x="65" y="-108" on="1"/>
        <pt x="117" y="-108" on="1"/>
        <pt x="148" y="-108" on="0"/>
        <pt x="169" y="-61" on="0"/>
        <pt x="169" y="1" on="1"/>
        <pt x="169" y="165" on="1"/>
        <pt x="169" y="197" on="0"/>
        <pt x="182" y="243" on="0"/>
        <pt x="202" y="274" on="0"/>
        <pt x="225" y="293" on="0"/>
        <pt x="234" y="299" on="1"/>
        <pt x="222" y="306" on="0"/>
        <pt x="199" y="326" on="0"/>
        <pt x="181" y="361" on="0"/>
        <pt x="169" y="414" on="0"/>
        <pt x="169" y="455" on="1"/>
        <pt x="169" y="597" on="1"/>
        <pt x="169" y="658" on="0"/>
        <pt x="148" y="705" on="0"/>
        <pt x="117" y="705" on="1"/>
        <pt x="65" y="705" on="1"/>
        <pt x="65" y="746" on="1"/>
        <pt x="112" y="746" on="1"/>
        <pt x="131" y="746" on="0"/>
        <pt x="167" y="744" on="0"/>
        <pt x="194" y="723" on="0"/>
        <pt x="211" y="674" on="0"/>
        <pt x="211" y="628" on="1"/>
        <pt x="211" y="478" on="1"/>
        <pt x="211" y="460" on="0"/>
        <pt x="214" y="407" on="0"/>
        <pt x="230" y="358" on="0"/>
        <pt x="261" y="322" on="0"/>
      </contour>
    </TTGlyph>
    <TTGlyph name="bracketleft" xMin="83" yMin="-149" xMax="258" yMax="746">
      <contour>
        <pt x="83" y="-149" on="1"/>
        <pt x="83" y="746" on="1"/>
        <pt x="258" y="746" on="1"/>
        <pt x="258" y="705" on="1"/>
        <pt x="126" y="705" on="1"/>
        <pt x="126" y="-108" on="1"/>
        <pt x="258" y="-108" on="1"/>
        <pt x="258" y="-149" on="1"/>
      </contour>
    </TTGlyph>
    <TTGlyph name="bracketright" xMin="76" yMin="-149" xMax="251" yMax="746">
      <contour>
        <pt x="251" y="746" on="1"/>
        <pt x="251" y="-149" on="1"/>
        <pt x="76" y="-149" on="1"/>
        <pt x="76" y="-108" on="1"/>
        <pt x="208" y="-108" on="1"/>
        <pt x="208" y="705" on="1"/>
        <pt x="76" y="705" on="1"/>
        <pt x="76" y="746" on="1"/>
      </contour>
    </TTGlyph>
    <TTGlyph name="brokenbar" xMin="89" yMin="-233" xMax="131" yMax="700">
      <contour>
        <pt x="131" y="-233" on="1"/>
        <pt x="89" y="-233" on="1"/>
        <pt x="89" y="117" on="1"/>
        <pt x="131" y="117" on="1"/>
      </contour>
      <contour>
        <pt x="131" y="350" on="1"/>
        <pt x="89" y="350" on="1"/>
        <pt x="89" y="700" on="1"/>
        <pt x="131" y="700" on="1"/>
      </contour>
    </TTGlyph>
    <TTGlyph name="bullet" xMin="150" yMin="211" xMax="330" yMax="391">
      <contour>
        <pt x="150" y="300" on="1"/>
        <pt x="150" y="319" on="0"/>
        <pt x="164" y="352" on="0"/>
        <pt x="188" y="377" on="0"/>
        <pt x="220" y="391" on="0"/>
        <pt x="239" y="391" on="1"/>
        <pt x="277" y="391" on="0"/>
        <pt x="330" y="338" on="0"/>
        <pt x="330" y="300" on="1"/>
        <pt x="330" y="281" on="0"/>
        <pt x="316" y="249" on="0"/>
        <pt x="291" y="225" on="0"/>
        <pt x="258" y="211" on="0"/>
        <pt x="239" y="211" on="1"/>
        <pt x="201" y="211" on="0"/>
        <pt x="150" y="262" on="0"/>
      </contour>
    </TTGlyph>
    <TTGlyph name="c" xMin="35" yMin="-7" xMax="356" yMax="383">
      <contour>
        <pt x="355" y="36" on="1"/>
        <pt x="329" y="16" on="0"/>
        <pt x="267" y="-7" on="0"/>
        <pt x="231" y="-7" on="1"/>
        <pt x="190" y="-7" on="0"/>
        <pt x="119" y="24" on="0"/>
        <pt x="66" y="76" on="0"/>
        <pt x="35" y="147" on="0"/>
        <pt x="35" y="188" on="1"/>
        <pt x="35" y="228" on="0"/>
        <pt x="66" y="300" on="0"/>
        <pt x="119" y="352" on="0"/>
        <pt x="190" y="383" on="0"/>
        <pt x="231" y="383" on="1"/>
        <pt x="267" y="383" on="0"/>
        <pt x="331" y="360" on="0"/>
        <pt x="356" y="340" on="1"/>
        <pt x="356" y="242" on="1"/>
        <pt x="318" y="242" on="1"/>
        <pt x="318" y="316" on="1"/>
        <pt x="299" y="329" on="0"/>
        <pt x="256" y="343" on="0"/>
        <pt x="231" y="343" on="1"/>
        <pt x="198" y="343" on="0"/>
        <pt x="142" y="319" on="0"/>
        <pt x="101" y="277" on="0"/>
        <pt x="77" y="220" on="0"/>
        <pt x="77" y="188" on="1"/>
        <pt x="77" y="156" on="0"/>
        <pt x="101" y="100" on="0"/>
        <pt x="142" y="58" on="0"/>
        <pt x="198" y="34" on="0"/>
        <pt x="231" y="34" on="1"/>
        <pt x="288" y="34" on="0"/>
        <pt x="329" y="67" on="1"/>
      </contour>
    </TTGlyph>
    <TTGlyph name="ccedilla" xMin="35" yMin="-234" xMax="356" yMax="383">
      <contour>
        <pt x="330" y="67" on="1"/>
        <pt x="356" y="36" on="1"/>
        <pt x="350" y="31" on="0"/>
        <pt x="317" y="14" on="0"/>
        <pt x="279" y="-2" on="0"/>
        <pt x="244" y="-12" on="0"/>
        <pt x="237" y="-10" on="1"/>
        <pt x="237" y="-22" on="0"/>
        <pt x="246" y="-38" on="0"/>
        <pt x="258" y="-49" on="0"/>
        <pt x="273" y="-57" on="0"/>
        <pt x="279" y="-61" on="1"/>
        <pt x="301" y="-76" on="0"/>
        <pt x="319" y="-115" on="0"/>
        <pt x="319" y="-133" on="1"/>
        <pt x="319" y="-178" on="0"/>
        <pt x="275" y="-226" on="0"/>
        <pt x="242" y="-231" on="1"/>
        <pt x="224" y="-234" on="0"/>
        <pt x="206" y="-230" on="1"/>
        <pt x="183" y="-226" on="0"/>
        <pt x="146" y="-196" on="0"/>
        <pt x="137" y="-169" on="1"/>
        <pt x="164" y="-157" on="1"/>
        <pt x="170" y="-177" on="0"/>
        <pt x="201" y="-201" on="0"/>
        <pt x="224" y="-201" on="1"/>
        <pt x="252" y="-201" on="0"/>
        <pt x="286" y="-163" on="0"/>
        <pt x="286" y="-135" on="1"/>
        <pt x="286" y="-110" on="0"/>
        <pt x="262" y="-83" on="0"/>
        <pt x="233" y="-63" on="0"/>
        <pt x="209" y="-42" on="0"/>
        <pt x="209" y="-23" on="1"/>
        <pt x="209" y="-4" on="1"/>
        <pt x="172" y="0" on="0"/>
        <pt x="109" y="32" on="0"/>
        <pt x="62" y="83" on="0"/>
        <pt x="35" y="150" on="0"/>
        <pt x="35" y="188" on="1"/>
        <pt x="35" y="228" on="0"/>
        <pt x="66" y="300" on="0"/>
        <pt x="119" y="352" on="0"/>
        <pt x="191" y="383" on="0"/>
        <pt x="232" y="383" on="1"/>
        <pt x="268" y="383" on="0"/>
        <pt x="331" y="360" on="0"/>
        <pt x="356" y="340" on="1"/>
        <pt x="356" y="241" on="1"/>
        <pt x="318" y="241" on="1"/>
        <pt x="318" y="316" on="1"/>
        <pt x="299" y="329" on="0"/>
        <pt x="256" y="343" on="0"/>
        <pt x="232" y="343" on="1"/>
        <pt x="199" y="343" on="0"/>
        <pt x="142" y="319" on="0"/>
        <pt x="101" y="277" on="0"/>
        <pt x="77" y="220" on="0"/>
        <pt x="77" y="188" on="1"/>
        <pt x="77" y="156" on="0"/>
        <pt x="101" y="100" on="0"/>
        <pt x="142" y="58" on="0"/>
        <pt x="199" y="34" on="0"/>
        <pt x="232" y="34" on="1"/>
        <pt x="288" y="34" on="0"/>
      </contour>
    </TTGlyph>
    <TTGlyph name="cedilla" xMin="117" yMin="-234" xMax="300" yMax="0">
      <contour>
        <pt x="189" y="0" on="1"/>
        <pt x="218" y="0" on="1"/>
        <pt x="218" y="-6" on="1"/>
        <pt x="218" y="-20" on="0"/>
        <pt x="226" y="-37" on="0"/>
        <pt x="239" y="-49" on="0"/>
        <pt x="254" y="-57" on="0"/>
        <pt x="260" y="-61" on="1"/>
        <pt x="282" y="-76" on="0"/>
        <pt x="300" y="-115" on="0"/>
        <pt x="300" y="-133" on="1"/>
        <pt x="300" y="-181" on="0"/>
        <pt x="249" y="-234" on="0"/>
        <pt x="208" y="-234" on="1"/>
        <pt x="179" y="-234" on="0"/>
        <pt x="128" y="-202" on="0"/>
        <pt x="117" y="-169" on="1"/>
        <pt x="124" y="-166" on="0"/>
        <pt x="138" y="-160" on="0"/>
        <pt x="145" y="-157" on="1"/>
        <pt x="150" y="-176" on="0"/>
        <pt x="182" y="-201" on="0"/>
        <pt x="205" y="-201" on="1"/>
        <pt x="233" y="-201" on="0"/>
        <pt x="267" y="-163" on="0"/>
        <pt x="267" y="-135" on="1"/>
        <pt x="267" y="-110" on="0"/>
        <pt x="243" y="-83" on="0"/>
        <pt x="213" y="-63" on="0"/>
        <pt x="189" y="-42" on="0"/>
        <pt x="189" y="-23" on="1"/>
      </contour>
    </TTGlyph>
    <TTGlyph name="cent" xMin="36" yMin="-68" xMax="357" yMax="438">
      <contour>
        <pt x="330" y="67" on="1"/>
        <pt x="356" y="36" on="1"/>
        <pt x="308" y="-3" on="0"/>
        <pt x="243" y="-6" on="1"/>
        <pt x="243" y="-68" on="1"/>
        <pt x="201" y="-68" on="1"/>
        <pt x="201" y="-3" on="1"/>
        <pt x="166" y="2" on="0"/>
        <pt x="105" y="36" on="0"/>
        <pt x="61" y="87" on="0"/>
        <pt x="36" y="152" on="0"/>
        <pt x="36" y="188" on="1"/>
        <pt x="36" y="224" on="0"/>
        <pt x="61" y="290" on="0"/>
        <pt x="105" y="341" on="0"/>
        <pt x="166" y="375" on="0"/>
        <pt x="201" y="380" on="1"/>
        <pt x="201" y="438" on="1"/>
        <pt x="243" y="438" on="1"/>
        <pt x="243" y="383" on="1"/>
        <pt x="275" y="381" on="0"/>
        <pt x="334" y="359" on="0"/>
        <pt x="357" y="340" on="1"/>
        <pt x="356" y="339" on="1"/>
        <pt x="356" y="336" on="0"/>
        <pt x="357" y="331" on="0"/>
        <pt x="357" y="328" on="1"/>
        <pt x="357" y="241" on="1"/>
        <pt x="319" y="241" on="1"/>
        <pt x="319" y="316" on="1"/>
        <pt x="302" y="327" on="0"/>
        <pt x="264" y="341" on="0"/>
        <pt x="243" y="341" on="1"/>
        <pt x="243" y="34" on="1"/>
        <pt x="292" y="37" on="0"/>
      </contour>
      <contour>
        <pt x="78" y="188" on="1"/>
        <pt x="78" y="131" on="0"/>
        <pt x="147" y="49" on="0"/>
        <pt x="201" y="39" on="1"/>
        <pt x="201" y="336" on="1"/>
        <pt x="174" y="332" on="0"/>
        <pt x="129" y="306" on="0"/>
        <pt x="96" y="266" on="0"/>
        <pt x="78" y="216" on="0"/>
      </contour>
    </TTGlyph>
    <TTGlyph name="colon" xMin="52" yMin="0" xMax="117" yMax="316">
      <contour>
        <pt x="52" y="283" on="1"/>
        <pt x="52" y="297" on="0"/>
        <pt x="72" y="316" on="0"/>
        <pt x="85" y="316" on="1"/>
        <pt x="98" y="316" on="0"/>
        <pt x="117" y="297" on="0"/>
        <pt x="117" y="283" on="1"/>
        <pt x="117" y="269" on="0"/>
        <pt x="98" y="250" on="0"/>
        <pt x="85" y="250" on="1"/>
        <pt x="72" y="250" on="0"/>
        <pt x="52" y="269" on="0"/>
      </contour>
      <contour>
        <pt x="52" y="33" on="1"/>
        <pt x="52" y="47" on="0"/>
        <pt x="72" y="66" on="0"/>
        <pt x="85" y="66" on="1"/>
        <pt x="98" y="66" on="0"/>
        <pt x="117" y="47" on="0"/>
        <pt x="117" y="33" on="1"/>
        <pt x="117" y="19" on="0"/>
        <pt x="98" y="0" on="0"/>
        <pt x="85" y="0" on="1"/>
        <pt x="72" y="0" on="0"/>
        <pt x="52" y="19" on="0"/>
      </contour>
    </TTGlyph>
    <TTGlyph name="comma" xMin="17" yMin="-120" xMax="141" yMax="86">
      <contour>
        <pt x="141" y="86" on="1"/>
        <pt x="119" y="34" on="0"/>
        <pt x="77" y="-68" on="0"/>
        <pt x="55" y="-120" on="1"/>
        <pt x="17" y="-120" on="1"/>
        <pt x="37" y="-68" on="0"/>
        <pt x="74" y="34" on="0"/>
        <pt x="94" y="86" on="1"/>
      </contour>
    </TTGlyph>
    <TTGlyph name="copyright" xMin="142" yMin="115" xMax="658" yMax="630">
      <contour>
        <pt x="399" y="138" on="1"/>
        <pt x="448" y="138" on="0"/>
        <pt x="534" y="173" on="0"/>
        <pt x="597" y="236" on="0"/>
        <pt x="634" y="321" on="0"/>
        <pt x="634" y="371" on="1"/>
        <pt x="634" y="422" on="0"/>
        <pt x="597" y="508" on="0"/>
        <pt x="534" y="571" on="0"/>
        <pt x="448" y="607" on="0"/>
        <pt x="399" y="607" on="1"/>
        <pt x="351" y="607" on="0"/>
        <pt x="266" y="571" on="0"/>
        <pt x="203" y="508" on="0"/>
        <pt x="166" y="422" on="0"/>
        <pt x="166" y="371" on="1"/>
        <pt x="166" y="321" on="0"/>
        <pt x="203" y="236" on="0"/>
        <pt x="266" y="173" on="0"/>
        <pt x="351" y="138" on="0"/>
      </contour>
      <contour>
        <pt x="400" y="115" on="1"/>
        <pt x="346" y="115" on="0"/>
        <pt x="252" y="154" on="0"/>
        <pt x="182" y="223" on="0"/>
        <pt x="142" y="317" on="0"/>
        <pt x="142" y="372" on="1"/>
        <pt x="142" y="428" on="0"/>
        <pt x="182" y="522" on="0"/>
        <pt x="252" y="591" on="0"/>
        <pt x="346" y="630" on="0"/>
        <pt x="400" y="630" on="1"/>
        <pt x="454" y="630" on="0"/>
        <pt x="548" y="591" on="0"/>
        <pt x="618" y="522" on="0"/>
        <pt x="658" y="428" on="0"/>
        <pt x="658" y="372" on="1"/>
        <pt x="658" y="317" on="0"/>
        <pt x="618" y="223" on="0"/>
        <pt x="548" y="154" on="0"/>
        <pt x="454" y="115" on="0"/>
      </contour>
      <contour>
        <pt x="484" y="464" on="1"/>
        <pt x="484" y="503" on="1"/>
        <pt x="452" y="519" on="0"/>
        <pt x="419" y="519" on="1"/>
        <pt x="390" y="519" on="0"/>
        <pt x="338" y="496" on="0"/>
        <pt x="299" y="457" on="0"/>
        <pt x="277" y="404" on="0"/>
        <pt x="277" y="374" on="1"/>
        <pt x="277" y="345" on="0"/>
        <pt x="299" y="293" on="0"/>
        <pt x="338" y="254" on="0"/>
        <pt x="389" y="231" on="0"/>
        <pt x="418" y="231" on="1"/>
        <pt x="438" y="231" on="0"/>
        <pt x="474" y="242" on="0"/>
        <pt x="491" y="251" on="1"/>
        <pt x="501" y="236" on="1"/>
        <pt x="483" y="225" on="0"/>
        <pt x="442" y="213" on="0"/>
        <pt x="419" y="213" on="1"/>
        <pt x="386" y="213" on="0"/>
        <pt x="327" y="239" on="0"/>
        <pt x="283" y="283" on="0"/>
        <pt x="258" y="342" on="0"/>
        <pt x="258" y="375" on="1"/>
        <pt x="258" y="409" on="0"/>
        <pt x="283" y="468" on="0"/>
        <pt x="327" y="512" on="0"/>
        <pt x="386" y="537" on="0"/>
        <pt x="419" y="537" on="1"/>
        <pt x="463" y="537" on="0"/>
        <pt x="502" y="515" on="1"/>
        <pt x="502" y="464" on="1"/>
      </contour>
    </TTGlyph>
    <TTGlyph name="currency" xMin="99" yMin="210" xMax="395" yMax="506">
      <contour>
        <pt x="146" y="361" on="1"/>
        <pt x="146" y="340" on="0"/>
        <pt x="162" y="302" on="0"/>
        <pt x="190" y="274" on="0"/>
        <pt x="226" y="258" on="0"/>
        <pt x="247" y="258" on="1"/>
        <pt x="268" y="258" on="0"/>
        <pt x="306" y="274" on="0"/>
        <pt x="333" y="302" on="0"/>
        <pt x="349" y="340" on="0"/>
        <pt x="349" y="361" on="1"/>
        <pt x="349" y="382" on="0"/>
        <pt x="333" y="419" on="0"/>
        <pt x="306" y="447" on="0"/>
        <pt x="268" y="463" on="0"/>
        <pt x="247" y="463" on="1"/>
        <pt x="226" y="463" on="0"/>
        <pt x="190" y="447" on="0"/>
        <pt x="162" y="419" on="0"/>
        <pt x="146" y="382" on="0"/>
      </contour>
      <contour>
        <pt x="104" y="361" on="1"/>
        <pt x="104" y="384" on="0"/>
        <pt x="118" y="427" on="0"/>
        <pt x="131" y="444" on="1"/>
        <pt x="123" y="452" on="0"/>
        <pt x="107" y="469" on="0"/>
        <pt x="99" y="477" on="1"/>
        <pt x="129" y="506" on="1"/>
        <pt x="161" y="474" on="1"/>
        <pt x="179" y="488" on="0"/>
        <pt x="222" y="504" on="0"/>
        <pt x="247" y="504" on="1"/>
        <pt x="272" y="504" on="0"/>
        <pt x="316" y="487" on="0"/>
        <pt x="333" y="473" on="1"/>
        <pt x="365" y="506" on="1"/>
        <pt x="395" y="476" on="1"/>
        <pt x="363" y="445" on="1"/>
        <pt x="391" y="408" on="0"/>
        <pt x="391" y="361" on="1"/>
        <pt x="391" y="313" on="0"/>
        <pt x="361" y="275" on="1"/>
        <pt x="395" y="240" on="1"/>
        <pt x="366" y="211" on="1"/>
        <pt x="357" y="219" on="0"/>
        <pt x="340" y="237" on="0"/>
        <pt x="331" y="245" on="1"/>
        <pt x="314" y="232" on="0"/>
        <pt x="270" y="218" on="0"/>
        <pt x="247" y="218" on="1"/>
        <pt x="224" y="218" on="0"/>
        <pt x="181" y="232" on="0"/>
        <pt x="164" y="244" on="1"/>
        <pt x="129" y="210" on="1"/>
        <pt x="99" y="239" on="1"/>
        <pt x="134" y="274" on="1"/>
        <pt x="104" y="312" on="0"/>
      </contour>
    </TTGlyph>
    <TTGlyph name="d" xMin="35" yMin="-7" xMax="503" yMax="750">
      <contour>
        <pt x="391" y="40" on="1"/>
        <pt x="391" y="52" on="0"/>
        <pt x="392" y="75" on="0"/>
        <pt x="392" y="86" on="1"/>
        <pt x="385" y="69" on="0"/>
        <pt x="356" y="35" on="0"/>
        <pt x="315" y="9" on="0"/>
        <pt x="262" y="-7" on="0"/>
        <pt x="232" y="-7" on="1"/>
        <pt x="191" y="-7" on="0"/>
        <pt x="119" y="24" on="0"/>
        <pt x="66" y="76" on="0"/>
        <pt x="35" y="147" on="0"/>
        <pt x="35" y="188" on="1"/>
        <pt x="35" y="228" on="0"/>
        <pt x="66" y="299" on="0"/>
        <pt x="119" y="352" on="0"/>
        <pt x="191" y="383" on="0"/>
        <pt x="232" y="383" on="1"/>
        <pt x="261" y="383" on="0"/>
        <pt x="312" y="367" on="0"/>
        <pt x="354" y="340" on="0"/>
        <pt x="384" y="306" on="0"/>
        <pt x="391" y="288" on="1"/>
        <pt x="390" y="309" on="0"/>
        <pt x="388" y="351" on="0"/>
        <pt x="387" y="372" on="1"/>
        <pt x="387" y="710" on="1"/>
        <pt x="317" y="710" on="1"/>
        <pt x="317" y="750" on="1"/>
        <pt x="429" y="750" on="1"/>
        <pt x="429" y="40" on="1"/>
        <pt x="503" y="40" on="1"/>
        <pt x="503" y="0" on="1"/>
        <pt x="391" y="0" on="1"/>
      </contour>
      <contour>
        <pt x="77" y="188" on="1"/>
        <pt x="77" y="156" on="0"/>
        <pt x="101" y="100" on="0"/>
        <pt x="142" y="58" on="0"/>
        <pt x="199" y="34" on="0"/>
        <pt x="232" y="34" on="1"/>
        <pt x="265" y="34" on="0"/>
        <pt x="321" y="58" on="0"/>
        <pt x="363" y="100" on="0"/>
        <pt x="387" y="156" on="0"/>
        <pt x="387" y="188" on="1"/>
        <pt x="387" y="220" on="0"/>
        <pt x="363" y="277" on="0"/>
        <pt x="321" y="319" on="0"/>
        <pt x="265" y="343" on="0"/>
        <pt x="232" y="343" on="1"/>
        <pt x="199" y="343" on="0"/>
        <pt x="142" y="319" on="0"/>
        <pt x="101" y="277" on="0"/>
        <pt x="77" y="220" on="0"/>
      </contour>
    </TTGlyph>
    <TTGlyph name="degree" xMin="51" yMin="474" xMax="224" yMax="646">
      <contour>
        <pt x="138" y="503" on="1"/>
        <pt x="161" y="503" on="0"/>
        <pt x="195" y="536" on="0"/>
        <pt x="195" y="560" on="1"/>
        <pt x="195" y="583" on="0"/>
        <pt x="161" y="616" on="0"/>
        <pt x="138" y="616" on="1"/>
        <pt x="114" y="616" on="0"/>
        <pt x="81" y="583" on="0"/>
        <pt x="81" y="560" on="1"/>
        <pt x="81" y="536" on="0"/>
        <pt x="114" y="503" on="0"/>
      </contour>
      <contour>
        <pt x="51" y="559" on="1"/>
        <pt x="51" y="596" on="0"/>
        <pt x="101" y="646" on="0"/>
        <pt x="138" y="646" on="1"/>
        <pt x="174" y="646" on="0"/>
        <pt x="224" y="596" on="0"/>
        <pt x="224" y="559" on="1"/>
        <pt x="224" y="523" on="0"/>
        <pt x="174" y="474" on="0"/>
        <pt x="138" y="474" on="1"/>
        <pt x="101" y="474" on="0"/>
        <pt x="51" y="523" on="0"/>
      </contour>
    </TTGlyph>
    <TTGlyph name="dieresis" xMin="69" yMin="475" xMax="299" yMax="541">
      <contour>
        <pt x="234" y="508" on="1"/>
        <pt x="234" y="522" on="0"/>
        <pt x="254" y="541" on="0"/>
        <pt x="267" y="541" on="1"/>
        <pt x="280" y="541" on="0"/>
        <pt x="299" y="522" on="0"/>
        <pt x="299" y="508" on="1"/>
        <pt x="299" y="494" on="0"/>
        <pt x="280" y="475" on="0"/>
        <pt x="267" y="475" on="1"/>
        <pt x="254" y="475" on="0"/>
        <pt x="234" y="494" on="0"/>
      </contour>
      <contour>
        <pt x="69" y="508" on="1"/>
        <pt x="69" y="522" on="0"/>
        <pt x="89" y="541" on="0"/>
        <pt x="102" y="541" on="1"/>
        <pt x="114" y="541" on="0"/>
        <pt x="134" y="522" on="0"/>
        <pt x="134" y="508" on="1"/>
        <pt x="134" y="494" on="0"/>
        <pt x="114" y="475" on="0"/>
        <pt x="102" y="475" on="1"/>
        <pt x="89" y="475" on="0"/>
        <pt x="69" y="494" on="0"/>
      </contour>
    </TTGlyph>
    <TTGlyph name="divide" xMin="68" yMin="71" xMax="428" yMax="387">
      <contour>
        <pt x="428" y="208" on="1"/>
        <pt x="68" y="208" on="1"/>
        <pt x="68" y="249" on="1"/>
        <pt x="428" y="249" on="1"/>
      </contour>
      <contour>
        <pt x="218" y="354" on="1"/>
        <pt x="218" y="368" on="0"/>
        <pt x="238" y="387" on="0"/>
        <pt x="251" y="387" on="1"/>
        <pt x="264" y="387" on="0"/>
        <pt x="283" y="368" on="0"/>
        <pt x="283" y="354" on="1"/>
        <pt x="283" y="340" on="0"/>
        <pt x="264" y="321" on="0"/>
        <pt x="251" y="321" on="1"/>
        <pt x="238" y="321" on="0"/>
        <pt x="218" y="340" on="0"/>
      </contour>
      <contour>
        <pt x="218" y="104" on="1"/>
        <pt x="218" y="118" on="0"/>
        <pt x="238" y="137" on="0"/>
        <pt x="251" y="137" on="1"/>
        <pt x="264" y="137" on="0"/>
        <pt x="283" y="118" on="0"/>
        <pt x="283" y="104" on="1"/>
        <pt x="283" y="90" on="0"/>
        <pt x="264" y="71" on="0"/>
        <pt x="251" y="71" on="1"/>
        <pt x="238" y="71" on="0"/>
        <pt x="218" y="90" on="0"/>
      </contour>
    </TTGlyph>
    <TTGlyph name="dollar" xMin="36" yMin="-68" xMax="454" yMax="764">
      <contour>
        <pt x="361" y="546" on="1"/>
        <pt x="361" y="634" on="1"/>
        <pt x="344" y="645" on="0"/>
        <pt x="294" y="661" on="0"/>
        <pt x="259" y="663" on="1"/>
        <pt x="259" y="387" on="1"/>
        <pt x="294" y="376" on="0"/>
        <pt x="363" y="351" on="0"/>
        <pt x="418" y="307" on="0"/>
        <pt x="453" y="239" on="0"/>
        <pt x="454" y="186" on="1"/>
        <pt x="454" y="144" on="0"/>
        <pt x="424" y="74" on="0"/>
        <pt x="371" y="24" on="0"/>
        <pt x="299" y="-5" on="0"/>
        <pt x="259" y="-7" on="1"/>
        <pt x="259" y="-68" on="1"/>
        <pt x="218" y="-68" on="1"/>
        <pt x="218" y="-6" on="1"/>
        <pt x="183" y="-4" on="0"/>
        <pt x="124" y="13" on="0"/>
        <pt x="79" y="37" on="0"/>
        <pt x="46" y="64" on="0"/>
        <pt x="36" y="76" on="1"/>
        <pt x="36" y="182" on="1"/>
        <pt x="76" y="182" on="1"/>
        <pt x="76" y="92" on="1"/>
        <pt x="101" y="69" on="0"/>
        <pt x="170" y="36" on="0"/>
        <pt x="218" y="34" on="1"/>
        <pt x="218" y="357" on="1"/>
        <pt x="188" y="366" on="0"/>
        <pt x="132" y="389" on="0"/>
        <pt x="89" y="424" on="0"/>
        <pt x="61" y="477" on="0"/>
        <pt x="59" y="517" on="1"/>
        <pt x="57" y="548" on="0"/>
        <pt x="74" y="611" on="0"/>
        <pt x="113" y="663" on="0"/>
        <pt x="174" y="699" on="0"/>
        <pt x="218" y="702" on="1"/>
        <pt x="218" y="764" on="1"/>
        <pt x="259" y="764" on="1"/>
        <pt x="259" y="703" on="1"/>
        <pt x="291" y="701" on="0"/>
        <pt x="368" y="681" on="0"/>
        <pt x="401" y="654" on="1"/>
        <pt x="401" y="546" on="1"/>
      </contour>
      <contour>
        <pt x="412" y="184" on="1"/>
        <pt x="412" y="224" on="0"/>
        <pt x="386" y="278" on="0"/>
        <pt x="343" y="313" on="0"/>
        <pt x="288" y="335" on="0"/>
        <pt x="259" y="344" on="1"/>
        <pt x="259" y="34" on="1"/>
        <pt x="289" y="37" on="0"/>
        <pt x="345" y="60" on="0"/>
        <pt x="387" y="98" on="0"/>
        <pt x="412" y="151" on="0"/>
      </contour>
      <contour>
        <pt x="101" y="524" on="1"/>
        <pt x="101" y="495" on="0"/>
        <pt x="120" y="456" on="0"/>
        <pt x="152" y="428" on="0"/>
        <pt x="194" y="409" on="0"/>
        <pt x="218" y="401" on="1"/>
        <pt x="218" y="660" on="1"/>
        <pt x="189" y="657" on="0"/>
        <pt x="145" y="632" on="0"/>
        <pt x="116" y="595" on="0"/>
        <pt x="101" y="549" on="0"/>
      </contour>
    </TTGlyph>
    <TTGlyph name="dotlessi" xMin="35" yMin="0" xMax="228" yMax="375">
      <contour>
        <pt x="35" y="40" on="1"/>
        <pt x="112" y="40" on="1"/>
        <pt x="112" y="335" on="1"/>
        <pt x="35" y="335" on="1"/>
        <pt x="35" y="375" on="1"/>
        <pt x="154" y="375" on="1"/>
        <pt x="154" y="40" on="1"/>
        <pt x="228" y="40" on="1"/>
        <pt x="228" y="0" on="1"/>
        <pt x="35" y="0" on="1"/>
      </contour>
    </TTGlyph>
    <TTGlyph name="e" xMin="35" yMin="-7" xMax="403" yMax="383">
      <contour>
        <pt x="231" y="343" on="1"/>
        <pt x="194" y="343" on="0"/>
        <pt x="133" y="312" on="0"/>
        <pt x="91" y="261" on="0"/>
        <pt x="74" y="194" on="0"/>
        <pt x="81" y="159" on="1"/>
        <pt x="148" y="186" on="0"/>
        <pt x="282" y="239" on="0"/>
        <pt x="350" y="266" on="1"/>
        <pt x="333" y="300" on="0"/>
        <pt x="269" y="343" on="0"/>
      </contour>
      <contour>
        <pt x="403" y="243" on="1"/>
        <pt x="325" y="212" on="0"/>
        <pt x="171" y="151" on="0"/>
        <pt x="93" y="120" on="1"/>
        <pt x="110" y="82" on="0"/>
        <pt x="184" y="34" on="0"/>
        <pt x="231" y="34" on="1"/>
        <pt x="262" y="34" on="0"/>
        <pt x="316" y="56" on="0"/>
        <pt x="336" y="76" on="1"/>
        <pt x="343" y="68" on="0"/>
        <pt x="355" y="53" on="0"/>
        <pt x="362" y="45" on="1"/>
        <pt x="336" y="21" on="0"/>
        <pt x="270" y="-7" on="0"/>
        <pt x="231" y="-7" on="1"/>
        <pt x="190" y="-7" on="0"/>
        <pt x="119" y="24" on="0"/>
        <pt x="66" y="76" on="0"/>
        <pt x="35" y="147" on="0"/>
        <pt x="35" y="188" on="1"/>
        <pt x="35" y="228" on="0"/>
        <pt x="66" y="300" on="0"/>
        <pt x="119" y="352" on="0"/>
        <pt x="190" y="383" on="0"/>
        <pt x="231" y="383" on="1"/>
        <pt x="261" y="383" on="0"/>
        <pt x="315" y="362" on="0"/>
        <pt x="360" y="325" on="0"/>
        <pt x="394" y="274" on="0"/>
      </contour>
    </TTGlyph>
    <TTGlyph name="eacute" xMin="35" yMin="-7" xMax="403" yMax="612">
      <component glyphName="e" x="0" y="0" flags="0x204"/>
      <component glyphName="acute" x="127" y="0" flags="0x4"/>
    </TTGlyph>
    <TTGlyph name="ecircumflex" xMin="35" yMin="-7" xMax="403" yMax="660">
      <component glyphName="e" x="0" y="0" flags="0x204"/>
      <component glyphName="asciicircum" x="-2" y="0" flags="0x4"/>
    </TTGlyph>
    <TTGlyph name="edieresis" xMin="35" yMin="-7" xMax="403" yMax="541">
      <component glyphName="e" x="0" y="0" flags="0x204"/>
      <component glyphName="dieresis" x="48" y="0" flags="0x4"/>
    </TTGlyph>
    <TTGlyph name="egrave" xMin="35" yMin="-7" xMax="403" yMax="612">
      <component glyphName="e" x="0" y="0" flags="0x204"/>
      <component glyphName="grave" x="136" y="0" flags="0x4"/>
    </TTGlyph>
    <TTGlyph name="eight" xMin="46" yMin="-8" xMax="465" yMax="658">
      <contour>
        <pt x="145" y="506" on="1"/>
        <pt x="145" y="485" on="0"/>
        <pt x="162" y="448" on="0"/>
        <pt x="192" y="422" on="0"/>
        <pt x="231" y="407" on="0"/>
        <pt x="254" y="407" on="1"/>
        <pt x="300" y="407" on="0"/>
        <pt x="361" y="463" on="0"/>
        <pt x="361" y="506" on="1"/>
        <pt x="361" y="528" on="0"/>
        <pt x="345" y="568" on="0"/>
        <pt x="316" y="599" on="0"/>
        <pt x="277" y="617" on="0"/>
        <pt x="254" y="617" on="1"/>
        <pt x="231" y="617" on="0"/>
        <pt x="192" y="599" on="0"/>
        <pt x="162" y="568" on="0"/>
        <pt x="145" y="528" on="0"/>
      </contour>
      <contour>
        <pt x="89" y="201" on="1"/>
        <pt x="89" y="167" on="0"/>
        <pt x="114" y="106" on="0"/>
        <pt x="159" y="59" on="0"/>
        <pt x="218" y="32" on="0"/>
        <pt x="253" y="32" on="1"/>
        <pt x="288" y="32" on="0"/>
        <pt x="350" y="59" on="0"/>
        <pt x="396" y="106" on="0"/>
        <pt x="423" y="167" on="0"/>
        <pt x="423" y="201" on="1"/>
        <pt x="423" y="235" on="0"/>
        <pt x="396" y="294" on="0"/>
        <pt x="351" y="339" on="0"/>
        <pt x="289" y="366" on="0"/>
        <pt x="255" y="366" on="1"/>
        <pt x="220" y="366" on="0"/>
        <pt x="159" y="340" on="0"/>
        <pt x="114" y="295" on="0"/>
        <pt x="89" y="235" on="0"/>
      </contour>
      <contour>
        <pt x="46" y="201" on="1"/>
        <pt x="46" y="267" on="0"/>
        <pt x="120" y="368" on="0"/>
        <pt x="178" y="390" on="1"/>
        <pt x="144" y="406" on="0"/>
        <pt x="103" y="470" on="0"/>
        <pt x="103" y="510" on="1"/>
        <pt x="103" y="540" on="0"/>
        <pt x="126" y="594" on="0"/>
        <pt x="167" y="635" on="0"/>
        <pt x="221" y="658" on="0"/>
        <pt x="252" y="658" on="1"/>
        <pt x="283" y="658" on="0"/>
        <pt x="339" y="634" on="0"/>
        <pt x="379" y="593" on="0"/>
        <pt x="403" y="539" on="0"/>
        <pt x="403" y="508" on="1"/>
        <pt x="403" y="469" on="0"/>
        <pt x="362" y="407" on="0"/>
        <pt x="330" y="390" on="1"/>
        <pt x="359" y="379" on="0"/>
        <pt x="409" y="342" on="0"/>
        <pt x="445" y="293" on="0"/>
        <pt x="465" y="234" on="0"/>
        <pt x="465" y="201" on="1"/>
        <pt x="465" y="158" on="0"/>
        <pt x="431" y="82" on="0"/>
        <pt x="374" y="25" on="0"/>
        <pt x="297" y="-8" on="0"/>
        <pt x="254" y="-8" on="1"/>
        <pt x="211" y="-8" on="0"/>
        <pt x="136" y="25" on="0"/>
        <pt x="79" y="82" on="0"/>
        <pt x="46" y="158" on="0"/>
      </contour>
    </TTGlyph>
    <TTGlyph name="emdash" xMin="99" yMin="177" xMax="601" yMax="218">
      <contour>
        <pt x="99" y="177" on="1"/>
        <pt x="99" y="218" on="1"/>
        <pt x="601" y="218" on="1"/>
        <pt x="601" y="177" on="1"/>
      </contour>
    </TTGlyph>
    <TTGlyph name="endash" xMin="100" yMin="177" xMax="401" yMax="218">
      <contour>
        <pt x="100" y="177" on="1"/>
        <pt x="100" y="218" on="1"/>
        <pt x="401" y="218" on="1"/>
        <pt x="401" y="177" on="1"/>
      </contour>
    </TTGlyph>
    <TTGlyph name="equal" xMin="100" yMin="135" xMax="606" yMax="370">
      <contour>
        <pt x="606" y="176" on="1"/>
        <pt x="606" y="135" on="1"/>
        <pt x="100" y="135" on="1"/>
        <pt x="100" y="176" on="1"/>
      </contour>
      <contour>
        <pt x="606" y="370" on="1"/>
        <pt x="606" y="329" on="1"/>
        <pt x="100" y="329" on="1"/>
        <pt x="100" y="370" on="1"/>
      </contour>
    </TTGlyph>
    <TTGlyph name="eth" xMin="35" yMin="-6" xMax="429" yMax="731">
      <contour>
        <pt x="77" y="188" on="1"/>
        <pt x="77" y="156" on="0"/>
        <pt x="101" y="100" on="0"/>
        <pt x="143" y="58" on="0"/>
        <pt x="200" y="35" on="0"/>
        <pt x="233" y="35" on="1"/>
        <pt x="266" y="35" on="0"/>
        <pt x="323" y="60" on="0"/>
        <pt x="364" y="102" on="0"/>
        <pt x="387" y="158" on="0"/>
        <pt x="387" y="190" on="1"/>
        <pt x="387" y="223" on="0"/>
        <pt x="362" y="279" on="0"/>
        <pt x="320" y="321" on="0"/>
        <pt x="264" y="344" on="0"/>
        <pt x="231" y="344" on="1"/>
        <pt x="198" y="344" on="0"/>
        <pt x="141" y="319" on="0"/>
        <pt x="100" y="277" on="0"/>
        <pt x="77" y="220" on="0"/>
      </contour>
      <contour>
        <pt x="123" y="541" on="1"/>
        <pt x="140" y="559" on="0"/>
        <pt x="174" y="596" on="0"/>
        <pt x="191" y="614" on="1"/>
        <pt x="146" y="664" on="0"/>
        <pt x="98" y="703" on="1"/>
        <pt x="126" y="731" on="1"/>
        <pt x="174" y="693" on="0"/>
        <pt x="219" y="644" on="1"/>
        <pt x="234" y="661" on="0"/>
        <pt x="265" y="693" on="0"/>
        <pt x="279" y="710" on="1"/>
        <pt x="287" y="704" on="0"/>
        <pt x="300" y="692" on="0"/>
        <pt x="307" y="686" on="1"/>
        <pt x="291" y="668" on="0"/>
        <pt x="260" y="633" on="0"/>
        <pt x="243" y="615" on="1"/>
        <pt x="280" y="570" on="0"/>
        <pt x="348" y="465" on="0"/>
        <pt x="399" y="355" on="0"/>
        <pt x="429" y="244" on="0"/>
        <pt x="429" y="192" on="1"/>
        <pt x="429" y="151" on="0"/>
        <pt x="399" y="80" on="0"/>
        <pt x="347" y="26" on="0"/>
        <pt x="275" y="-5" on="0"/>
        <pt x="234" y="-6" on="1"/>
        <pt x="193" y="-6" on="0"/>
        <pt x="121" y="23" on="0"/>
        <pt x="67" y="76" on="0"/>
        <pt x="36" y="146" on="0"/>
        <pt x="35" y="187" on="1"/>
        <pt x="35" y="227" on="0"/>
        <pt x="64" y="299" on="0"/>
        <pt x="117" y="352" on="0"/>
        <pt x="188" y="384" on="0"/>
        <pt x="229" y="384" on="1"/>
        <pt x="267" y="385" on="0"/>
        <pt x="331" y="354" on="0"/>
        <pt x="353" y="328" on="1"/>
        <pt x="340" y="378" on="0"/>
        <pt x="274" y="511" on="0"/>
        <pt x="214" y="583" on="1"/>
        <pt x="198" y="566" on="0"/>
        <pt x="167" y="532" on="0"/>
        <pt x="151" y="515" on="1"/>
        <pt x="144" y="522" on="0"/>
        <pt x="130" y="534" on="0"/>
      </contour>
    </TTGlyph>
    <TTGlyph name="exclam" xMin="68" yMin="22" xMax="132" yMax="750">
      <contour>
        <pt x="100" y="22" on="1"/>
        <pt x="88" y="22" on="0"/>
        <pt x="68" y="41" on="0"/>
        <pt x="68" y="55" on="1"/>
        <pt x="68" y="69" on="0"/>
        <pt x="88" y="88" on="0"/>
        <pt x="100" y="88" on="1"/>
        <pt x="112" y="88" on="0"/>
        <pt x="132" y="69" on="0"/>
        <pt x="132" y="55" on="1"/>
        <pt x="132" y="41" on="0"/>
        <pt x="112" y="22" on="0"/>
      </contour>
      <contour>
        <pt x="79" y="750" on="1"/>
        <pt x="121" y="750" on="1"/>
        <pt x="121" y="166" on="1"/>
        <pt x="79" y="166" on="1"/>
      </contour>
    </TTGlyph>
    <TTGlyph name="exclamdown" xMin="68" yMin="-210" xMax="132" yMax="518">
      <component glyphName="exclam" x="0" y="540" scalex="1.0" scaley="-0.999877929688" flags="0x4"/>
    </TTGlyph>
    <TTGlyph name="f" xMin="35" yMin="0" xMax="303" yMax="750">
      <contour>
        <pt x="35" y="40" on="1"/>
        <pt x="96" y="40" on="1"/>
        <pt x="96" y="334" on="1"/>
        <pt x="35" y="334" on="1"/>
        <pt x="35" y="375" on="1"/>
        <pt x="96" y="375" on="1"/>
        <pt x="96" y="518" on="1"/>
        <pt x="96" y="573" on="0"/>
        <pt x="128" y="659" on="0"/>
        <pt x="184" y="717" on="0"/>
        <pt x="260" y="748" on="0"/>
        <pt x="303" y="750" on="1"/>
        <pt x="303" y="710" on="1"/>
        <pt x="269" y="709" on="0"/>
        <pt x="208" y="683" on="0"/>
        <pt x="163" y="633" on="0"/>
        <pt x="137" y="563" on="0"/>
        <pt x="137" y="519" on="1"/>
        <pt x="137" y="375" on="1"/>
        <pt x="262" y="375" on="1"/>
        <pt x="262" y="334" on="1"/>
        <pt x="137" y="334" on="1"/>
        <pt x="137" y="40" on="1"/>
        <pt x="228" y="40" on="1"/>
        <pt x="228" y="0" on="1"/>
        <pt x="35" y="0" on="1"/>
      </contour>
    </TTGlyph>
    <TTGlyph name="five" xMin="110" yMin="-8" xMax="465" yMax="650">
      <contour>
        <pt x="430" y="650" on="1"/>
        <pt x="430" y="549" on="1"/>
        <pt x="390" y="549" on="1"/>
        <pt x="390" y="609" on="1"/>
        <pt x="185" y="609" on="1"/>
        <pt x="185" y="392" on="1"/>
        <pt x="201" y="399" on="0"/>
        <pt x="236" y="407" on="0"/>
        <pt x="254" y="407" on="1"/>
        <pt x="297" y="407" on="0"/>
        <pt x="374" y="375" on="0"/>
        <pt x="431" y="319" on="0"/>
        <pt x="465" y="244" on="0"/>
        <pt x="465" y="201" on="1"/>
        <pt x="465" y="158" on="0"/>
        <pt x="431" y="82" on="0"/>
        <pt x="374" y="25" on="0"/>
        <pt x="297" y="-8" on="0"/>
        <pt x="254" y="-8" on="1"/>
        <pt x="212" y="-8" on="0"/>
        <pt x="139" y="23" on="0"/>
        <pt x="110" y="50" on="1"/>
        <pt x="141" y="78" on="1"/>
        <pt x="163" y="57" on="0"/>
        <pt x="220" y="33" on="0"/>
        <pt x="253" y="33" on="1"/>
        <pt x="288" y="33" on="0"/>
        <pt x="350" y="60" on="0"/>
        <pt x="396" y="106" on="0"/>
        <pt x="423" y="167" on="0"/>
        <pt x="423" y="201" on="1"/>
        <pt x="423" y="235" on="0"/>
        <pt x="396" y="295" on="0"/>
        <pt x="350" y="340" on="0"/>
        <pt x="288" y="366" on="0"/>
        <pt x="253" y="366" on="1"/>
        <pt x="218" y="366" on="0"/>
        <pt x="160" y="342" on="0"/>
        <pt x="143" y="321" on="1"/>
        <pt x="143" y="650" on="1"/>
      </contour>
    </TTGlyph>
    <TTGlyph name="four" xMin="37" yMin="0" xMax="500" yMax="658">
      <contour>
        <pt x="285" y="40" on="1"/>
        <pt x="361" y="40" on="1"/>
        <pt x="361" y="183" on="1"/>
        <pt x="37" y="183" on="1"/>
        <pt x="403" y="658" on="1"/>
        <pt x="403" y="224" on="1"/>
        <pt x="500" y="224" on="1"/>
        <pt x="500" y="183" on="1"/>
        <pt x="403" y="183" on="1"/>
        <pt x="403" y="40" on="1"/>
        <pt x="486" y="40" on="1"/>
        <pt x="486" y="0" on="1"/>
        <pt x="285" y="0" on="1"/>
      </contour>
      <contour>
        <pt x="361" y="535" on="1"/>
        <pt x="122" y="224" on="1"/>
        <pt x="361" y="224" on="1"/>
      </contour>
    </TTGlyph>
    <TTGlyph name="g" xMin="35" yMin="-250" xMax="504" yMax="383">
      <contour>
        <pt x="395" y="375" on="1"/>
        <pt x="504" y="375" on="1"/>
        <pt x="504" y="335" on="1"/>
        <pt x="429" y="335" on="1"/>
        <pt x="429" y="-35" on="1"/>
        <pt x="429" y="-84" on="0"/>
        <pt x="399" y="-163" on="0"/>
        <pt x="347" y="-219" on="0"/>
        <pt x="278" y="-249" on="0"/>
        <pt x="238" y="-250" on="1"/>
        <pt x="196" y="-249" on="0"/>
        <pt x="111" y="-219" on="0"/>
        <pt x="84" y="-190" on="1"/>
        <pt x="114" y="-159" on="1"/>
        <pt x="136" y="-183" on="0"/>
        <pt x="204" y="-207" on="0"/>
        <pt x="237" y="-207" on="1"/>
        <pt x="268" y="-207" on="0"/>
        <pt x="323" y="-182" on="0"/>
        <pt x="363" y="-136" on="0"/>
        <pt x="387" y="-71" on="0"/>
        <pt x="387" y="-32" on="1"/>
        <pt x="387" y="40" on="1"/>
        <pt x="388" y="51" on="0"/>
        <pt x="390" y="74" on="0"/>
        <pt x="391" y="85" on="1"/>
        <pt x="383" y="67" on="0"/>
        <pt x="354" y="34" on="0"/>
        <pt x="313" y="9" on="0"/>
        <pt x="261" y="-7" on="0"/>
        <pt x="232" y="-7" on="1"/>
        <pt x="191" y="-7" on="0"/>
        <pt x="119" y="24" on="0"/>
        <pt x="66" y="76" on="0"/>
        <pt x="35" y="147" on="0"/>
        <pt x="35" y="188" on="1"/>
        <pt x="35" y="228" on="0"/>
        <pt x="66" y="299" on="0"/>
        <pt x="119" y="352" on="0"/>
        <pt x="191" y="383" on="0"/>
        <pt x="232" y="383" on="1"/>
        <pt x="261" y="383" on="0"/>
        <pt x="313" y="366" on="0"/>
        <pt x="355" y="339" on="0"/>
        <pt x="384" y="304" on="0"/>
        <pt x="391" y="287" on="1"/>
        <pt x="391" y="309" on="0"/>
        <pt x="394" y="353" on="0"/>
      </contour>
      <contour>
        <pt x="77" y="188" on="1"/>
        <pt x="77" y="156" on="0"/>
        <pt x="101" y="100" on="0"/>
        <pt x="142" y="58" on="0"/>
        <pt x="199" y="34" on="0"/>
        <pt x="232" y="34" on="1"/>
        <pt x="265" y="34" on="0"/>
        <pt x="321" y="58" on="0"/>
        <pt x="363" y="100" on="0"/>
        <pt x="387" y="156" on="0"/>
        <pt x="387" y="188" on="1"/>
        <pt x="387" y="220" on="0"/>
        <pt x="363" y="277" on="0"/>
        <pt x="321" y="319" on="0"/>
        <pt x="265" y="343" on="0"/>
        <pt x="232" y="343" on="1"/>
        <pt x="199" y="343" on="0"/>
        <pt x="142" y="319" on="0"/>
        <pt x="101" y="277" on="0"/>
        <pt x="77" y="220" on="0"/>
      </contour>
    </TTGlyph>
    <TTGlyph name="germandbls" xMin="35" yMin="-8" xMax="514" yMax="658">
      <contour>
        <pt x="35" y="40" on="1"/>
        <pt x="109" y="40" on="1"/>
        <pt x="109" y="356" on="1"/>
        <pt x="46" y="356" on="1"/>
        <pt x="46" y="396" on="1"/>
        <pt x="109" y="396" on="1"/>
        <pt x="109" y="425" on="1"/>
        <pt x="109" y="480" on="0"/>
        <pt x="140" y="566" on="0"/>
        <pt x="194" y="625" on="0"/>
        <pt x="265" y="657" on="0"/>
        <pt x="304" y="658" on="1"/>
        <pt x="335" y="657" on="0"/>
        <pt x="389" y="633" on="0"/>
        <pt x="429" y="592" on="0"/>
        <pt x="452" y="538" on="0"/>
        <pt x="452" y="507" on="1"/>
        <pt x="452" y="469" on="0"/>
        <pt x="411" y="406" on="0"/>
        <pt x="379" y="389" on="1"/>
        <pt x="408" y="379" on="0"/>
        <pt x="458" y="342" on="0"/>
        <pt x="494" y="293" on="0"/>
        <pt x="514" y="233" on="0"/>
        <pt x="514" y="200" on="1"/>
        <pt x="514" y="157" on="0"/>
        <pt x="480" y="81" on="0"/>
        <pt x="423" y="25" on="0"/>
        <pt x="346" y="-8" on="0"/>
        <pt x="303" y="-8" on="1"/>
        <pt x="250" y="-8" on="0"/>
        <pt x="205" y="17" on="1"/>
        <pt x="222" y="53" on="1"/>
        <pt x="258" y="32" on="0"/>
        <pt x="302" y="32" on="1"/>
        <pt x="337" y="32" on="0"/>
        <pt x="399" y="59" on="0"/>
        <pt x="445" y="105" on="0"/>
        <pt x="472" y="166" on="0"/>
        <pt x="472" y="200" on="1"/>
        <pt x="472" y="234" on="0"/>
        <pt x="445" y="294" on="0"/>
        <pt x="399" y="339" on="0"/>
        <pt x="337" y="365" on="0"/>
        <pt x="303" y="365" on="1"/>
        <pt x="303" y="386" on="1"/>
        <pt x="303" y="407" on="1"/>
        <pt x="348" y="407" on="0"/>
        <pt x="410" y="461" on="0"/>
        <pt x="410" y="505" on="1"/>
        <pt x="410" y="527" on="0"/>
        <pt x="394" y="567" on="0"/>
        <pt x="366" y="599" on="0"/>
        <pt x="327" y="617" on="0"/>
        <pt x="304" y="617" on="1"/>
        <pt x="272" y="617" on="0"/>
        <pt x="216" y="590" on="0"/>
        <pt x="174" y="540" on="0"/>
        <pt x="150" y="469" on="0"/>
        <pt x="150" y="425" on="1"/>
        <pt x="150" y="0" on="1"/>
        <pt x="35" y="0" on="1"/>
      </contour>
    </TTGlyph>
    <TTGlyph name="grave" xMin="-29" yMin="479" xMax="104" yMax="612">
      <contour>
        <pt x="14" y="612" on="1"/>
        <pt x="37" y="579" on="0"/>
        <pt x="81" y="512" on="0"/>
        <pt x="104" y="479" on="1"/>
        <pt x="71" y="479" on="1"/>
        <pt x="46" y="512" on="0"/>
        <pt x="-4" y="579" on="0"/>
        <pt x="-29" y="612" on="1"/>
      </contour>
    </TTGlyph>
    <TTGlyph name="greater" xMin="115" yMin="-15" xMax="553" yMax="491">
      <contour>
        <pt x="115" y="-15" on="1"/>
        <pt x="115" y="40" on="1"/>
        <pt x="202" y="90" on="0"/>
        <pt x="373" y="188" on="0"/>
        <pt x="459" y="238" on="1"/>
        <pt x="373" y="288" on="0"/>
        <pt x="202" y="386" on="0"/>
        <pt x="115" y="436" on="1"/>
        <pt x="115" y="491" on="1"/>
        <pt x="225" y="428" on="0"/>
        <pt x="443" y="301" on="0"/>
        <pt x="553" y="238" on="1"/>
        <pt x="443" y="175" on="0"/>
        <pt x="225" y="48" on="0"/>
      </contour>
    </TTGlyph>
    <TTGlyph name="guillemotleft" xMin="117" yMin="77" xMax="459" yMax="400">
      <contour>
        <pt x="459" y="77" on="1"/>
        <pt x="288" y="239" on="1"/>
        <pt x="331" y="280" on="0"/>
        <pt x="416" y="359" on="0"/>
        <pt x="459" y="400" on="1"/>
        <pt x="459" y="352" on="1"/>
        <pt x="431" y="324" on="0"/>
        <pt x="376" y="268" on="0"/>
        <pt x="348" y="239" on="1"/>
        <pt x="459" y="125" on="1"/>
      </contour>
      <contour>
        <pt x="288" y="77" on="1"/>
        <pt x="117" y="239" on="1"/>
        <pt x="160" y="280" on="0"/>
        <pt x="245" y="359" on="0"/>
        <pt x="288" y="400" on="1"/>
        <pt x="288" y="352" on="1"/>
        <pt x="260" y="323" on="0"/>
        <pt x="205" y="268" on="0"/>
        <pt x="177" y="239" on="1"/>
        <pt x="288" y="125" on="1"/>
      </contour>
    </TTGlyph>
    <TTGlyph name="guillemotright" xMin="117" yMin="77" xMax="459" yMax="400">
      <contour>
        <pt x="117" y="125" on="1"/>
        <pt x="228" y="239" on="1"/>
        <pt x="200" y="268" on="0"/>
        <pt x="145" y="324" on="0"/>
        <pt x="117" y="352" on="1"/>
        <pt x="117" y="400" on="1"/>
        <pt x="160" y="359" on="0"/>
        <pt x="245" y="280" on="0"/>
        <pt x="288" y="239" on="1"/>
        <pt x="117" y="77" on="1"/>
      </contour>
      <contour>
        <pt x="288" y="125" on="1"/>
        <pt x="399" y="239" on="1"/>
        <pt x="371" y="268" on="0"/>
        <pt x="316" y="323" on="0"/>
        <pt x="288" y="352" on="1"/>
        <pt x="288" y="400" on="1"/>
        <pt x="331" y="359" on="0"/>
        <pt x="416" y="280" on="0"/>
        <pt x="459" y="239" on="1"/>
        <pt x="288" y="77" on="1"/>
      </contour>
    </TTGlyph>
    <TTGlyph name="guilsinglleft" xMin="117" yMin="77" xMax="288" yMax="400">
      <contour>
        <pt x="288" y="77" on="1"/>
        <pt x="117" y="239" on="1"/>
        <pt x="160" y="280" on="0"/>
        <pt x="245" y="359" on="0"/>
        <pt x="288" y="400" on="1"/>
        <pt x="288" y="352" on="1"/>
        <pt x="260" y="323" on="0"/>
        <pt x="205" y="268" on="0"/>
        <pt x="177" y="239" on="1"/>
        <pt x="288" y="125" on="1"/>
      </contour>
    </TTGlyph>
    <TTGlyph name="guilsinglright" xMin="117" yMin="77" xMax="288" yMax="400">
      <contour>
        <pt x="117" y="125" on="1"/>
        <pt x="228" y="239" on="1"/>
        <pt x="200" y="268" on="0"/>
        <pt x="145" y="323" on="0"/>
        <pt x="117" y="352" on="1"/>
        <pt x="117" y="400" on="1"/>
        <pt x="160" y="359" on="0"/>
        <pt x="245" y="280" on="0"/>
        <pt x="288" y="239" on="1"/>
        <pt x="117" y="77" on="1"/>
      </contour>
    </TTGlyph>
    <TTGlyph name="h" xMin="35" yMin="0" xMax="510" yMax="750">
      <contour>
        <pt x="317" y="40" on="1"/>
        <pt x="395" y="40" on="1"/>
        <pt x="395" y="260" on="1"/>
        <pt x="393" y="292" on="0"/>
        <pt x="350" y="340" on="0"/>
        <pt x="308" y="342" on="1"/>
        <pt x="278" y="342" on="0"/>
        <pt x="222" y="321" on="0"/>
        <pt x="179" y="285" on="0"/>
        <pt x="154" y="235" on="0"/>
        <pt x="154" y="205" on="1"/>
        <pt x="154" y="40" on="1"/>
        <pt x="228" y="40" on="1"/>
        <pt x="228" y="0" on="1"/>
        <pt x="35" y="0" on="1"/>
        <pt x="35" y="40" on="1"/>
        <pt x="113" y="40" on="1"/>
        <pt x="113" y="710" on="1"/>
        <pt x="39" y="710" on="1"/>
        <pt x="39" y="750" on="1"/>
        <pt x="154" y="750" on="1"/>
        <pt x="154" y="323" on="1"/>
        <pt x="151" y="278" on="1"/>
        <pt x="172" y="326" on="0"/>
        <pt x="259" y="381" on="0"/>
        <pt x="316" y="383" on="1"/>
        <pt x="371" y="383" on="0"/>
        <pt x="435" y="321" on="0"/>
        <pt x="437" y="271" on="1"/>
        <pt x="437" y="40" on="1"/>
        <pt x="510" y="40" on="1"/>
        <pt x="510" y="0" on="1"/>
        <pt x="317" y="0" on="1"/>
      </contour>
    </TTGlyph>
    <TTGlyph name="hyphen" xMin="53" yMin="169" xMax="237" yMax="210">
      <contour>
        <pt x="53" y="169" on="1"/>
        <pt x="53" y="210" on="1"/>
        <pt x="237" y="210" on="1"/>
        <pt x="237" y="169" on="1"/>
      </contour>
    </TTGlyph>
    <TTGlyph name="i" xMin="35" yMin="0" xMax="228" yMax="541">
      <contour>
        <pt x="35" y="40" on="1"/>
        <pt x="112" y="40" on="1"/>
        <pt x="112" y="335" on="1"/>
        <pt x="35" y="335" on="1"/>
        <pt x="35" y="375" on="1"/>
        <pt x="154" y="375" on="1"/>
        <pt x="154" y="40" on="1"/>
        <pt x="228" y="40" on="1"/>
        <pt x="228" y="0" on="1"/>
        <pt x="35" y="0" on="1"/>
      </contour>
      <contour>
        <pt x="101" y="508" on="1"/>
        <pt x="101" y="522" on="0"/>
        <pt x="121" y="541" on="0"/>
        <pt x="134" y="541" on="1"/>
        <pt x="146" y="541" on="0"/>
        <pt x="166" y="522" on="0"/>
        <pt x="166" y="508" on="1"/>
        <pt x="166" y="494" on="0"/>
        <pt x="146" y="475" on="0"/>
        <pt x="134" y="475" on="1"/>
        <pt x="121" y="475" on="0"/>
        <pt x="101" y="494" on="0"/>
      </contour>
    </TTGlyph>
    <TTGlyph name="iacute" xMin="35" yMin="0" xMax="251" yMax="612">
      <component glyphName="dotlessi" x="0" y="0" flags="0x204"/>
      <component glyphName="acute" x="18" y="0" flags="0x4"/>
    </TTGlyph>
    <TTGlyph name="icircumflex" xMin="14" yMin="0" xMax="254" yMax="660">
      <component glyphName="dotlessi" x="0" y="0" flags="0x204"/>
      <component glyphName="asciicircum" x="-98" y="0" flags="0x4"/>
    </TTGlyph>
    <TTGlyph name="idieresis" xMin="19" yMin="0" xMax="249" yMax="541">
      <component glyphName="dotlessi" x="0" y="0" flags="0x204"/>
      <component glyphName="dieresis" x="-50" y="0" flags="0x4"/>
    </TTGlyph>
    <TTGlyph name="igrave" xMin="14" yMin="0" xMax="228" yMax="612">
      <component glyphName="dotlessi" x="0" y="0" flags="0x204"/>
      <component glyphName="grave" x="43" y="0" flags="0x4"/>
    </TTGlyph>
    <TTGlyph name="j" xMin="35" yMin="-180" xMax="162" yMax="541">
      <contour>
        <pt x="35" y="375" on="1"/>
        <pt x="149" y="375" on="1"/>
        <pt x="149" y="-4" on="1"/>
        <pt x="149" y="-63" on="0"/>
        <pt x="114" y="-151" on="0"/>
        <pt x="83" y="-180" on="1"/>
        <pt x="53" y="-150" on="1"/>
        <pt x="79" y="-125" on="0"/>
        <pt x="108" y="-53" on="0"/>
        <pt x="108" y="-5" on="1"/>
        <pt x="108" y="335" on="1"/>
        <pt x="35" y="335" on="1"/>
      </contour>
      <contour>
        <pt x="97" y="508" on="1"/>
        <pt x="97" y="522" on="0"/>
        <pt x="117" y="541" on="0"/>
        <pt x="130" y="541" on="1"/>
        <pt x="143" y="541" on="0"/>
        <pt x="162" y="522" on="0"/>
        <pt x="162" y="508" on="1"/>
        <pt x="162" y="494" on="0"/>
        <pt x="143" y="475" on="0"/>
        <pt x="130" y="475" on="1"/>
        <pt x="117" y="475" on="0"/>
        <pt x="97" y="494" on="0"/>
      </contour>
    </TTGlyph>
    <TTGlyph name="k" xMin="35" yMin="0" xMax="468" yMax="750">
      <contour>
        <pt x="283" y="40" on="1"/>
        <pt x="331" y="40" on="1"/>
        <pt x="302" y="80" on="0"/>
        <pt x="243" y="159" on="0"/>
        <pt x="214" y="199" on="1"/>
        <pt x="150" y="139" on="1"/>
        <pt x="150" y="40" on="1"/>
        <pt x="228" y="40" on="1"/>
        <pt x="228" y="0" on="1"/>
        <pt x="35" y="0" on="1"/>
        <pt x="35" y="40" on="1"/>
        <pt x="109" y="40" on="1"/>
        <pt x="109" y="710" on="1"/>
        <pt x="38" y="710" on="1"/>
        <pt x="38" y="750" on="1"/>
        <pt x="150" y="750" on="1"/>
        <pt x="150" y="190" on="1"/>
        <pt x="305" y="335" on="1"/>
        <pt x="245" y="335" on="1"/>
        <pt x="245" y="375" on="1"/>
        <pt x="430" y="375" on="1"/>
        <pt x="430" y="335" on="1"/>
        <pt x="358" y="335" on="1"/>
        <pt x="327" y="306" on="0"/>
        <pt x="276" y="256" on="0"/>
        <pt x="245" y="227" on="1"/>
        <pt x="278" y="179" on="0"/>
        <pt x="346" y="87" on="0"/>
        <pt x="381" y="40" on="1"/>
        <pt x="468" y="40" on="1"/>
        <pt x="468" y="0" on="1"/>
        <pt x="283" y="0" on="1"/>
      </contour>
    </TTGlyph>
    <TTGlyph name="l" xMin="35" yMin="0" xMax="228" yMax="750">
      <contour>
        <pt x="35" y="40" on="1"/>
        <pt x="109" y="40" on="1"/>
        <pt x="109" y="710" on="1"/>
        <pt x="38" y="710" on="1"/>
        <pt x="38" y="750" on="1"/>
        <pt x="150" y="750" on="1"/>
        <pt x="150" y="40" on="1"/>
        <pt x="228" y="40" on="1"/>
        <pt x="228" y="0" on="1"/>
        <pt x="35" y="0" on="1"/>
      </contour>
    </TTGlyph>
    <TTGlyph name="less" xMin="115" yMin="-15" xMax="553" yMax="491">
      <contour>
        <pt x="553" y="40" on="1"/>
        <pt x="553" y="-15" on="1"/>
        <pt x="443" y="48" on="0"/>
        <pt x="225" y="175" on="0"/>
        <pt x="115" y="238" on="1"/>
        <pt x="225" y="301" on="0"/>
        <pt x="443" y="428" on="0"/>
        <pt x="553" y="491" on="1"/>
        <pt x="553" y="436" on="1"/>
        <pt x="467" y="386" on="0"/>
        <pt x="296" y="288" on="0"/>
        <pt x="209" y="238" on="1"/>
        <pt x="296" y="188" on="0"/>
        <pt x="467" y="90" on="0"/>
      </contour>
    </TTGlyph>
    <TTGlyph name="logicalnot" xMin="100" yMin="148" xMax="460" yMax="244">
      <contour>
        <pt x="418" y="148" on="1"/>
        <pt x="418" y="211" on="1"/>
        <pt x="100" y="211" on="1"/>
        <pt x="100" y="244" on="1"/>
        <pt x="460" y="244" on="1"/>
        <pt x="460" y="148" on="1"/>
      </contour>
    </TTGlyph>
    <TTGlyph name="m" xMin="35" yMin="0" xMax="793" yMax="383">
      <contour>
        <pt x="600" y="40" on="1"/>
        <pt x="678" y="40" on="1"/>
        <pt x="678" y="260" on="1"/>
        <pt x="676" y="292" on="0"/>
        <pt x="633" y="340" on="0"/>
        <pt x="591" y="342" on="1"/>
        <pt x="561" y="342" on="0"/>
        <pt x="505" y="322" on="0"/>
        <pt x="463" y="286" on="0"/>
        <pt x="438" y="237" on="0"/>
        <pt x="437" y="208" on="1"/>
        <pt x="437" y="40" on="1"/>
        <pt x="511" y="40" on="1"/>
        <pt x="511" y="0" on="1"/>
        <pt x="317" y="0" on="1"/>
        <pt x="317" y="40" on="1"/>
        <pt x="395" y="40" on="1"/>
        <pt x="395" y="260" on="1"/>
        <pt x="393" y="292" on="0"/>
        <pt x="350" y="340" on="0"/>
        <pt x="308" y="342" on="1"/>
        <pt x="278" y="342" on="0"/>
        <pt x="222" y="321" on="0"/>
        <pt x="179" y="285" on="0"/>
        <pt x="154" y="235" on="0"/>
        <pt x="154" y="205" on="1"/>
        <pt x="154" y="40" on="1"/>
        <pt x="228" y="40" on="1"/>
        <pt x="228" y="0" on="1"/>
        <pt x="35" y="0" on="1"/>
        <pt x="35" y="40" on="1"/>
        <pt x="113" y="40" on="1"/>
        <pt x="113" y="335" on="1"/>
        <pt x="41" y="335" on="1"/>
        <pt x="41" y="375" on="1"/>
        <pt x="147" y="375" on="1"/>
        <pt x="148" y="340" on="1"/>
        <pt x="149" y="323" on="0"/>
        <pt x="151" y="295" on="0"/>
        <pt x="151" y="278" on="1"/>
        <pt x="172" y="326" on="0"/>
        <pt x="259" y="382" on="0"/>
        <pt x="316" y="383" on="1"/>
        <pt x="367" y="383" on="0"/>
        <pt x="430" y="328" on="0"/>
        <pt x="436" y="283" on="1"/>
        <pt x="457" y="328" on="0"/>
        <pt x="543" y="382" on="0"/>
        <pt x="598" y="383" on="1"/>
        <pt x="653" y="383" on="0"/>
        <pt x="717" y="321" on="0"/>
        <pt x="719" y="271" on="1"/>
        <pt x="719" y="40" on="1"/>
        <pt x="793" y="40" on="1"/>
        <pt x="793" y="0" on="1"/>
        <pt x="600" y="0" on="1"/>
      </contour>
    </TTGlyph>
    <TTGlyph name="macron" xMin="85" yMin="486" xMax="315" yMax="516">
      <contour>
        <pt x="85" y="486" on="1"/>
        <pt x="85" y="516" on="1"/>
        <pt x="315" y="516" on="1"/>
        <pt x="315" y="486" on="1"/>
      </contour>
    </TTGlyph>
    <TTGlyph name="mu" xMin="29" yMin="-201" xMax="498" yMax="375">
      <contour>
        <pt x="312" y="375" on="1"/>
        <pt x="427" y="375" on="1"/>
        <pt x="427" y="36" on="1"/>
        <pt x="498" y="36" on="1"/>
        <pt x="498" y="0" on="1"/>
        <pt x="390" y="0" on="1"/>
        <pt x="388" y="52" on="1"/>
        <pt x="388" y="97" on="1"/>
        <pt x="368" y="49" on="0"/>
        <pt x="279" y="-8" on="0"/>
        <pt x="224" y="-8" on="1"/>
        <pt x="198" y="-8" on="0"/>
        <pt x="157" y="11" on="0"/>
        <pt x="145" y="28" on="1"/>
        <pt x="145" y="-201" on="1"/>
        <pt x="103" y="-201" on="1"/>
        <pt x="103" y="335" on="1"/>
        <pt x="29" y="335" on="1"/>
        <pt x="29" y="375" on="1"/>
        <pt x="145" y="375" on="1"/>
        <pt x="145" y="115" on="1"/>
        <pt x="147" y="83" on="0"/>
        <pt x="190" y="35" on="0"/>
        <pt x="232" y="33" on="1"/>
        <pt x="262" y="33" on="0"/>
        <pt x="318" y="54" on="0"/>
        <pt x="360" y="90" on="0"/>
        <pt x="385" y="140" on="0"/>
        <pt x="385" y="170" on="1"/>
        <pt x="385" y="335" on="1"/>
        <pt x="312" y="335" on="1"/>
      </contour>
    </TTGlyph>
    <TTGlyph name="multiply" xMin="122" yMin="0" xMax="406" yMax="284">
      <contour>
        <pt x="377" y="0" on="1"/>
        <pt x="348" y="29" on="0"/>
        <pt x="292" y="84" on="0"/>
        <pt x="263" y="113" on="1"/>
        <pt x="235" y="85" on="0"/>
        <pt x="180" y="29" on="0"/>
        <pt x="151" y="0" on="1"/>
        <pt x="144" y="8" on="0"/>
        <pt x="129" y="22" on="0"/>
        <pt x="122" y="29" on="1"/>
        <pt x="151" y="58" on="0"/>
        <pt x="206" y="113" on="0"/>
        <pt x="234" y="142" on="1"/>
        <pt x="122" y="254" on="1"/>
        <pt x="152" y="284" on="1"/>
        <pt x="264" y="172" on="1"/>
        <pt x="293" y="201" on="0"/>
        <pt x="348" y="255" on="0"/>
        <pt x="377" y="284" on="1"/>
        <pt x="384" y="277" on="0"/>
        <pt x="398" y="262" on="0"/>
        <pt x="406" y="255" on="1"/>
        <pt x="377" y="227" on="0"/>
        <pt x="322" y="171" on="0"/>
        <pt x="293" y="143" on="1"/>
        <pt x="322" y="114" on="0"/>
        <pt x="377" y="58" on="0"/>
        <pt x="406" y="30" on="1"/>
      </contour>
    </TTGlyph>
    <TTGlyph name="n" xMin="35" yMin="0" xMax="510" yMax="383">
      <contour>
        <pt x="317" y="40" on="1"/>
        <pt x="395" y="40" on="1"/>
        <pt x="395" y="260" on="1"/>
        <pt x="393" y="292" on="0"/>
        <pt x="350" y="340" on="0"/>
        <pt x="308" y="342" on="1"/>
        <pt x="278" y="342" on="0"/>
        <pt x="222" y="321" on="0"/>
        <pt x="179" y="285" on="0"/>
        <pt x="154" y="235" on="0"/>
        <pt x="154" y="205" on="1"/>
        <pt x="154" y="40" on="1"/>
        <pt x="228" y="40" on="1"/>
        <pt x="228" y="0" on="1"/>
        <pt x="35" y="0" on="1"/>
        <pt x="35" y="40" on="1"/>
        <pt x="113" y="40" on="1"/>
        <pt x="113" y="335" on="1"/>
        <pt x="41" y="335" on="1"/>
        <pt x="41" y="375" on="1"/>
        <pt x="147" y="375" on="1"/>
        <pt x="148" y="340" on="1"/>
        <pt x="149" y="323" on="0"/>
        <pt x="151" y="295" on="0"/>
        <pt x="151" y="278" on="1"/>
        <pt x="171" y="325" on="0"/>
        <pt x="260" y="383" on="0"/>
        <pt x="316" y="383" on="1"/>
        <pt x="371" y="383" on="0"/>
        <pt x="435" y="321" on="0"/>
        <pt x="437" y="271" on="1"/>
        <pt x="437" y="40" on="1"/>
        <pt x="510" y="40" on="1"/>
        <pt x="510" y="0" on="1"/>
        <pt x="317" y="0" on="1"/>
      </contour>
    </TTGlyph>
    <TTGlyph name="nine" xMin="43" yMin="-8" xMax="463" yMax="634">
      <contour>
        <pt x="420" y="427" on="1"/>
        <pt x="420" y="461" on="0"/>
        <pt x="394" y="522" on="0"/>
        <pt x="349" y="567" on="0"/>
        <pt x="288" y="593" on="0"/>
        <pt x="254" y="593" on="1"/>
        <pt x="219" y="593" on="0"/>
        <pt x="158" y="567" on="0"/>
        <pt x="112" y="522" on="0"/>
        <pt x="85" y="461" on="0"/>
        <pt x="85" y="427" on="1"/>
        <pt x="85" y="392" on="0"/>
        <pt x="112" y="332" on="0"/>
        <pt x="158" y="286" on="0"/>
        <pt x="219" y="260" on="0"/>
        <pt x="254" y="260" on="1"/>
        <pt x="288" y="260" on="0"/>
        <pt x="349" y="286" on="0"/>
        <pt x="394" y="332" on="0"/>
        <pt x="420" y="392" on="0"/>
      </contour>
      <contour>
        <pt x="463" y="427" on="1"/>
        <pt x="463" y="356" on="0"/>
        <pt x="401" y="232" on="0"/>
        <pt x="304" y="124" on="0"/>
        <pt x="186" y="32" on="0"/>
        <pt x="131" y="-8" on="1"/>
        <pt x="124" y="0" on="0"/>
        <pt x="111" y="17" on="0"/>
        <pt x="104" y="25" on="1"/>
        <pt x="210" y="96" on="0"/>
        <pt x="333" y="222" on="0"/>
        <pt x="360" y="269" on="1"/>
        <pt x="341" y="246" on="0"/>
        <pt x="285" y="220" on="0"/>
        <pt x="253" y="220" on="1"/>
        <pt x="210" y="220" on="0"/>
        <pt x="133" y="252" on="0"/>
        <pt x="76" y="308" on="0"/>
        <pt x="43" y="384" on="0"/>
        <pt x="43" y="427" on="1"/>
        <pt x="43" y="470" on="0"/>
        <pt x="76" y="545" on="0"/>
        <pt x="133" y="601" on="0"/>
        <pt x="210" y="634" on="0"/>
        <pt x="253" y="634" on="1"/>
        <pt x="296" y="634" on="0"/>
        <pt x="373" y="601" on="0"/>
        <pt x="430" y="545" on="0"/>
        <pt x="463" y="470" on="0"/>
      </contour>
    </TTGlyph>
    <TTGlyph name="ntilde" xMin="35" yMin="0" xMax="510" yMax="537">
      <component glyphName="n" x="0" y="0" flags="0x204"/>
      <component glyphName="asciitilde" x="1" y="-8" flags="0x4"/>
    </TTGlyph>
    <TTGlyph name="numbersign" xMin="27" yMin="0" xMax="510" yMax="643">
      <contour>
        <pt x="198" y="393" on="1"/>
        <pt x="194" y="357" on="0"/>
        <pt x="186" y="286" on="0"/>
        <pt x="182" y="251" on="1"/>
        <pt x="324" y="251" on="1"/>
        <pt x="328" y="286" on="0"/>
        <pt x="336" y="357" on="0"/>
        <pt x="340" y="393" on="1"/>
      </contour>
      <contour>
        <pt x="294" y="0" on="1"/>
        <pt x="318" y="210" on="1"/>
        <pt x="176" y="210" on="1"/>
        <pt x="152" y="0" on="1"/>
        <pt x="110" y="0" on="1"/>
        <pt x="134" y="210" on="1"/>
        <pt x="27" y="210" on="1"/>
        <pt x="29" y="221" on="0"/>
        <pt x="31" y="240" on="0"/>
        <pt x="32" y="251" on="1"/>
        <pt x="140" y="251" on="1"/>
        <pt x="144" y="286" on="0"/>
        <pt x="152" y="357" on="0"/>
        <pt x="156" y="393" on="1"/>
        <pt x="50" y="393" on="1"/>
        <pt x="52" y="403" on="0"/>
        <pt x="53" y="423" on="0"/>
        <pt x="54" y="433" on="1"/>
        <pt x="161" y="433" on="1"/>
        <pt x="168" y="486" on="0"/>
        <pt x="180" y="590" on="0"/>
        <pt x="187" y="643" on="1"/>
        <pt x="229" y="643" on="1"/>
        <pt x="222" y="590" on="0"/>
        <pt x="210" y="486" on="0"/>
        <pt x="203" y="433" on="1"/>
        <pt x="345" y="433" on="1"/>
        <pt x="352" y="486" on="0"/>
        <pt x="364" y="590" on="0"/>
        <pt x="371" y="643" on="1"/>
        <pt x="413" y="643" on="1"/>
        <pt x="406" y="590" on="0"/>
        <pt x="394" y="486" on="0"/>
        <pt x="387" y="433" on="1"/>
        <pt x="510" y="433" on="1"/>
        <pt x="508" y="423" on="0"/>
        <pt x="507" y="403" on="0"/>
        <pt x="506" y="393" on="1"/>
        <pt x="382" y="393" on="1"/>
        <pt x="378" y="357" on="0"/>
        <pt x="370" y="286" on="0"/>
        <pt x="366" y="251" on="1"/>
        <pt x="487" y="251" on="1"/>
        <pt x="486" y="240" on="0"/>
        <pt x="484" y="221" on="0"/>
        <pt x="483" y="210" on="1"/>
        <pt x="360" y="210" on="1"/>
        <pt x="336" y="0" on="1"/>
      </contour>
    </TTGlyph>
    <TTGlyph name="o" xMin="36" yMin="-7" xMax="430" yMax="384">
      <contour>
        <pt x="36" y="188" on="1"/>
        <pt x="36" y="228" on="0"/>
        <pt x="67" y="300" on="0"/>
        <pt x="120" y="353" on="0"/>
        <pt x="191" y="384" on="0"/>
        <pt x="232" y="384" on="1"/>
        <pt x="273" y="384" on="0"/>
        <pt x="345" y="353" on="0"/>
        <pt x="399" y="300" on="0"/>
        <pt x="430" y="228" on="0"/>
        <pt x="430" y="188" on="1"/>
        <pt x="430" y="147" on="0"/>
        <pt x="399" y="76" on="0"/>
        <pt x="345" y="24" on="0"/>
        <pt x="273" y="-7" on="0"/>
        <pt x="232" y="-7" on="1"/>
        <pt x="191" y="-7" on="0"/>
        <pt x="120" y="24" on="0"/>
        <pt x="67" y="76" on="0"/>
        <pt x="36" y="147" on="0"/>
      </contour>
      <contour>
        <pt x="77" y="188" on="1"/>
        <pt x="77" y="156" on="0"/>
        <pt x="101" y="100" on="0"/>
        <pt x="143" y="58" on="0"/>
        <pt x="199" y="34" on="0"/>
        <pt x="231" y="34" on="1"/>
        <pt x="263" y="34" on="0"/>
        <pt x="320" y="58" on="0"/>
        <pt x="362" y="100" on="0"/>
        <pt x="386" y="156" on="0"/>
        <pt x="386" y="188" on="1"/>
        <pt x="386" y="220" on="0"/>
        <pt x="362" y="276" on="0"/>
        <pt x="320" y="318" on="0"/>
        <pt x="263" y="343" on="0"/>
        <pt x="231" y="343" on="1"/>
        <pt x="199" y="343" on="0"/>
        <pt x="143" y="318" on="0"/>
        <pt x="101" y="276" on="0"/>
        <pt x="77" y="220" on="0"/>
      </contour>
    </TTGlyph>
    <TTGlyph name="oacute" xMin="36" yMin="-7" xMax="430" yMax="612">
      <component glyphName="o" x="0" y="0" flags="0x204"/>
      <component glyphName="acute" x="131" y="0" flags="0x4"/>
    </TTGlyph>
    <TTGlyph name="ocircumflex" xMin="36" yMin="-7" xMax="430" yMax="660">
      <component glyphName="o" x="0" y="0" flags="0x204"/>
      <component glyphName="asciicircum" x="3" y="0" flags="0x4"/>
    </TTGlyph>
    <TTGlyph name="odieresis" xMin="36" yMin="-7" xMax="430" yMax="541">
      <component glyphName="o" x="0" y="0" flags="0x204"/>
      <component glyphName="dieresis" x="51" y="0" flags="0x4"/>
    </TTGlyph>
    <TTGlyph name="ograve" xMin="36" yMin="-7" xMax="430" yMax="612">
      <component glyphName="o" x="0" y="0" flags="0x204"/>
      <component glyphName="grave" x="140" y="0" flags="0x4"/>
    </TTGlyph>
    <TTGlyph name="one" xMin="34" yMin="0" xMax="251" yMax="650">
      <contour>
        <pt x="49" y="40" on="1"/>
        <pt x="129" y="40" on="1"/>
        <pt x="129" y="609" on="1"/>
        <pt x="34" y="609" on="1"/>
        <pt x="34" y="650" on="1"/>
        <pt x="171" y="650" on="1"/>
        <pt x="171" y="40" on="1"/>
        <pt x="251" y="40" on="1"/>
        <pt x="251" y="0" on="1"/>
        <pt x="49" y="0" on="1"/>
      </contour>
    </TTGlyph>
    <TTGlyph name="onehalf" xMin="121" yMin="-19" xMax="867" yMax="735">
      <contour>
        <pt x="132" y="262" on="1"/>
        <pt x="189" y="262" on="1"/>
        <pt x="189" y="666" on="1"/>
        <pt x="121" y="666" on="1"/>
        <pt x="121" y="695" on="1"/>
        <pt x="218" y="695" on="1"/>
        <pt x="218" y="262" on="1"/>
        <pt x="275" y="262" on="1"/>
        <pt x="275" y="234" on="1"/>
        <pt x="132" y="234" on="1"/>
      </contour>
      <contour>
        <pt x="646" y="29" on="1"/>
        <pt x="839" y="29" on="1"/>
        <pt x="839" y="103" on="1"/>
        <pt x="867" y="103" on="1"/>
        <pt x="867" y="0" on="1"/>
        <pt x="573" y="0" on="1"/>
        <pt x="618" y="44" on="0"/>
        <pt x="702" y="128" on="0"/>
        <pt x="767" y="208" on="0"/>
        <pt x="807" y="282" on="0"/>
        <pt x="807" y="316" on="1"/>
        <pt x="807" y="350" on="0"/>
        <pt x="786" y="396" on="0"/>
        <pt x="756" y="425" on="0"/>
        <pt x="720" y="437" on="0"/>
        <pt x="704" y="437" on="1"/>
        <pt x="673" y="437" on="0"/>
        <pt x="632" y="414" on="0"/>
        <pt x="609" y="382" on="0"/>
        <pt x="600" y="343" on="0"/>
        <pt x="600" y="328" on="1"/>
        <pt x="600" y="303" on="0"/>
        <pt x="614" y="265" on="0"/>
        <pt x="627" y="250" on="1"/>
        <pt x="610" y="232" on="1"/>
        <pt x="591" y="248" on="0"/>
        <pt x="570" y="300" on="0"/>
        <pt x="570" y="328" on="1"/>
        <pt x="570" y="356" on="0"/>
        <pt x="588" y="406" on="0"/>
        <pt x="622" y="444" on="0"/>
        <pt x="672" y="466" on="0"/>
        <pt x="704" y="466" on="1"/>
        <pt x="734" y="466" on="0"/>
        <pt x="783" y="444" on="0"/>
        <pt x="818" y="406" on="0"/>
        <pt x="837" y="354" on="0"/>
        <pt x="837" y="324" on="1"/>
        <pt x="837" y="286" on="0"/>
        <pt x="802" y="210" on="0"/>
        <pt x="747" y="137" on="0"/>
        <pt x="679" y="64" on="0"/>
      </contour>
      <contour>
        <pt x="279" y="-19" on="1"/>
        <pt x="349" y="171" on="0"/>
        <pt x="487" y="546" on="0"/>
        <pt x="557" y="735" on="1"/>
        <pt x="599" y="735" on="1"/>
        <pt x="529" y="546" on="0"/>
        <pt x="391" y="171" on="0"/>
        <pt x="321" y="-19" on="1"/>
      </contour>
    </TTGlyph>
    <TTGlyph name="onequarter" xMin="131" yMin="-19" xMax="845" yMax="735">
      <contour>
        <pt x="279" y="-19" on="1"/>
        <pt x="349" y="171" on="0"/>
        <pt x="487" y="546" on="0"/>
        <pt x="557" y="735" on="1"/>
        <pt x="599" y="735" on="1"/>
        <pt x="529" y="546" on="0"/>
        <pt x="391" y="171" on="0"/>
        <pt x="321" y="-19" on="1"/>
      </contour>
      <contour>
        <pt x="686" y="30" on="1"/>
        <pt x="742" y="30" on="1"/>
        <pt x="742" y="136" on="1"/>
        <pt x="501" y="136" on="1"/>
        <pt x="773" y="490" on="1"/>
        <pt x="773" y="167" on="1"/>
        <pt x="845" y="167" on="1"/>
        <pt x="845" y="136" on="1"/>
        <pt x="773" y="136" on="1"/>
        <pt x="773" y="30" on="1"/>
        <pt x="835" y="30" on="1"/>
        <pt x="835" y="0" on="1"/>
        <pt x="686" y="0" on="1"/>
      </contour>
      <contour>
        <pt x="742" y="398" on="1"/>
        <pt x="565" y="167" on="1"/>
        <pt x="742" y="167" on="1"/>
      </contour>
      <contour>
        <pt x="142" y="262" on="1"/>
        <pt x="198" y="262" on="1"/>
        <pt x="198" y="666" on="1"/>
        <pt x="131" y="666" on="1"/>
        <pt x="131" y="695" on="1"/>
        <pt x="228" y="695" on="1"/>
        <pt x="228" y="262" on="1"/>
        <pt x="285" y="262" on="1"/>
        <pt x="285" y="234" on="1"/>
        <pt x="142" y="234" on="1"/>
      </contour>
    </TTGlyph>
    <TTGlyph name="onesuperior" xMin="65" yMin="401" xMax="164" yMax="700">
      <contour>
        <pt x="71" y="419" on="1"/>
        <pt x="108" y="419" on="1"/>
        <pt x="108" y="681" on="1"/>
        <pt x="65" y="681" on="1"/>
        <pt x="65" y="700" on="1"/>
        <pt x="127" y="700" on="1"/>
        <pt x="127" y="419" on="1"/>
        <pt x="164" y="419" on="1"/>
        <pt x="164" y="401" on="1"/>
        <pt x="71" y="401" on="1"/>
      </contour>
    </TTGlyph>
    <TTGlyph name="ordfeminine" xMin="83" yMin="301" xMax="421" yMax="582">
      <contour>
        <pt x="83" y="442" on="1"/>
        <pt x="83" y="470" on="0"/>
        <pt x="106" y="522" on="0"/>
        <pt x="144" y="560" on="0"/>
        <pt x="196" y="582" on="0"/>
        <pt x="225" y="582" on="1"/>
        <pt x="246" y="582" on="0"/>
        <pt x="284" y="570" on="0"/>
        <pt x="314" y="551" on="0"/>
        <pt x="335" y="525" on="0"/>
        <pt x="340" y="513" on="1"/>
        <pt x="340" y="529" on="0"/>
        <pt x="342" y="561" on="0"/>
        <pt x="343" y="576" on="1"/>
        <pt x="367" y="576" on="1"/>
        <pt x="367" y="335" on="1"/>
        <pt x="421" y="335" on="1"/>
        <pt x="421" y="306" on="1"/>
        <pt x="340" y="306" on="1"/>
        <pt x="340" y="335" on="1"/>
        <pt x="340" y="344" on="0"/>
        <pt x="341" y="360" on="0"/>
        <pt x="341" y="368" on="1"/>
        <pt x="336" y="356" on="0"/>
        <pt x="315" y="331" on="0"/>
        <pt x="285" y="312" on="0"/>
        <pt x="247" y="301" on="0"/>
        <pt x="225" y="301" on="1"/>
        <pt x="196" y="301" on="0"/>
        <pt x="144" y="323" on="0"/>
        <pt x="106" y="361" on="0"/>
        <pt x="83" y="412" on="0"/>
      </contour>
      <contour>
        <pt x="114" y="442" on="1"/>
        <pt x="114" y="419" on="0"/>
        <pt x="131" y="378" on="0"/>
        <pt x="160" y="348" on="0"/>
        <pt x="202" y="331" on="0"/>
        <pt x="225" y="331" on="1"/>
        <pt x="249" y="331" on="0"/>
        <pt x="290" y="348" on="0"/>
        <pt x="320" y="378" on="0"/>
        <pt x="337" y="419" on="0"/>
        <pt x="337" y="442" on="1"/>
        <pt x="337" y="465" on="0"/>
        <pt x="320" y="506" on="0"/>
        <pt x="290" y="536" on="0"/>
        <pt x="249" y="553" on="0"/>
        <pt x="225" y="553" on="1"/>
        <pt x="202" y="553" on="0"/>
        <pt x="160" y="536" on="0"/>
        <pt x="131" y="506" on="0"/>
        <pt x="114" y="465" on="0"/>
      </contour>
    </TTGlyph>
    <TTGlyph name="ordmasculine" xMin="91" yMin="301" xMax="375" yMax="583">
      <contour>
        <pt x="91" y="442" on="1"/>
        <pt x="91" y="470" on="0"/>
        <pt x="113" y="522" on="0"/>
        <pt x="152" y="561" on="0"/>
        <pt x="203" y="583" on="0"/>
        <pt x="232" y="583" on="1"/>
        <pt x="262" y="583" on="0"/>
        <pt x="314" y="561" on="0"/>
        <pt x="353" y="522" on="0"/>
        <pt x="375" y="470" on="0"/>
        <pt x="375" y="442" on="1"/>
        <pt x="375" y="412" on="0"/>
        <pt x="353" y="361" on="0"/>
        <pt x="314" y="323" on="0"/>
        <pt x="262" y="301" on="0"/>
        <pt x="232" y="301" on="1"/>
        <pt x="203" y="301" on="0"/>
        <pt x="152" y="323" on="0"/>
        <pt x="113" y="361" on="0"/>
        <pt x="91" y="412" on="0"/>
      </contour>
      <contour>
        <pt x="121" y="442" on="1"/>
        <pt x="121" y="419" on="0"/>
        <pt x="138" y="378" on="0"/>
        <pt x="168" y="348" on="0"/>
        <pt x="209" y="331" on="0"/>
        <pt x="232" y="331" on="1"/>
        <pt x="255" y="331" on="0"/>
        <pt x="296" y="348" on="0"/>
        <pt x="326" y="378" on="0"/>
        <pt x="343" y="419" on="0"/>
        <pt x="343" y="442" on="1"/>
        <pt x="343" y="465" on="0"/>
        <pt x="326" y="505" on="0"/>
        <pt x="296" y="535" on="0"/>
        <pt x="255" y="553" on="0"/>
        <pt x="232" y="553" on="1"/>
        <pt x="209" y="553" on="0"/>
        <pt x="168" y="535" on="0"/>
        <pt x="138" y="505" on="0"/>
        <pt x="121" y="465" on="0"/>
      </contour>
    </TTGlyph>
    <TTGlyph name="oslash" xMin="35" yMin="-15" xMax="429" yMax="390">
      <contour>
        <pt x="77" y="188" on="1"/>
        <pt x="77" y="158" on="0"/>
        <pt x="98" y="105" on="0"/>
        <pt x="116" y="85" on="1"/>
        <pt x="166" y="144" on="0"/>
        <pt x="263" y="260" on="0"/>
        <pt x="313" y="319" on="1"/>
        <pt x="296" y="330" on="0"/>
        <pt x="254" y="343" on="0"/>
        <pt x="231" y="343" on="1"/>
        <pt x="198" y="343" on="0"/>
        <pt x="142" y="319" on="0"/>
        <pt x="101" y="277" on="0"/>
        <pt x="77" y="220" on="0"/>
      </contour>
      <contour>
        <pt x="231" y="34" on="1"/>
        <pt x="264" y="34" on="0"/>
        <pt x="321" y="58" on="0"/>
        <pt x="363" y="100" on="0"/>
        <pt x="387" y="156" on="0"/>
        <pt x="387" y="188" on="1"/>
        <pt x="387" y="221" on="0"/>
        <pt x="361" y="279" on="0"/>
        <pt x="338" y="300" on="1"/>
        <pt x="288" y="240" on="0"/>
        <pt x="189" y="123" on="0"/>
        <pt x="139" y="64" on="1"/>
        <pt x="178" y="34" on="0"/>
      </contour>
      <contour>
        <pt x="35" y="188" on="1"/>
        <pt x="35" y="228" on="0"/>
        <pt x="66" y="300" on="0"/>
        <pt x="119" y="352" on="0"/>
        <pt x="190" y="383" on="0"/>
        <pt x="231" y="383" on="1"/>
        <pt x="262" y="383" on="0"/>
        <pt x="317" y="366" on="0"/>
        <pt x="340" y="351" on="1"/>
        <pt x="348" y="361" on="0"/>
        <pt x="366" y="380" on="0"/>
        <pt x="374" y="390" on="1"/>
        <pt x="380" y="385" on="0"/>
        <pt x="391" y="374" on="0"/>
        <pt x="397" y="369" on="1"/>
        <pt x="389" y="360" on="0"/>
        <pt x="373" y="341" on="0"/>
        <pt x="365" y="331" on="1"/>
        <pt x="394" y="305" on="0"/>
        <pt x="429" y="230" on="0"/>
        <pt x="429" y="188" on="1"/>
        <pt x="429" y="147" on="0"/>
        <pt x="398" y="76" on="0"/>
        <pt x="344" y="24" on="0"/>
        <pt x="272" y="-7" on="0"/>
        <pt x="231" y="-7" on="1"/>
        <pt x="197" y="-7" on="0"/>
        <pt x="137" y="14" on="0"/>
        <pt x="112" y="33" on="1"/>
        <pt x="102" y="21" on="0"/>
        <pt x="82" y="-3" on="0"/>
        <pt x="72" y="-15" on="1"/>
        <pt x="66" y="-10" on="0"/>
        <pt x="54" y="0" on="0"/>
        <pt x="48" y="5" on="1"/>
        <pt x="59" y="17" on="0"/>
        <pt x="78" y="41" on="0"/>
        <pt x="89" y="53" on="1"/>
        <pt x="63" y="79" on="0"/>
        <pt x="35" y="148" on="0"/>
      </contour>
    </TTGlyph>
    <TTGlyph name="otilde" xMin="36" yMin="-7" xMax="430" yMax="545">
      <component glyphName="o" x="0" y="0" flags="0x204"/>
      <component glyphName="asciitilde" x="-35" y="0" flags="0x4"/>
    </TTGlyph>
    <TTGlyph name="p" xMin="35" yMin="-250" xMax="503" yMax="382">
      <contour>
        <pt x="43" y="-210" on="1"/>
        <pt x="110" y="-210" on="1"/>
        <pt x="110" y="335" on="1"/>
        <pt x="35" y="335" on="1"/>
        <pt x="35" y="375" on="1"/>
        <pt x="143" y="375" on="1"/>
        <pt x="143" y="353" on="0"/>
        <pt x="146" y="307" on="0"/>
        <pt x="147" y="285" on="1"/>
        <pt x="154" y="303" on="0"/>
        <pt x="183" y="338" on="0"/>
        <pt x="225" y="365" on="0"/>
        <pt x="278" y="382" on="0"/>
        <pt x="307" y="382" on="1"/>
        <pt x="348" y="382" on="0"/>
        <pt x="420" y="351" on="0"/>
        <pt x="473" y="299" on="0"/>
        <pt x="503" y="227" on="0"/>
        <pt x="503" y="187" on="1"/>
        <pt x="503" y="147" on="0"/>
        <pt x="473" y="76" on="0"/>
        <pt x="420" y="23" on="0"/>
        <pt x="348" y="-8" on="0"/>
        <pt x="307" y="-8" on="1"/>
        <pt x="277" y="-8" on="0"/>
        <pt x="225" y="8" on="0"/>
        <pt x="184" y="33" on="0"/>
        <pt x="155" y="66" on="0"/>
        <pt x="148" y="84" on="1"/>
        <pt x="149" y="74" on="0"/>
        <pt x="151" y="54" on="0"/>
        <pt x="152" y="44" on="1"/>
        <pt x="152" y="-210" on="1"/>
        <pt x="236" y="-210" on="1"/>
        <pt x="236" y="-250" on="1"/>
        <pt x="43" y="-250" on="1"/>
      </contour>
      <contour>
        <pt x="461" y="187" on="1"/>
        <pt x="461" y="220" on="0"/>
        <pt x="437" y="276" on="0"/>
        <pt x="396" y="317" on="0"/>
        <pt x="340" y="341" on="0"/>
        <pt x="307" y="341" on="1"/>
        <pt x="274" y="341" on="0"/>
        <pt x="217" y="317" on="0"/>
        <pt x="175" y="276" on="0"/>
        <pt x="151" y="220" on="0"/>
        <pt x="151" y="187" on="1"/>
        <pt x="151" y="155" on="0"/>
        <pt x="175" y="98" on="0"/>
        <pt x="217" y="56" on="0"/>
        <pt x="274" y="32" on="0"/>
        <pt x="307" y="32" on="1"/>
        <pt x="340" y="32" on="0"/>
        <pt x="396" y="56" on="0"/>
        <pt x="437" y="98" on="0"/>
        <pt x="461" y="155" on="0"/>
      </contour>
    </TTGlyph>
    <TTGlyph name="paragraph" xMin="38" yMin="0" xMax="498" yMax="750">
      <contour>
        <pt x="243" y="0" on="1"/>
        <pt x="201" y="0" on="1"/>
        <pt x="201" y="423" on="1"/>
        <pt x="167" y="423" on="0"/>
        <pt x="107" y="448" on="0"/>
        <pt x="63" y="492" on="0"/>
        <pt x="38" y="552" on="0"/>
        <pt x="38" y="586" on="1"/>
        <pt x="38" y="620" on="0"/>
        <pt x="63" y="680" on="0"/>
        <pt x="107" y="724" on="0"/>
        <pt x="167" y="750" on="0"/>
        <pt x="201" y="750" on="1"/>
        <pt x="498" y="750" on="1"/>
        <pt x="498" y="714" on="1"/>
        <pt x="406" y="714" on="1"/>
        <pt x="406" y="36" on="1"/>
        <pt x="498" y="36" on="1"/>
        <pt x="498" y="0" on="1"/>
        <pt x="364" y="0" on="1"/>
        <pt x="364" y="714" on="1"/>
        <pt x="243" y="714" on="1"/>
      </contour>
    </TTGlyph>
    <TTGlyph name="parenleft" xMin="134" yMin="-163" xMax="330" yMax="747">
      <contour>
        <pt x="134" y="292" on="1"/>
        <pt x="134" y="367" on="0"/>
        <pt x="162" y="503" on="0"/>
        <pt x="208" y="619" on="0"/>
        <pt x="267" y="714" on="0"/>
        <pt x="299" y="747" on="1"/>
        <pt x="307" y="741" on="0"/>
        <pt x="322" y="730" on="0"/>
        <pt x="330" y="724" on="1"/>
        <pt x="301" y="691" on="0"/>
        <pt x="246" y="601" on="0"/>
        <pt x="202" y="491" on="0"/>
        <pt x="176" y="363" on="0"/>
        <pt x="176" y="292" on="1"/>
        <pt x="176" y="221" on="0"/>
        <pt x="202" y="93" on="0"/>
        <pt x="246" y="-17" on="0"/>
        <pt x="301" y="-107" on="0"/>
        <pt x="330" y="-140" on="1"/>
        <pt x="322" y="-146" on="0"/>
        <pt x="307" y="-157" on="0"/>
        <pt x="299" y="-163" on="1"/>
        <pt x="267" y="-130" on="0"/>
        <pt x="208" y="-35" on="0"/>
        <pt x="162" y="81" on="0"/>
        <pt x="134" y="217" on="0"/>
      </contour>
    </TTGlyph>
    <TTGlyph name="parenright" xMin="96" yMin="-165" xMax="292" yMax="745">
      <contour>
        <pt x="292" y="290" on="1"/>
        <pt x="292" y="215" on="0"/>
        <pt x="264" y="79" on="0"/>
        <pt x="218" y="-37" on="0"/>
        <pt x="158" y="-132" on="0"/>
        <pt x="127" y="-165" on="1"/>
        <pt x="119" y="-159" on="0"/>
        <pt x="104" y="-148" on="0"/>
        <pt x="96" y="-142" on="1"/>
        <pt x="125" y="-109" on="0"/>
        <pt x="180" y="-19" on="0"/>
        <pt x="224" y="91" on="0"/>
        <pt x="250" y="219" on="0"/>
        <pt x="250" y="290" on="1"/>
        <pt x="250" y="361" on="0"/>
        <pt x="224" y="489" on="0"/>
        <pt x="180" y="599" on="0"/>
        <pt x="125" y="689" on="0"/>
        <pt x="96" y="722" on="1"/>
        <pt x="104" y="728" on="0"/>
        <pt x="119" y="739" on="0"/>
        <pt x="127" y="745" on="1"/>
        <pt x="158" y="712" on="0"/>
        <pt x="218" y="617" on="0"/>
        <pt x="264" y="501" on="0"/>
        <pt x="292" y="365" on="0"/>
      </contour>
    </TTGlyph>
    <TTGlyph name="percent" xMin="101" yMin="-4" xMax="639" yMax="504">
      <contour>
        <pt x="447" y="112" on="1"/>
        <pt x="447" y="80" on="0"/>
        <pt x="490" y="37" on="0"/>
        <pt x="522" y="37" on="1"/>
        <pt x="554" y="37" on="0"/>
        <pt x="597" y="80" on="0"/>
        <pt x="597" y="112" on="1"/>
        <pt x="597" y="143" on="0"/>
        <pt x="554" y="187" on="0"/>
        <pt x="522" y="187" on="1"/>
        <pt x="490" y="187" on="0"/>
        <pt x="447" y="143" on="0"/>
      </contour>
      <contour>
        <pt x="522" y="-4" on="1"/>
        <pt x="498" y="-4" on="0"/>
        <pt x="455" y="14" on="0"/>
        <pt x="424" y="45" on="0"/>
        <pt x="405" y="88" on="0"/>
        <pt x="405" y="112" on="1"/>
        <pt x="405" y="136" on="0"/>
        <pt x="424" y="178" on="0"/>
        <pt x="455" y="209" on="0"/>
        <pt x="498" y="227" on="0"/>
        <pt x="522" y="227" on="1"/>
        <pt x="546" y="227" on="0"/>
        <pt x="588" y="209" on="0"/>
        <pt x="620" y="178" on="0"/>
        <pt x="639" y="136" on="0"/>
        <pt x="639" y="112" on="1"/>
        <pt x="639" y="88" on="0"/>
        <pt x="620" y="45" on="0"/>
        <pt x="588" y="14" on="0"/>
        <pt x="546" y="-4" on="0"/>
      </contour>
      <contour>
        <pt x="143" y="388" on="1"/>
        <pt x="143" y="357" on="0"/>
        <pt x="186" y="314" on="0"/>
        <pt x="218" y="314" on="1"/>
        <pt x="250" y="314" on="0"/>
        <pt x="293" y="357" on="0"/>
        <pt x="293" y="388" on="1"/>
        <pt x="293" y="420" on="0"/>
        <pt x="250" y="463" on="0"/>
        <pt x="218" y="463" on="1"/>
        <pt x="186" y="463" on="0"/>
        <pt x="143" y="420" on="0"/>
      </contour>
      <contour>
        <pt x="218" y="273" on="1"/>
        <pt x="194" y="273" on="0"/>
        <pt x="151" y="291" on="0"/>
        <pt x="120" y="322" on="0"/>
        <pt x="101" y="365" on="0"/>
        <pt x="101" y="389" on="1"/>
        <pt x="101" y="413" on="0"/>
        <pt x="120" y="455" on="0"/>
        <pt x="151" y="486" on="0"/>
        <pt x="194" y="504" on="0"/>
        <pt x="218" y="504" on="1"/>
        <pt x="242" y="504" on="0"/>
        <pt x="284" y="486" on="0"/>
        <pt x="316" y="455" on="0"/>
        <pt x="335" y="413" on="0"/>
        <pt x="335" y="389" on="1"/>
        <pt x="335" y="365" on="0"/>
        <pt x="316" y="322" on="0"/>
        <pt x="284" y="291" on="0"/>
        <pt x="242" y="273" on="0"/>
      </contour>
      <contour>
        <pt x="194" y="0" on="1"/>
        <pt x="269" y="126" on="0"/>
        <pt x="417" y="374" on="0"/>
        <pt x="492" y="500" on="1"/>
        <pt x="538" y="500" on="1"/>
        <pt x="463" y="374" on="0"/>
        <pt x="315" y="126" on="0"/>
        <pt x="240" y="0" on="1"/>
      </contour>
    </TTGlyph>
    <TTGlyph name="period" xMin="53" yMin="0" xMax="118" yMax="66">
      <contour>
        <pt x="53" y="33" on="1"/>
        <pt x="53" y="47" on="0"/>
        <pt x="73" y="66" on="0"/>
        <pt x="86" y="66" on="1"/>
        <pt x="98" y="66" on="0"/>
        <pt x="118" y="47" on="0"/>
        <pt x="118" y="33" on="1"/>
        <pt x="118" y="19" on="0"/>
        <pt x="98" y="0" on="0"/>
        <pt x="86" y="0" on="1"/>
        <pt x="73" y="0" on="0"/>
        <pt x="53" y="19" on="0"/>
      </contour>
    </TTGlyph>
    <TTGlyph name="periodcentered" xMin="53" yMin="248" xMax="118" yMax="314">
      <component glyphName="period" x="0" y="248" flags="0x4"/>
    </TTGlyph>
    <TTGlyph name="plus" xMin="86" yMin="51" xMax="446" yMax="411">
      <contour>
        <pt x="245" y="51" on="1"/>
        <pt x="245" y="211" on="1"/>
        <pt x="86" y="211" on="1"/>
        <pt x="86" y="252" on="1"/>
        <pt x="245" y="252" on="1"/>
        <pt x="245" y="411" on="1"/>
        <pt x="287" y="411" on="1"/>
        <pt x="287" y="252" on="1"/>
        <pt x="446" y="252" on="1"/>
        <pt x="446" y="211" on="1"/>
        <pt x="287" y="211" on="1"/>
        <pt x="287" y="51" on="1"/>
      </contour>
    </TTGlyph>
    <TTGlyph name="plusminus" xMin="86" yMin="122" xMax="446" yMax="571">
      <contour>
        <pt x="245" y="211" on="1"/>
        <pt x="245" y="371" on="1"/>
        <pt x="86" y="371" on="1"/>
        <pt x="86" y="412" on="1"/>
        <pt x="245" y="412" on="1"/>
        <pt x="245" y="571" on="1"/>
        <pt x="287" y="571" on="1"/>
        <pt x="287" y="412" on="1"/>
        <pt x="446" y="412" on="1"/>
        <pt x="446" y="371" on="1"/>
        <pt x="287" y="371" on="1"/>
        <pt x="287" y="211" on="1"/>
      </contour>
      <contour>
        <pt x="446" y="122" on="1"/>
        <pt x="86" y="122" on="1"/>
        <pt x="86" y="162" on="1"/>
        <pt x="446" y="162" on="1"/>
      </contour>
    </TTGlyph>
    <TTGlyph name="q" xMin="35" yMin="-250" xMax="505" yMax="382">
      <contour>
        <pt x="303" y="-210" on="1"/>
        <pt x="387" y="-210" on="1"/>
        <pt x="387" y="44" on="1"/>
        <pt x="387" y="54" on="0"/>
        <pt x="390" y="74" on="0"/>
        <pt x="391" y="84" on="1"/>
        <pt x="383" y="66" on="0"/>
        <pt x="354" y="33" on="0"/>
        <pt x="313" y="8" on="0"/>
        <pt x="261" y="-8" on="0"/>
        <pt x="232" y="-8" on="1"/>
        <pt x="191" y="-8" on="0"/>
        <pt x="119" y="23" on="0"/>
        <pt x="66" y="76" on="0"/>
        <pt x="35" y="147" on="0"/>
        <pt x="35" y="187" on="1"/>
        <pt x="35" y="227" on="0"/>
        <pt x="66" y="299" on="0"/>
        <pt x="119" y="351" on="0"/>
        <pt x="191" y="382" on="0"/>
        <pt x="232" y="382" on="1"/>
        <pt x="261" y="382" on="0"/>
        <pt x="313" y="365" on="0"/>
        <pt x="355" y="338" on="0"/>
        <pt x="385" y="303" on="0"/>
        <pt x="392" y="285" on="1"/>
        <pt x="392" y="307" on="0"/>
        <pt x="395" y="352" on="0"/>
        <pt x="395" y="375" on="1"/>
        <pt x="505" y="375" on="1"/>
        <pt x="505" y="335" on="1"/>
        <pt x="429" y="335" on="1"/>
        <pt x="429" y="-210" on="1"/>
        <pt x="497" y="-210" on="1"/>
        <pt x="497" y="-250" on="1"/>
        <pt x="303" y="-250" on="1"/>
      </contour>
      <contour>
        <pt x="77" y="187" on="1"/>
        <pt x="77" y="155" on="0"/>
        <pt x="101" y="98" on="0"/>
        <pt x="142" y="56" on="0"/>
        <pt x="199" y="32" on="0"/>
        <pt x="232" y="32" on="1"/>
        <pt x="265" y="32" on="0"/>
        <pt x="321" y="56" on="0"/>
        <pt x="363" y="98" on="0"/>
        <pt x="387" y="155" on="0"/>
        <pt x="387" y="187" on="1"/>
        <pt x="387" y="220" on="0"/>
        <pt x="363" y="276" on="0"/>
        <pt x="321" y="317" on="0"/>
        <pt x="265" y="341" on="0"/>
        <pt x="232" y="341" on="1"/>
        <pt x="199" y="341" on="0"/>
        <pt x="142" y="317" on="0"/>
        <pt x="101" y="276" on="0"/>
        <pt x="77" y="220" on="0"/>
      </contour>
    </TTGlyph>
    <TTGlyph name="question" xMin="35" yMin="15" xMax="422" yMax="732">
      <contour>
        <pt x="72" y="578" on="1"/>
        <pt x="63" y="582" on="0"/>
        <pt x="44" y="588" on="0"/>
        <pt x="35" y="591" on="1"/>
        <pt x="44" y="617" on="0"/>
        <pt x="76" y="667" on="0"/>
        <pt x="123" y="707" on="0"/>
        <pt x="186" y="732" on="0"/>
        <pt x="226" y="732" on="1"/>
        <pt x="267" y="732" on="0"/>
        <pt x="339" y="701" on="0"/>
        <pt x="392" y="648" on="0"/>
        <pt x="422" y="577" on="0"/>
        <pt x="422" y="537" on="1"/>
        <pt x="422" y="483" on="0"/>
        <pt x="369" y="400" on="0"/>
        <pt x="324" y="368" on="1"/>
        <pt x="307" y="355" on="0"/>
        <pt x="274" y="335" on="0"/>
        <pt x="248" y="310" on="0"/>
        <pt x="232" y="272" on="0"/>
        <pt x="232" y="242" on="1"/>
        <pt x="232" y="164" on="1"/>
        <pt x="190" y="164" on="1"/>
        <pt x="190" y="261" on="1"/>
        <pt x="190" y="292" on="0"/>
        <pt x="212" y="331" on="0"/>
        <pt x="247" y="361" on="0"/>
        <pt x="292" y="388" on="0"/>
        <pt x="316" y="408" on="1"/>
        <pt x="349" y="435" on="0"/>
        <pt x="380" y="500" on="0"/>
        <pt x="380" y="537" on="1"/>
        <pt x="380" y="570" on="0"/>
        <pt x="357" y="626" on="0"/>
        <pt x="315" y="668" on="0"/>
        <pt x="259" y="691" on="0"/>
        <pt x="226" y="691" on="1"/>
        <pt x="168" y="691" on="0"/>
        <pt x="89" y="631" on="0"/>
      </contour>
      <contour>
        <pt x="211" y="15" on="1"/>
        <pt x="199" y="15" on="0"/>
        <pt x="178" y="34" on="0"/>
        <pt x="178" y="48" on="1"/>
        <pt x="178" y="62" on="0"/>
        <pt x="199" y="81" on="0"/>
        <pt x="211" y="81" on="1"/>
        <pt x="223" y="81" on="0"/>
        <pt x="243" y="62" on="0"/>
        <pt x="243" y="48" on="1"/>
        <pt x="243" y="34" on="0"/>
        <pt x="223" y="15" on="0"/>
      </contour>
    </TTGlyph>
    <TTGlyph name="questiondown" xMin="35" yMin="-193" xMax="422" yMax="524">
      <component glyphName="question" x="457" y="539" scale="-0.999877929688" flags="0x4"/>
    </TTGlyph>
    <TTGlyph name="quotedbl" xMin="63" yMin="472" xMax="240" yMax="720">
      <contour>
        <pt x="196" y="472" on="1"/>
        <pt x="196" y="720" on="1"/>
        <pt x="240" y="720" on="1"/>
        <pt x="239" y="657" on="0"/>
        <pt x="237" y="535" on="0"/>
        <pt x="236" y="472" on="1"/>
      </contour>
      <contour>
        <pt x="63" y="472" on="1"/>
        <pt x="63" y="720" on="1"/>
        <pt x="107" y="720" on="1"/>
        <pt x="106" y="657" on="0"/>
        <pt x="104" y="535" on="0"/>
        <pt x="103" y="472" on="1"/>
      </contour>
    </TTGlyph>
    <TTGlyph name="quotedblbase" xMin="20" yMin="-49" xMax="197" yMax="92">
      <contour>
        <pt x="40" y="-49" on="1"/>
        <pt x="29" y="-40" on="0"/>
        <pt x="20" y="-29" on="1"/>
        <pt x="41" y="-9" on="0"/>
        <pt x="60" y="50" on="0"/>
        <pt x="53" y="85" on="1"/>
        <pt x="61" y="87" on="0"/>
        <pt x="77" y="90" on="0"/>
        <pt x="85" y="92" on="1"/>
        <pt x="93" y="51" on="0"/>
        <pt x="69" y="-23" on="0"/>
      </contour>
      <contour>
        <pt x="144" y="-49" on="1"/>
        <pt x="133" y="-40" on="0"/>
        <pt x="124" y="-29" on="1"/>
        <pt x="145" y="-9" on="0"/>
        <pt x="164" y="50" on="0"/>
        <pt x="157" y="85" on="1"/>
        <pt x="165" y="87" on="0"/>
        <pt x="181" y="90" on="0"/>
        <pt x="189" y="92" on="1"/>
        <pt x="197" y="51" on="0"/>
        <pt x="173" y="-23" on="0"/>
      </contour>
    </TTGlyph>
    <TTGlyph name="quotedblleft" xMin="23" yMin="570" xMax="200" yMax="711">
      <contour>
        <pt x="200" y="590" on="1"/>
        <pt x="195" y="585" on="0"/>
        <pt x="185" y="575" on="0"/>
        <pt x="180" y="570" on="1"/>
        <pt x="151" y="596" on="0"/>
        <pt x="127" y="670" on="0"/>
        <pt x="135" y="711" on="1"/>
        <pt x="143" y="709" on="0"/>
        <pt x="159" y="706" on="0"/>
        <pt x="167" y="704" on="1"/>
        <pt x="160" y="669" on="0"/>
        <pt x="179" y="610" on="0"/>
      </contour>
      <contour>
        <pt x="96" y="590" on="1"/>
        <pt x="91" y="585" on="0"/>
        <pt x="81" y="575" on="0"/>
        <pt x="76" y="570" on="1"/>
        <pt x="47" y="596" on="0"/>
        <pt x="23" y="670" on="0"/>
        <pt x="31" y="711" on="1"/>
        <pt x="39" y="709" on="0"/>
        <pt x="55" y="706" on="0"/>
        <pt x="63" y="704" on="1"/>
        <pt x="56" y="669" on="0"/>
        <pt x="75" y="610" on="0"/>
      </contour>
    </TTGlyph>
    <TTGlyph name="quotedblright" xMin="31" yMin="570" xMax="208" yMax="711">
      <contour>
        <pt x="51" y="570" on="1"/>
        <pt x="46" y="575" on="0"/>
        <pt x="36" y="585" on="0"/>
        <pt x="31" y="590" on="1"/>
        <pt x="52" y="610" on="0"/>
        <pt x="71" y="669" on="0"/>
        <pt x="64" y="704" on="1"/>
        <pt x="72" y="706" on="0"/>
        <pt x="88" y="709" on="0"/>
        <pt x="96" y="711" on="1"/>
        <pt x="104" y="670" on="0"/>
        <pt x="80" y="596" on="0"/>
      </contour>
      <contour>
        <pt x="155" y="570" on="1"/>
        <pt x="150" y="575" on="0"/>
        <pt x="140" y="585" on="0"/>
        <pt x="135" y="590" on="1"/>
        <pt x="156" y="610" on="0"/>
        <pt x="175" y="669" on="0"/>
        <pt x="168" y="704" on="1"/>
        <pt x="176" y="706" on="0"/>
        <pt x="192" y="709" on="0"/>
        <pt x="200" y="711" on="1"/>
        <pt x="208" y="670" on="0"/>
        <pt x="184" y="596" on="0"/>
      </contour>
    </TTGlyph>
    <TTGlyph name="quoteleft" xMin="28" yMin="570" xMax="102" yMax="711">
      <contour>
        <pt x="102" y="590" on="1"/>
        <pt x="82" y="570" on="1"/>
        <pt x="53" y="596" on="0"/>
        <pt x="28" y="670" on="0"/>
        <pt x="36" y="711" on="1"/>
        <pt x="44" y="709" on="0"/>
        <pt x="61" y="706" on="0"/>
        <pt x="69" y="704" on="1"/>
        <pt x="62" y="669" on="0"/>
        <pt x="81" y="610" on="0"/>
      </contour>
    </TTGlyph>
    <TTGlyph name="quoteright" xMin="49" yMin="570" xMax="123" yMax="711">
      <contour>
        <pt x="69" y="570" on="1"/>
        <pt x="49" y="590" on="1"/>
        <pt x="70" y="610" on="0"/>
        <pt x="89" y="669" on="0"/>
        <pt x="82" y="704" on="1"/>
        <pt x="90" y="706" on="0"/>
        <pt x="107" y="709" on="0"/>
        <pt x="115" y="711" on="1"/>
        <pt x="123" y="670" on="0"/>
        <pt x="98" y="596" on="0"/>
      </contour>
    </TTGlyph>
    <TTGlyph name="quotesinglbase" xMin="20" yMin="-49" xMax="93" yMax="92">
      <contour>
        <pt x="40" y="-49" on="1"/>
        <pt x="29" y="-40" on="0"/>
        <pt x="20" y="-29" on="1"/>
        <pt x="41" y="-9" on="0"/>
        <pt x="60" y="50" on="0"/>
        <pt x="53" y="85" on="1"/>
        <pt x="61" y="87" on="0"/>
        <pt x="77" y="90" on="0"/>
        <pt x="85" y="92" on="1"/>
        <pt x="93" y="51" on="0"/>
        <pt x="69" y="-23" on="0"/>
      </contour>
    </TTGlyph>
    <TTGlyph name="quotesingle" xMin="57" yMin="472" xMax="101" yMax="720">
      <contour>
        <pt x="57" y="472" on="1"/>
        <pt x="57" y="720" on="1"/>
        <pt x="101" y="720" on="1"/>
        <pt x="100" y="657" on="0"/>
        <pt x="98" y="535" on="0"/>
        <pt x="97" y="472" on="1"/>
      </contour>
    </TTGlyph>
    <TTGlyph name="r" xMin="35" yMin="0" xMax="309" yMax="383">
      <contour>
        <pt x="35" y="40" on="1"/>
        <pt x="113" y="40" on="1"/>
        <pt x="113" y="335" on="1"/>
        <pt x="41" y="335" on="1"/>
        <pt x="41" y="375" on="1"/>
        <pt x="147" y="375" on="1"/>
        <pt x="148" y="340" on="1"/>
        <pt x="149" y="323" on="0"/>
        <pt x="151" y="295" on="0"/>
        <pt x="151" y="278" on="1"/>
        <pt x="174" y="327" on="0"/>
        <pt x="263" y="382" on="0"/>
        <pt x="309" y="383" on="1"/>
        <pt x="306" y="342" on="1"/>
        <pt x="274" y="341" on="0"/>
        <pt x="219" y="320" on="0"/>
        <pt x="178" y="284" on="0"/>
        <pt x="154" y="234" on="0"/>
        <pt x="154" y="205" on="1"/>
        <pt x="154" y="40" on="1"/>
        <pt x="228" y="40" on="1"/>
        <pt x="228" y="0" on="1"/>
        <pt x="35" y="0" on="1"/>
      </contour>
    </TTGlyph>
    <TTGlyph name="registered" xMin="142" yMin="115" xMax="658" yMax="630">
      <contour>
        <pt x="399" y="138" on="1"/>
        <pt x="448" y="138" on="0"/>
        <pt x="534" y="173" on="0"/>
        <pt x="597" y="236" on="0"/>
        <pt x="634" y="321" on="0"/>
        <pt x="634" y="371" on="1"/>
        <pt x="634" y="422" on="0"/>
        <pt x="597" y="508" on="0"/>
        <pt x="534" y="571" on="0"/>
        <pt x="448" y="607" on="0"/>
        <pt x="399" y="607" on="1"/>
        <pt x="351" y="607" on="0"/>
        <pt x="266" y="571" on="0"/>
        <pt x="203" y="508" on="0"/>
        <pt x="166" y="422" on="0"/>
        <pt x="166" y="371" on="1"/>
        <pt x="166" y="321" on="0"/>
        <pt x="203" y="236" on="0"/>
        <pt x="266" y="173" on="0"/>
        <pt x="351" y="138" on="0"/>
      </contour>
      <contour>
        <pt x="400" y="115" on="1"/>
        <pt x="346" y="115" on="0"/>
        <pt x="252" y="154" on="0"/>
        <pt x="182" y="223" on="0"/>
        <pt x="142" y="317" on="0"/>
        <pt x="142" y="372" on="1"/>
        <pt x="142" y="428" on="0"/>
        <pt x="182" y="522" on="0"/>
        <pt x="252" y="591" on="0"/>
        <pt x="346" y="630" on="0"/>
        <pt x="400" y="630" on="1"/>
        <pt x="454" y="630" on="0"/>
        <pt x="548" y="591" on="0"/>
        <pt x="618" y="522" on="0"/>
        <pt x="658" y="428" on="0"/>
        <pt x="658" y="372" on="1"/>
        <pt x="658" y="317" on="0"/>
        <pt x="618" y="223" on="0"/>
        <pt x="548" y="154" on="0"/>
        <pt x="454" y="115" on="0"/>
      </contour>
      <contour>
        <pt x="311" y="229" on="1"/>
        <pt x="339" y="229" on="1"/>
        <pt x="339" y="522" on="1"/>
        <pt x="311" y="522" on="1"/>
        <pt x="311" y="541" on="1"/>
        <pt x="410" y="541" on="1"/>
        <pt x="425" y="541" on="0"/>
        <pt x="460" y="531" on="0"/>
        <pt x="490" y="510" on="0"/>
        <pt x="511" y="477" on="0"/>
        <pt x="511" y="454" on="1"/>
        <pt x="511" y="421" on="0"/>
        <pt x="475" y="376" on="0"/>
        <pt x="441" y="368" on="1"/>
        <pt x="506" y="229" on="1"/>
        <pt x="548" y="229" on="1"/>
        <pt x="548" y="210" on="1"/>
        <pt x="494" y="210" on="1"/>
        <pt x="420" y="367" on="1"/>
        <pt x="415" y="366" on="0"/>
        <pt x="404" y="366" on="0"/>
        <pt x="398" y="366" on="1"/>
        <pt x="359" y="366" on="1"/>
        <pt x="359" y="229" on="1"/>
        <pt x="406" y="229" on="1"/>
        <pt x="406" y="210" on="1"/>
        <pt x="311" y="210" on="1"/>
      </contour>
      <contour>
        <pt x="359" y="385" on="1"/>
        <pt x="408" y="385" on="1"/>
        <pt x="433" y="385" on="0"/>
        <pt x="465" y="398" on="0"/>
        <pt x="484" y="419" on="0"/>
        <pt x="492" y="443" on="0"/>
        <pt x="492" y="454" on="1"/>
        <pt x="492" y="481" on="0"/>
        <pt x="444" y="522" on="0"/>
        <pt x="408" y="522" on="1"/>
        <pt x="359" y="522" on="1"/>
      </contour>
    </TTGlyph>
    <TTGlyph name="ring" xMin="47" yMin="467" xMax="193" yMax="613">
      <contour>
        <pt x="78" y="540" on="1"/>
        <pt x="78" y="523" on="0"/>
        <pt x="103" y="497" on="0"/>
        <pt x="120" y="497" on="1"/>
        <pt x="137" y="497" on="0"/>
        <pt x="163" y="523" on="0"/>
        <pt x="163" y="540" on="1"/>
        <pt x="163" y="557" on="0"/>
        <pt x="137" y="582" on="0"/>
        <pt x="120" y="582" on="1"/>
        <pt x="103" y="582" on="0"/>
        <pt x="78" y="557" on="0"/>
      </contour>
      <contour>
        <pt x="47" y="540" on="1"/>
        <pt x="47" y="570" on="0"/>
        <pt x="90" y="613" on="0"/>
        <pt x="120" y="613" on="1"/>
        <pt x="150" y="613" on="0"/>
        <pt x="193" y="570" on="0"/>
        <pt x="193" y="540" on="1"/>
        <pt x="193" y="510" on="0"/>
        <pt x="150" y="467" on="0"/>
        <pt x="120" y="467" on="1"/>
        <pt x="90" y="467" on="0"/>
        <pt x="47" y="510" on="0"/>
      </contour>
    </TTGlyph>
    <TTGlyph name="s" xMin="52" yMin="-8" xMax="291" yMax="381">
      <contour>
        <pt x="90" y="103" on="1"/>
        <pt x="90" y="52" on="1"/>
        <pt x="108" y="39" on="0"/>
        <pt x="151" y="33" on="0"/>
        <pt x="172" y="33" on="1"/>
        <pt x="181" y="33" on="0"/>
        <pt x="207" y="40" on="0"/>
        <pt x="231" y="57" on="0"/>
        <pt x="249" y="83" on="0"/>
        <pt x="249" y="102" on="1"/>
        <pt x="249" y="128" on="0"/>
        <pt x="223" y="156" on="0"/>
        <pt x="182" y="173" on="0"/>
        <pt x="134" y="186" on="0"/>
        <pt x="93" y="208" on="0"/>
        <pt x="65" y="244" on="0"/>
        <pt x="65" y="277" on="1"/>
        <pt x="65" y="303" on="0"/>
        <pt x="85" y="342" on="0"/>
        <pt x="116" y="368" on="0"/>
        <pt x="155" y="381" on="0"/>
        <pt x="173" y="381" on="1"/>
        <pt x="177" y="381" on="0"/>
        <pt x="202" y="379" on="0"/>
        <pt x="234" y="372" on="0"/>
        <pt x="265" y="358" on="0"/>
        <pt x="276" y="346" on="1"/>
        <pt x="276" y="272" on="1"/>
        <pt x="238" y="272" on="1"/>
        <pt x="238" y="325" on="1"/>
        <pt x="231" y="331" on="0"/>
        <pt x="211" y="337" on="0"/>
        <pt x="192" y="340" on="0"/>
        <pt x="177" y="340" on="0"/>
        <pt x="174" y="340" on="1"/>
        <pt x="162" y="340" on="0"/>
        <pt x="138" y="333" on="0"/>
        <pt x="118" y="318" on="0"/>
        <pt x="107" y="295" on="0"/>
        <pt x="107" y="278" on="1"/>
        <pt x="107" y="256" on="0"/>
        <pt x="135" y="231" on="0"/>
        <pt x="176" y="214" on="0"/>
        <pt x="223" y="199" on="0"/>
        <pt x="264" y="175" on="0"/>
        <pt x="291" y="137" on="0"/>
        <pt x="291" y="105" on="1"/>
        <pt x="291" y="88" on="0"/>
        <pt x="278" y="49" on="0"/>
        <pt x="250" y="15" on="0"/>
        <pt x="203" y="-8" on="0"/>
        <pt x="170" y="-8" on="1"/>
        <pt x="160" y="-8" on="0"/>
        <pt x="129" y="-5" on="0"/>
        <pt x="95" y="3" on="0"/>
        <pt x="63" y="17" on="0"/>
        <pt x="52" y="29" on="1"/>
        <pt x="52" y="103" on="1"/>
      </contour>
    </TTGlyph>
    <TTGlyph name="section" xMin="134" yMin="-26" xMax="381" yMax="743">
      <contour>
        <pt x="181" y="331" on="1"/>
        <pt x="189" y="305" on="0"/>
        <pt x="232" y="276" on="0"/>
        <pt x="258" y="276" on="1"/>
        <pt x="296" y="276" on="0"/>
        <pt x="341" y="327" on="0"/>
        <pt x="341" y="361" on="1"/>
        <pt x="341" y="379" on="0"/>
        <pt x="326" y="410" on="0"/>
        <pt x="302" y="433" on="0"/>
        <pt x="271" y="445" on="0"/>
        <pt x="255" y="445" on="1"/>
        <pt x="217" y="445" on="0"/>
        <pt x="175" y="393" on="0"/>
        <pt x="175" y="362" on="1"/>
        <pt x="175" y="346" on="0"/>
      </contour>
      <contour>
        <pt x="236" y="152" on="1"/>
        <pt x="205" y="201" on="0"/>
        <pt x="166" y="263" on="0"/>
        <pt x="143" y="307" on="0"/>
        <pt x="134" y="340" on="0"/>
        <pt x="134" y="359" on="1"/>
        <pt x="134" y="381" on="0"/>
        <pt x="149" y="425" on="0"/>
        <pt x="178" y="459" on="0"/>
        <pt x="218" y="481" on="0"/>
        <pt x="243" y="481" on="1"/>
        <pt x="254" y="481" on="0"/>
        <pt x="274" y="477" on="0"/>
        <pt x="284" y="474" on="1"/>
        <pt x="269" y="498" on="0"/>
        <pt x="240" y="549" on="0"/>
        <pt x="216" y="597" on="0"/>
        <pt x="201" y="637" on="0"/>
        <pt x="201" y="650" on="1"/>
        <pt x="201" y="668" on="0"/>
        <pt x="219" y="695" on="0"/>
        <pt x="247" y="717" on="0"/>
        <pt x="280" y="735" on="0"/>
        <pt x="295" y="743" on="1"/>
        <pt x="316" y="708" on="1"/>
        <pt x="271" y="681" on="1"/>
        <pt x="258" y="673" on="0"/>
        <pt x="246" y="657" on="0"/>
        <pt x="246" y="645" on="1"/>
        <pt x="246" y="632" on="0"/>
        <pt x="270" y="580" on="0"/>
        <pt x="306" y="517" on="0"/>
        <pt x="347" y="449" on="0"/>
        <pt x="364" y="421" on="1"/>
        <pt x="381" y="393" on="0"/>
        <pt x="381" y="359" on="1"/>
        <pt x="381" y="337" on="0"/>
        <pt x="365" y="294" on="0"/>
        <pt x="335" y="259" on="0"/>
        <pt x="294" y="237" on="0"/>
        <pt x="269" y="237" on="1"/>
        <pt x="248" y="237" on="0"/>
        <pt x="230" y="244" on="1"/>
        <pt x="245" y="219" on="0"/>
        <pt x="275" y="167" on="0"/>
        <pt x="299" y="120" on="0"/>
        <pt x="314" y="80" on="0"/>
        <pt x="314" y="67" on="1"/>
        <pt x="314" y="49" on="0"/>
        <pt x="296" y="22" on="0"/>
        <pt x="269" y="0" on="0"/>
        <pt x="236" y="-18" on="0"/>
        <pt x="221" y="-26" on="1"/>
        <pt x="200" y="9" on="1"/>
        <pt x="245" y="36" on="1"/>
        <pt x="269" y="49" on="0"/>
        <pt x="269" y="71" on="1"/>
        <pt x="269" y="85" on="0"/>
        <pt x="253" y="123" on="0"/>
      </contour>
    </TTGlyph>
    <TTGlyph name="semicolon" xMin="2" yMin="-120" xMax="144" yMax="316">
      <contour>
        <pt x="78" y="283" on="1"/>
        <pt x="78" y="297" on="0"/>
        <pt x="98" y="316" on="0"/>
        <pt x="111" y="316" on="1"/>
        <pt x="124" y="316" on="0"/>
        <pt x="144" y="297" on="0"/>
        <pt x="144" y="283" on="1"/>
        <pt x="144" y="269" on="0"/>
        <pt x="124" y="250" on="0"/>
        <pt x="111" y="250" on="1"/>
        <pt x="98" y="250" on="0"/>
        <pt x="78" y="269" on="0"/>
      </contour>
      <contour>
        <pt x="127" y="86" on="1"/>
        <pt x="105" y="34" on="0"/>
        <pt x="63" y="-68" on="0"/>
        <pt x="41" y="-120" on="1"/>
        <pt x="2" y="-120" on="1"/>
        <pt x="22" y="-68" on="0"/>
        <pt x="59" y="34" on="0"/>
        <pt x="79" y="86" on="1"/>
      </contour>
    </TTGlyph>
    <TTGlyph name="seven" xMin="14" yMin="0" xMax="420" yMax="650">
      <contour>
        <pt x="420" y="650" on="1"/>
        <pt x="128" y="0" on="1"/>
        <pt x="79" y="0" on="1"/>
        <pt x="354" y="609" on="1"/>
        <pt x="54" y="609" on="1"/>
        <pt x="54" y="549" on="1"/>
        <pt x="14" y="549" on="1"/>
        <pt x="14" y="650" on="1"/>
      </contour>
    </TTGlyph>
    <TTGlyph name="six" xMin="49" yMin="-8" xMax="468" yMax="635">
      <contour>
        <pt x="91" y="199" on="1"/>
        <pt x="91" y="164" on="0"/>
        <pt x="117" y="104" on="0"/>
        <pt x="163" y="59" on="0"/>
        <pt x="223" y="33" on="0"/>
        <pt x="258" y="33" on="1"/>
        <pt x="292" y="33" on="0"/>
        <pt x="354" y="59" on="0"/>
        <pt x="400" y="104" on="0"/>
        <pt x="427" y="164" on="0"/>
        <pt x="427" y="199" on="1"/>
        <pt x="427" y="233" on="0"/>
        <pt x="400" y="294" on="0"/>
        <pt x="354" y="340" on="0"/>
        <pt x="292" y="366" on="0"/>
        <pt x="258" y="366" on="1"/>
        <pt x="223" y="366" on="0"/>
        <pt x="163" y="340" on="0"/>
        <pt x="117" y="294" on="0"/>
        <pt x="91" y="233" on="0"/>
      </contour>
      <contour>
        <pt x="49" y="195" on="1"/>
        <pt x="49" y="267" on="0"/>
        <pt x="111" y="392" on="0"/>
        <pt x="207" y="501" on="0"/>
        <pt x="325" y="594" on="0"/>
        <pt x="381" y="635" on="1"/>
        <pt x="387" y="627" on="0"/>
        <pt x="401" y="609" on="0"/>
        <pt x="408" y="601" on="1"/>
        <pt x="301" y="531" on="0"/>
        <pt x="179" y="404" on="0"/>
        <pt x="152" y="358" on="1"/>
        <pt x="171" y="380" on="0"/>
        <pt x="226" y="407" on="0"/>
        <pt x="258" y="407" on="1"/>
        <pt x="301" y="407" on="0"/>
        <pt x="378" y="374" on="0"/>
        <pt x="435" y="318" on="0"/>
        <pt x="468" y="242" on="0"/>
        <pt x="468" y="199" on="1"/>
        <pt x="468" y="156" on="0"/>
        <pt x="435" y="81" on="0"/>
        <pt x="378" y="25" on="0"/>
        <pt x="301" y="-8" on="0"/>
        <pt x="258" y="-8" on="1"/>
        <pt x="216" y="-8" on="0"/>
        <pt x="140" y="24" on="0"/>
        <pt x="83" y="79" on="0"/>
        <pt x="50" y="153" on="0"/>
      </contour>
    </TTGlyph>
    <TTGlyph name="slash" xMin="17" yMin="-19" xMax="337" yMax="736">
      <contour>
        <pt x="17" y="-19" on="1"/>
        <pt x="87" y="171" on="0"/>
        <pt x="225" y="546" on="0"/>
        <pt x="295" y="736" on="1"/>
        <pt x="337" y="736" on="1"/>
        <pt x="267" y="546" on="0"/>
        <pt x="129" y="171" on="0"/>
        <pt x="59" y="-19" on="1"/>
      </contour>
    </TTGlyph>
    <TTGlyph name="sterling" xMin="27" yMin="0" xMax="510" yMax="634">
      <contour>
        <pt x="510" y="0" on="1"/>
        <pt x="27" y="0" on="1"/>
        <pt x="27" y="41" on="1"/>
        <pt x="71" y="41" on="1"/>
        <pt x="88" y="41" on="0"/>
        <pt x="109" y="53" on="0"/>
        <pt x="120" y="82" on="0"/>
        <pt x="123" y="132" on="0"/>
        <pt x="123" y="171" on="1"/>
        <pt x="123" y="296" on="1"/>
        <pt x="58" y="296" on="1"/>
        <pt x="58" y="337" on="1"/>
        <pt x="123" y="337" on="1"/>
        <pt x="123" y="500" on="1"/>
        <pt x="123" y="570" on="0"/>
        <pt x="222" y="634" on="0"/>
        <pt x="307" y="634" on="1"/>
        <pt x="374" y="634" on="0"/>
        <pt x="447" y="581" on="0"/>
        <pt x="467" y="541" on="1"/>
        <pt x="436" y="522" on="1"/>
        <pt x="426" y="539" on="0"/>
        <pt x="405" y="565" on="0"/>
        <pt x="376" y="583" on="0"/>
        <pt x="336" y="593" on="0"/>
        <pt x="307" y="593" on="1"/>
        <pt x="229" y="593" on="0"/>
        <pt x="165" y="540" on="0"/>
        <pt x="165" y="494" on="1"/>
        <pt x="165" y="337" on="1"/>
        <pt x="289" y="337" on="1"/>
        <pt x="289" y="296" on="1"/>
        <pt x="165" y="296" on="1"/>
        <pt x="165" y="131" on="1"/>
        <pt x="165" y="102" on="0"/>
        <pt x="158" y="55" on="0"/>
        <pt x="143" y="41" on="1"/>
        <pt x="468" y="41" on="1"/>
        <pt x="468" y="145" on="1"/>
        <pt x="510" y="145" on="1"/>
      </contour>
    </TTGlyph>
    <TTGlyph name="t" xMin="35" yMin="0" xMax="279" yMax="619">
      <contour>
        <pt x="122" y="619" on="1"/>
        <pt x="164" y="619" on="1"/>
        <pt x="164" y="375" on="1"/>
        <pt x="279" y="375" on="1"/>
        <pt x="279" y="334" on="1"/>
        <pt x="164" y="334" on="1"/>
        <pt x="164" y="40" on="1"/>
        <pt x="246" y="40" on="1"/>
        <pt x="246" y="0" on="1"/>
        <pt x="122" y="0" on="1"/>
        <pt x="122" y="334" on="1"/>
        <pt x="35" y="334" on="1"/>
        <pt x="35" y="375" on="1"/>
        <pt x="122" y="375" on="1"/>
      </contour>
    </TTGlyph>
    <TTGlyph name="thorn" xMin="16" yMin="-250" xMax="487" yMax="750">
      <contour>
        <pt x="16" y="-210" on="1"/>
        <pt x="93" y="-210" on="1"/>
        <pt x="93" y="710" on="1"/>
        <pt x="16" y="710" on="1"/>
        <pt x="16" y="750" on="1"/>
        <pt x="209" y="750" on="1"/>
        <pt x="209" y="710" on="1"/>
        <pt x="135" y="710" on="1"/>
        <pt x="135" y="337" on="1"/>
        <pt x="133" y="324" on="0"/>
        <pt x="131" y="298" on="0"/>
        <pt x="130" y="286" on="1"/>
        <pt x="137" y="304" on="0"/>
        <pt x="167" y="338" on="0"/>
        <pt x="209" y="365" on="0"/>
        <pt x="261" y="381" on="0"/>
        <pt x="290" y="381" on="1"/>
        <pt x="331" y="381" on="0"/>
        <pt x="403" y="350" on="0"/>
        <pt x="456" y="298" on="0"/>
        <pt x="487" y="227" on="0"/>
        <pt x="487" y="187" on="1"/>
        <pt x="487" y="147" on="0"/>
        <pt x="456" y="76" on="0"/>
        <pt x="403" y="23" on="0"/>
        <pt x="331" y="-8" on="0"/>
        <pt x="290" y="-8" on="1"/>
        <pt x="260" y="-8" on="0"/>
        <pt x="209" y="8" on="0"/>
        <pt x="168" y="33" on="0"/>
        <pt x="138" y="66" on="0"/>
        <pt x="131" y="84" on="1"/>
        <pt x="132" y="74" on="0"/>
        <pt x="134" y="54" on="0"/>
        <pt x="135" y="44" on="1"/>
        <pt x="135" y="-210" on="1"/>
        <pt x="217" y="-210" on="1"/>
        <pt x="217" y="-250" on="1"/>
        <pt x="16" y="-250" on="1"/>
      </contour>
      <contour>
        <pt x="445" y="187" on="1"/>
        <pt x="445" y="220" on="0"/>
        <pt x="421" y="276" on="0"/>
        <pt x="380" y="317" on="0"/>
        <pt x="323" y="341" on="0"/>
        <pt x="290" y="341" on="1"/>
        <pt x="257" y="341" on="0"/>
        <pt x="200" y="317" on="0"/>
        <pt x="159" y="276" on="0"/>
        <pt x="135" y="220" on="0"/>
        <pt x="135" y="187" on="1"/>
        <pt x="135" y="155" on="0"/>
        <pt x="159" y="98" on="0"/>
        <pt x="200" y="56" on="0"/>
        <pt x="257" y="32" on="0"/>
        <pt x="290" y="32" on="1"/>
        <pt x="323" y="32" on="0"/>
        <pt x="380" y="56" on="0"/>
        <pt x="421" y="98" on="0"/>
        <pt x="445" y="155" on="0"/>
      </contour>
    </TTGlyph>
    <TTGlyph name="three" xMin="79" yMin="-8" xMax="443" yMax="650">
      <contour>
        <pt x="168" y="347" on="1"/>
        <pt x="351" y="609" on="1"/>
        <pt x="143" y="609" on="1"/>
        <pt x="143" y="549" on="1"/>
        <pt x="103" y="549" on="1"/>
        <pt x="103" y="650" on="1"/>
        <pt x="426" y="650" on="1"/>
        <pt x="249" y="404" on="1"/>
        <pt x="289" y="401" on="0"/>
        <pt x="360" y="368" on="0"/>
        <pt x="413" y="314" on="0"/>
        <pt x="443" y="243" on="0"/>
        <pt x="443" y="201" on="1"/>
        <pt x="443" y="158" on="0"/>
        <pt x="410" y="82" on="0"/>
        <pt x="353" y="25" on="0"/>
        <pt x="276" y="-8" on="0"/>
        <pt x="233" y="-8" on="1"/>
        <pt x="187" y="-8" on="0"/>
        <pt x="108" y="29" on="0"/>
        <pt x="79" y="60" on="1"/>
        <pt x="110" y="91" on="1"/>
        <pt x="132" y="65" on="0"/>
        <pt x="194" y="33" on="0"/>
        <pt x="231" y="33" on="1"/>
        <pt x="266" y="33" on="0"/>
        <pt x="328" y="60" on="0"/>
        <pt x="374" y="106" on="0"/>
        <pt x="401" y="167" on="0"/>
        <pt x="401" y="201" on="1"/>
        <pt x="401" y="235" on="0"/>
        <pt x="374" y="296" on="0"/>
        <pt x="328" y="342" on="0"/>
        <pt x="266" y="368" on="0"/>
        <pt x="231" y="368" on="1"/>
        <pt x="214" y="368" on="0"/>
        <pt x="182" y="357" on="0"/>
      </contour>
    </TTGlyph>
    <TTGlyph name="threequarters" xMin="147" yMin="-19" xMax="1044" yMax="736">
      <contour>
        <pt x="216" y="474" on="1"/>
        <pt x="357" y="677" on="1"/>
        <pt x="196" y="677" on="1"/>
        <pt x="196" y="630" on="1"/>
        <pt x="165" y="630" on="1"/>
        <pt x="165" y="708" on="1"/>
        <pt x="415" y="708" on="1"/>
        <pt x="278" y="518" on="1"/>
        <pt x="309" y="516" on="0"/>
        <pt x="364" y="490" on="0"/>
        <pt x="405" y="449" on="0"/>
        <pt x="428" y="394" on="0"/>
        <pt x="428" y="361" on="1"/>
        <pt x="428" y="328" on="0"/>
        <pt x="402" y="269" on="0"/>
        <pt x="358" y="225" on="0"/>
        <pt x="299" y="200" on="0"/>
        <pt x="266" y="200" on="1"/>
        <pt x="230" y="200" on="0"/>
        <pt x="169" y="228" on="0"/>
        <pt x="147" y="252" on="1"/>
        <pt x="171" y="276" on="1"/>
        <pt x="188" y="256" on="0"/>
        <pt x="236" y="231" on="0"/>
        <pt x="264" y="231" on="1"/>
        <pt x="291" y="231" on="0"/>
        <pt x="339" y="252" on="0"/>
        <pt x="375" y="288" on="0"/>
        <pt x="395" y="335" on="0"/>
        <pt x="395" y="361" on="1"/>
        <pt x="395" y="388" on="0"/>
        <pt x="375" y="435" on="0"/>
        <pt x="339" y="470" on="0"/>
        <pt x="291" y="490" on="0"/>
        <pt x="264" y="490" on="1"/>
        <pt x="251" y="490" on="0"/>
        <pt x="226" y="482" on="0"/>
      </contour>
      <contour>
        <pt x="454" y="-19" on="1"/>
        <pt x="524" y="171" on="0"/>
        <pt x="662" y="546" on="0"/>
        <pt x="732" y="736" on="1"/>
        <pt x="774" y="736" on="1"/>
        <pt x="704" y="546" on="0"/>
        <pt x="566" y="171" on="0"/>
        <pt x="496" y="-19" on="1"/>
      </contour>
      <contour>
        <pt x="884" y="30" on="1"/>
        <pt x="941" y="30" on="1"/>
        <pt x="941" y="136" on="1"/>
        <pt x="700" y="136" on="1"/>
        <pt x="972" y="490" on="1"/>
        <pt x="972" y="167" on="1"/>
        <pt x="1044" y="167" on="1"/>
        <pt x="1044" y="136" on="1"/>
        <pt x="972" y="136" on="1"/>
        <pt x="972" y="30" on="1"/>
        <pt x="1034" y="30" on="1"/>
        <pt x="1034" y="0" on="1"/>
        <pt x="884" y="0" on="1"/>
      </contour>
      <contour>
        <pt x="941" y="398" on="1"/>
        <pt x="763" y="167" on="1"/>
        <pt x="941" y="167" on="1"/>
      </contour>
    </TTGlyph>
    <TTGlyph name="threesuperior" xMin="88" yMin="376" xMax="267" yMax="700">
      <contour>
        <pt x="132" y="551" on="1"/>
        <pt x="222" y="680" on="1"/>
        <pt x="120" y="680" on="1"/>
        <pt x="120" y="650" on="1"/>
        <pt x="100" y="650" on="1"/>
        <pt x="100" y="700" on="1"/>
        <pt x="259" y="700" on="1"/>
        <pt x="172" y="579" on="1"/>
        <pt x="192" y="577" on="0"/>
        <pt x="227" y="561" on="0"/>
        <pt x="253" y="535" on="0"/>
        <pt x="267" y="500" on="0"/>
        <pt x="267" y="479" on="1"/>
        <pt x="267" y="458" on="0"/>
        <pt x="251" y="420" on="0"/>
        <pt x="223" y="392" on="0"/>
        <pt x="185" y="376" on="0"/>
        <pt x="164" y="376" on="1"/>
        <pt x="141" y="376" on="0"/>
        <pt x="102" y="394" on="0"/>
        <pt x="88" y="410" on="1"/>
        <pt x="103" y="425" on="1"/>
        <pt x="114" y="412" on="0"/>
        <pt x="145" y="396" on="0"/>
        <pt x="163" y="396" on="1"/>
        <pt x="180" y="396" on="0"/>
        <pt x="211" y="410" on="0"/>
        <pt x="233" y="432" on="0"/>
        <pt x="247" y="462" on="0"/>
        <pt x="247" y="479" on="1"/>
        <pt x="247" y="496" on="0"/>
        <pt x="233" y="526" on="0"/>
        <pt x="211" y="548" on="0"/>
        <pt x="180" y="561" on="0"/>
        <pt x="163" y="561" on="1"/>
        <pt x="155" y="561" on="0"/>
        <pt x="139" y="556" on="0"/>
      </contour>
    </TTGlyph>
    <TTGlyph name="two" xMin="48" yMin="0" xMax="468" yMax="658">
      <contour>
        <pt x="155" y="41" on="1"/>
        <pt x="428" y="41" on="1"/>
        <pt x="428" y="146" on="1"/>
        <pt x="468" y="146" on="1"/>
        <pt x="468" y="0" on="1"/>
        <pt x="53" y="0" on="1"/>
        <pt x="116" y="62" on="0"/>
        <pt x="235" y="181" on="0"/>
        <pt x="327" y="294" on="0"/>
        <pt x="383" y="399" on="0"/>
        <pt x="383" y="446" on="1"/>
        <pt x="383" y="495" on="0"/>
        <pt x="354" y="560" on="0"/>
        <pt x="311" y="600" on="0"/>
        <pt x="260" y="617" on="0"/>
        <pt x="238" y="617" on="1"/>
        <pt x="193" y="617" on="0"/>
        <pt x="136" y="585" on="0"/>
        <pt x="103" y="539" on="0"/>
        <pt x="90" y="485" on="0"/>
        <pt x="90" y="463" on="1"/>
        <pt x="90" y="428" on="0"/>
        <pt x="110" y="374" on="0"/>
        <pt x="129" y="353" on="1"/>
        <pt x="104" y="328" on="1"/>
        <pt x="78" y="351" on="0"/>
        <pt x="48" y="424" on="0"/>
        <pt x="48" y="463" on="1"/>
        <pt x="48" y="503" on="0"/>
        <pt x="73" y="574" on="0"/>
        <pt x="121" y="627" on="0"/>
        <pt x="192" y="658" on="0"/>
        <pt x="238" y="658" on="1"/>
        <pt x="280" y="658" on="0"/>
        <pt x="349" y="627" on="0"/>
        <pt x="398" y="573" on="0"/>
        <pt x="425" y="500" on="0"/>
        <pt x="425" y="458" on="1"/>
        <pt x="425" y="404" on="0"/>
        <pt x="376" y="297" on="0"/>
        <pt x="298" y="193" on="0"/>
        <pt x="202" y="91" on="0"/>
      </contour>
    </TTGlyph>
    <TTGlyph name="twosuperior" xMin="101" yMin="375" xMax="308" yMax="700">
      <contour>
        <pt x="154" y="395" on="1"/>
        <pt x="289" y="395" on="1"/>
        <pt x="289" y="447" on="1"/>
        <pt x="308" y="447" on="1"/>
        <pt x="308" y="375" on="1"/>
        <pt x="103" y="375" on="1"/>
        <pt x="134" y="406" on="0"/>
        <pt x="193" y="464" on="0"/>
        <pt x="239" y="520" on="0"/>
        <pt x="266" y="572" on="0"/>
        <pt x="266" y="595" on="1"/>
        <pt x="266" y="619" on="0"/>
        <pt x="252" y="652" on="0"/>
        <pt x="231" y="671" on="0"/>
        <pt x="206" y="680" on="0"/>
        <pt x="195" y="680" on="1"/>
        <pt x="172" y="680" on="0"/>
        <pt x="144" y="664" on="0"/>
        <pt x="128" y="641" on="0"/>
        <pt x="122" y="615" on="0"/>
        <pt x="122" y="604" on="1"/>
        <pt x="122" y="586" on="0"/>
        <pt x="131" y="560" on="0"/>
        <pt x="141" y="549" on="1"/>
        <pt x="128" y="537" on="1"/>
        <pt x="116" y="548" on="0"/>
        <pt x="101" y="584" on="0"/>
        <pt x="101" y="604" on="1"/>
        <pt x="101" y="623" on="0"/>
        <pt x="113" y="658" on="0"/>
        <pt x="137" y="685" on="0"/>
        <pt x="172" y="700" on="0"/>
        <pt x="195" y="700" on="1"/>
        <pt x="215" y="700" on="0"/>
        <pt x="250" y="685" on="0"/>
        <pt x="274" y="658" on="0"/>
        <pt x="287" y="622" on="0"/>
        <pt x="287" y="601" on="1"/>
        <pt x="287" y="575" on="0"/>
        <pt x="263" y="522" on="0"/>
        <pt x="224" y="470" on="0"/>
        <pt x="177" y="420" on="0"/>
      </contour>
    </TTGlyph>
    <TTGlyph name="u" xMin="35" yMin="-8" xMax="504" yMax="375">
      <contour>
        <pt x="35" y="375" on="1"/>
        <pt x="150" y="375" on="1"/>
        <pt x="150" y="115" on="1"/>
        <pt x="152" y="83" on="0"/>
        <pt x="195" y="35" on="0"/>
        <pt x="237" y="33" on="1"/>
        <pt x="268" y="33" on="0"/>
        <pt x="324" y="54" on="0"/>
        <pt x="366" y="90" on="0"/>
        <pt x="391" y="140" on="0"/>
        <pt x="391" y="170" on="1"/>
        <pt x="391" y="335" on="1"/>
        <pt x="317" y="335" on="1"/>
        <pt x="317" y="375" on="1"/>
        <pt x="433" y="375" on="1"/>
        <pt x="433" y="36" on="1"/>
        <pt x="504" y="36" on="1"/>
        <pt x="504" y="0" on="1"/>
        <pt x="396" y="0" on="1"/>
        <pt x="394" y="52" on="1"/>
        <pt x="394" y="97" on="1"/>
        <pt x="374" y="49" on="0"/>
        <pt x="285" y="-8" on="0"/>
        <pt x="230" y="-8" on="1"/>
        <pt x="175" y="-8" on="0"/>
        <pt x="111" y="54" on="0"/>
        <pt x="109" y="104" on="1"/>
        <pt x="109" y="335" on="1"/>
        <pt x="35" y="335" on="1"/>
      </contour>
    </TTGlyph>
    <TTGlyph name="uacute" xMin="35" yMin="-8" xMax="504" yMax="612">
      <component glyphName="u" x="0" y="0" flags="0x204"/>
      <component glyphName="acute" x="131" y="0" flags="0x4"/>
    </TTGlyph>
    <TTGlyph name="ucircumflex" xMin="35" yMin="-8" xMax="504" yMax="660">
      <component glyphName="u" x="0" y="0" flags="0x204"/>
      <component glyphName="asciicircum" x="34" y="0" flags="0x4"/>
    </TTGlyph>
    <TTGlyph name="udieresis" xMin="35" yMin="-8" xMax="504" yMax="541">
      <component glyphName="u" x="0" y="0" flags="0x204"/>
      <component glyphName="dieresis" x="77" y="0" flags="0x4"/>
    </TTGlyph>
    <TTGlyph name="ugrave" xMin="35" yMin="-8" xMax="504" yMax="612">
      <component glyphName="u" x="0" y="0" flags="0x204"/>
      <component glyphName="grave" x="170" y="0" flags="0x4"/>
    </TTGlyph>
    <TTGlyph name="underscore" xMin="100" yMin="0" xMax="500" yMax="41">
      <contour>
        <pt x="500" y="0" on="1"/>
        <pt x="100" y="0" on="1"/>
        <pt x="100" y="41" on="1"/>
        <pt x="500" y="41" on="1"/>
      </contour>
    </TTGlyph>
</ttFont>
